<?xml version="1.0" encoding="UTF-8" standalone="no"?>
<!-- Created with Inkscape (http://www.inkscape.org/) -->

<svg
   xmlns:dc="http://purl.org/dc/elements/1.1/"
   xmlns:cc="http://creativecommons.org/ns#"
   xmlns:rdf="http://www.w3.org/1999/02/22-rdf-syntax-ns#"
   xmlns:svg="http://www.w3.org/2000/svg"
   xmlns="http://www.w3.org/2000/svg"
   xmlns:sodipodi="http://sodipodi.sourceforge.net/DTD/sodipodi-0.dtd"
   xmlns:inkscape="http://www.inkscape.org/namespaces/inkscape"
   width="438.16345"
   height="51.853115"
   viewBox="0 0 438.16345 51.853115"
   id="svg2"
   version="1.1"
   inkscape:version="0.92.2 (5c3e80d, 2017-08-06)"
   sodipodi:docname="Banner_v3.svg">
  <defs
     id="defs4">
    <radialGradient
       id="radialGradient3539"
       gradientUnits="userSpaceOnUse"
       cy="588.48999"
       cx="394.14001"
       gradientTransform="matrix(0.72403,-0.60775,3.4671,4.2491,-1901.5,-1689)"
       r="54.528999"
       inkscape:collect="always">
      <stop
         id="stop3535"
         style="stop-color:#ac00ff"
         offset="0" />
      <stop
         id="stop3537"
         style="stop-color:#d782ff"
         offset="1" />
    </radialGradient>
  </defs>
  <sodipodi:namedview
     id="base"
     pagecolor="#ffffff"
     bordercolor="#666666"
     borderopacity="1.0"
     inkscape:pageopacity="0.0"
     inkscape:pageshadow="2"
     inkscape:zoom="3.4615524"
     inkscape:cx="231.2517"
     inkscape:cy="8.9715893"
     inkscape:document-units="px"
     inkscape:current-layer="layer1"
     showgrid="false"
     inkscape:window-width="1920"
     inkscape:window-height="1017"
     inkscape:window-x="-8"
     inkscape:window-y="-8"
     inkscape:window-maximized="1"
     showguides="false"
     units="px"
     fit-margin-top="0"
     fit-margin-left="0"
     fit-margin-right="0"
     fit-margin-bottom="0">
    <inkscape:grid
       type="xygrid"
       id="grid3352"
       originx="-5.6433196"
       originy="-3.5846334" />
  </sodipodi:namedview>
  <metadata
     id="metadata7">
    <rdf:RDF>
      <cc:Work
         rdf:about="">
        <dc:format>image/svg+xml</dc:format>
        <dc:type
           rdf:resource="http://purl.org/dc/dcmitype/StillImage" />
        <dc:title></dc:title>
      </cc:Work>
    </rdf:RDF>
  </metadata>
  <g
     inkscape:label="Layer 1"
     inkscape:groupmode="layer"
     id="layer1"
     transform="translate(-5.6433196,-996.92445)">
    <flowRoot
       xml:space="preserve"
       id="flowRoot3336"
       style="font-style:normal;font-variant:normal;font-weight:normal;font-stretch:normal;line-height:0.01%;font-family:'Bradley Hand ITC';-inkscape-font-specification:'Bradley Hand ITC';letter-spacing:0px;word-spacing:0px;fill:#000000;fill-opacity:1;stroke:none;stroke-width:1px;stroke-linecap:butt;stroke-linejoin:miter;stroke-opacity:1"
       transform="translate(0,857.48031)"><flowRegion
         id="flowRegion3338"><rect
           id="rect3340"
           width="241.42645"
           height="32.829956"
           x="25.75889"
           y="26.691498"
           style="font-style:normal;font-variant:normal;font-weight:normal;font-stretch:normal;font-family:'Bradley Hand ITC';-inkscape-font-specification:'Bradley Hand ITC'" /></flowRegion><flowPara
         id="flowPara3342"
         style="font-size:30px;line-height:1.25">Mmmmmm</flowPara></flowRoot>    <text
       xml:space="preserve"
       style="font-style:normal;font-weight:normal;line-height:0%;font-family:sans-serif;letter-spacing:0px;word-spacing:0px;fill:#000000;fill-opacity:1;stroke:none;stroke-width:1px;stroke-linecap:butt;stroke-linejoin:miter;stroke-opacity:1"
       x="164.65486"
       y="925.08301"
       id="text3347"><tspan
         sodipodi:role="line"
         id="tspan3349"
         x="164.65486"
         y="925.08301"
         style="font-size:30px;line-height:1.25"> </tspan></text>
    <g
       id="g8712"
       transform="matrix(1.6831318,0,0,0.48759053,-26.112522,545.18586)">
      <path
         sodipodi:nodetypes="zccz"
         inkscape:connector-curvature="0"
         id="path4154"
         d="m 18.873908,953.33313 c 0.01924,4.1369 -0.0068,78.10027 -0.0068,78.10027 l 189.164572,0.9288 C 165,982.3622 18.854664,949.19623 18.873908,953.33313 Z"
         style="fill:#84c475;fill-opacity:1;fill-rule:evenodd;stroke:none;stroke-width:1px;stroke-linecap:butt;stroke-linejoin:miter;stroke-opacity:1" />
      <path
         sodipodi:nodetypes="zccz"
         inkscape:connector-curvature="0"
         id="path4154-1"
         d="m 279.34057,981.17328 c 0.49376,4.40115 -0.19907,51.64352 -0.19907,51.64352 -117.75386,-1.0728 -134.7264,-0.5082 -134.7264,-0.5082 31.06188,-32.68771 134.43171,-55.53647 134.92547,-51.13532 z"
         style="fill:#a6c475;fill-opacity:1;fill-rule:evenodd;stroke:none;stroke-width:0.68600053px;stroke-linecap:butt;stroke-linejoin:miter;stroke-opacity:1" />
    </g>
  </g>
  <g
     inkscape:groupmode="layer"
     id="layer2"
     inkscape:label="Layer 2"
     transform="translate(-5.6433196,-4.5622515)">
    <g
       id="g1181"
       transform="translate(0.28888773,0.57777545)">
      <g
         id="g5343"
         transform="matrix(0.0420031,0,0,0.04014404,408.66748,8.4314)">
        <g
           id="g5355"
           transform="matrix(1.1473661,0,0,0.87663274,-3.2023326,2.2767293)">
          <path
             inkscape:connector-curvature="0"
             d="M 317.79,426.82 C 378.86,344.35 126.67,59.78 246.31,19.55 339.16,1.866 570.12,233.22 594.99,314.54 613.91,387.03 450.44,492 615.42,395.18 680.98,359.84 779.8,697.94 684.03,749.85 608.53,795.37 527.12,647.38 453.37,629.23"
             style="fill:#f175ff;fill-rule:evenodd;stroke:#000000;stroke-width:0.9465px"
             sodipodi:nodetypes="cccccc"
             id="path3513" />
          <path
             inkscape:connector-curvature="0"
             d="M 338.58,450.52 C 395.62,383.69 191.2,52.63 248.77,37.65 c 69.06,-12.997 321,212.66 330.78,274.5 -4.55,100.58 -152.47,204.87 17.35,118.43 79.9,-42.37 143.23,253.8 72.05,292.29 -56.1,33.77 -158.68,-106.62 -213.61,-120.28"
             style="fill:#9900aa;fill-rule:evenodd;stroke:#000000;stroke-width:0.70480001px"
             sodipodi:nodetypes="cccccc"
             id="path3515" />
          <path
             inkscape:connector-curvature="0"
             d="M 353.7,468.1 C 411.28,409.18 212.16,65.49 264.61,55.24 313.39,38.197 578.66,278.09 563.09,321.28 537.63,423.87 415.99,521.48 586.78,457.71 651.11,439.58 716.89,686.36 660.63,704.32 620.89,726.49 509.02,585.29 452.35,595.2"
             style="fill:#6a00ff;fill-opacity:1;fill-rule:evenodd;stroke:#000000;stroke-width:0.53684002px"
             sodipodi:nodetypes="cccccc"
             id="path3517" />
          <ellipse
             ry="31.31473"
             rx="29.294424"
             cy="416.97623"
             cx="180.81731"
             transform="matrix(0.72403,-0.60775,0.59921,0.73435,241.86,430.97)"
             style="fill:#00b7ff"
             id="path3525" />
          <ellipse
             ry="31.31473"
             rx="29.294424"
             cy="416.97623"
             cx="180.81731"
             transform="matrix(0.72403,-0.60775,0.59921,0.73435,-48.704,-62.566)"
             style="fill:#00b7ff"
             id="path3527" />
          <path
             sodipodi:expansion="3.6300001"
             sodipodi:radius="209.06009"
             sodipodi:t0="0.57615221"
             sodipodi:cx="-311.42856"
             sodipodi:cy="189.50504"
             sodipodi:argument="-4.1452532"
             transform="matrix(-0.069429,1.2956,-1.015,-0.47367,186.35,747.77)"
             d="m -336.4789,176.44544 c -46.59738,-55.08816 -9.8021,-146.576592 25.3951,-196.000209"
             sodipodi:type="spiral"
             sodipodi:revolution="0.41"
             style="fill:none;stroke:#000000;stroke-width:1px"
             id="path3529" />
          <path
             sodipodi:expansion="3.6300001"
             sodipodi:radius="209.06009"
             sodipodi:t0="0.57615221"
             sodipodi:cx="-311.42856"
             sodipodi:cy="189.50504"
             sodipodi:argument="-4.1452532"
             transform="matrix(-0.31151,1.2585,-0.90745,-0.66112,118.63,742.13)"
             d="m -336.4789,176.44544 c -46.59738,-55.08816 -9.8021,-146.576592 25.3951,-196.000209"
             sodipodi:type="spiral"
             sodipodi:revolution="0.41"
             style="fill:none;stroke:#000000;stroke-width:1px"
             id="path3559" />
          <ellipse
             ry="8.737689"
             rx="10.633302"
             cy="416.97623"
             cx="180.81731"
             transform="matrix(0.72403,-0.60775,0.59921,0.73435,-350.06,34.617)"
             style="fill:#00b7ff"
             id="path3563" />
          <ellipse
             ry="8.737689"
             rx="10.633302"
             cy="416.97623"
             cx="180.81731"
             transform="matrix(0.72403,-0.60775,0.59921,0.73435,-317.92,6.0458)"
             style="fill:#00b7ff"
             id="path3565" />
          <path
             inkscape:connector-curvature="0"
             d="M 325.88,411.17 C 250.43,281.17 138,371.11 250.56,472.16 536.94,800.4 583.78,744.17 325.88,411.17 Z"
             style="fill:url(#radialGradient3539);fill-rule:evenodd"
             sodipodi:nodetypes="ccc"
             id="path3445" />
        </g>
      </g>
      <g
         transform="matrix(-1.0448291,0,0,1.3646537,697.09568,-1242.2831)"
         id="g8720">
        <path
           inkscape:connector-curvature="0"
           style="color:#000000;fill:#008000;fill-rule:evenodd"
           d="m 372.76066,951.0174 0.58517,-0.4079 c -1.67738,-2.3509 -2.88841,-5.0433 -3.53493,-7.8708 -0.89449,-3.9106 -0.6958,-8.08241 0.57938,-11.91195 v 0 c 1.27512,-3.82934 3.62544,-7.31053 6.72284,-9.93567 -3.15344,2.55804 -5.59678,6.00333 -6.97047,9.85029 0,0 0,0 0,0 -1.37366,3.84703 -1.67329,8.08393 -0.84361,12.10883 v 0 c 0.5998,2.9092 1.78193,5.7026 3.46192,8.1678 z"
           id="path5128" />
        <path
           inkscape:connector-curvature="0"
           style="color:#000000;fill:#008000;fill-opacity:1;fill-rule:evenodd"
           d="m 372.50001,951.1486 0.66846,-0.2489 c -1.81845,-4.7624 -4.90698,-9.018 -8.85006,-12.2128 -3.59659,-2.9133 -7.91652,-4.88504 -12.42997,-5.80793 0,0 0,0 0,0 -4.51361,-0.92322 -9.24274,-0.80229 -13.65673,0.45521 4.43413,-1.18335 9.14564,-1.22044 13.60839,-0.22981 10e-6,10e-6 2e-5,0 2e-5,0 4.46281,0.99093 8.69868,3.01443 12.18464,5.93813 v 0 c 3.82594,3.2074 6.7797,7.4337 8.47418,12.1058 z"
           id="path5134" />
        <path
           inkscape:connector-curvature="0"
           style="color:#000000;fill:#006400;fill-rule:evenodd"
           d="m 372.798,951.0992 0.59256,-0.3971 c -2.98117,-4.3649 -4.73588,-9.5814 -4.99343,-14.887 -0.25792,-5.30566 0.98165,-10.69408 3.5504,-15.37327 0,0 0,0 0,0 1.46352,-2.66575 3.35042,-5.10362 5.5713,-7.1936 -2.25641,2.05119 -4.19134,4.46168 -5.7092,7.11633 0,0 0,0 0,0 -2.6641,4.65996 -4.01654,10.07613 -3.84832,15.46764 0.16877,5.3913 1.85788,10.739 4.83625,15.2668 z"
           id="path5140" />
        <path
           inkscape:connector-curvature="0"
           style="color:#000000;fill:#008000;fill-rule:evenodd"
           d="m 372.63439,951.1952 0.57316,-0.4246 c -3.65938,-4.864 -7.98535,-9.2131 -12.80018,-12.9148 0,0 0,0 0,0 -4.81468,-3.70169 -10.12046,-6.75735 -15.73784,-9.03415 -2.06258,-0.83606 -4.17328,-1.57125 -6.34552,-2.05553 -1.65184,-0.36823 -3.3352,-0.58992 -5.02382,-0.66207 1.68738,0.0972 3.36502,0.34376 5.00689,0.73538 2.15922,0.51498 4.25113,1.27909 6.29584,2.14318 5.5684,2.3536 10.80347,5.47467 15.53157,9.22319 v 0 c 4.72828,3.7482 8.95246,8.1255 12.49997,12.9898 z"
           id="path5146" />
        <path
           inkscape:connector-curvature="0"
           style="color:#000000;fill:#006400;fill-opacity:1;fill-rule:evenodd"
           d="m 371.8607,950.6985 0.67434,-0.2325 c -0.26077,-0.7327 -0.63565,-1.4225 -1.10691,-2.0382 -0.78208,-1.0172 -1.80052,-1.8118 -2.89027,-2.4321 v 0 c -1.08866,-0.6209 -2.24537,-1.0821 -3.39846,-1.5091 v 0 c -7.83737,-2.9066 -16.12499,-4.5553 -24.45018,-4.8723 8.31677,0.4885 16.54114,2.3063 24.26538,5.3537 1.13599,0.4489 2.25713,0.9214 3.28409,1.538 v 0 c 1.02579,0.6171 1.96665,1.3783 2.655,2.3219 0.41714,0.569 0.74461,1.2032 0.96659,1.8703 z"
           id="path5158" />
        <path
           inkscape:connector-curvature="0"
           style="color:#000000;fill:#008000;fill-rule:evenodd"
           d="m 372.22484,951.2211 0.69809,-0.1465 c -1.86663,-8.4746 -1.66776,-17.42299 0.59289,-25.84396 0.3633,-1.35236 0.78397,-2.69159 1.36244,-3.9647 v 0 c 0.57234,-1.25927 1.30669,-2.45552 2.26479,-3.45643 0.43498,-0.45449 0.91412,-0.86758 1.42873,-1.2315 -0.52165,0.35377 -1.0097,0.75808 -1.45518,1.20566 -0.98112,0.98588 -1.74492,2.17522 -2.34568,3.43221 -0.60719,1.27034 -1.05761,2.61015 -1.4485,3.9608 0,0 0,0 0,0 -2.43424,8.40683 -2.82108,17.42132 -1.0977,26.04472 z"
           id="path5170" />
        <path
           inkscape:connector-curvature="0"
           style="color:#000000;fill:#006400;fill-rule:evenodd"
           d="m 372.32599,950.5441 0.69415,-0.1642 c -1.26681,-5.1416 -3.849,-9.938 -7.4221,-13.8122 0,0 0,0 0,0 -3.57327,-3.87392 -8.12875,-6.81591 -13.10423,-8.47713 -2.17259,-0.72548 -4.42296,-1.2104 -6.69686,-1.44406 2.26912,0.27606 4.50539,0.80223 6.65525,1.56491 4.92271,1.74638 9.38133,4.75258 12.83372,8.63918 v 0 c 3.45259,3.8859 5.89639,8.6489 7.03968,13.694 z"
           id="path5182" />
        <path
           inkscape:connector-curvature="0"
           style="color:#000000;fill:#006400;fill-opacity:1;fill-rule:evenodd"
           d="m 372.54433,951.0177 0.67041,-0.2436 c -0.43161,-1.1434 -0.70669,-2.3486 -0.81371,-3.5702 -0.183,-2.0794 0.15492,-4.2086 0.9338,-6.1633 0,0 0,0 0,0 0.77941,-1.9544 2.00317,-3.7431 3.58561,-5.1438 v 0 c 1.58199,-1.40128 3.5154,-2.40791 5.57248,-2.9508 2.0571,-0.54268 4.24683,-0.62407 6.33953,-0.18076 -2.08138,-0.49388 -4.28502,-0.46843 -6.37739,0.0299 -2.0924,0.49808 -4.08254,1.471 -5.73794,2.86626 v 0 c -1.65497,1.3958 -2.95999,3.2014 -3.81357,5.2011 v 0 c -0.85418,1.9995 -1.26049,4.2014 -1.12285,6.388 0.081,1.2808 0.33834,2.5519 0.7636,3.7671 z"
           id="path5188" />
        <path
           inkscape:connector-curvature="0"
           style="color:#000000;fill:#008000;fill-rule:evenodd"
           d="m 372.43942,951.2454 0.61623,-0.3593 c -1.40122,-2.3233 -3.54623,-4.1681 -6.02587,-5.2029 0,0 0,0 0,0 -2.48001,-1.0343 -5.27602,-1.2509 -7.86222,-0.6243 v 0 c -2.53287,0.614 -4.85064,2.0323 -6.5389,3.9846 1.74686,-1.9004 4.08951,-3.2295 6.59084,-3.756 2.5539,-0.5377 5.26815,-0.2367 7.62149,0.8303 2.35351,1.0663 4.34551,2.898 5.59873,5.1277 z"
           id="path5194" />
        <path
           inkscape:connector-curvature="0"
           style="color:#000000;fill:#006400;fill-rule:evenodd"
           d="m 347.90286,926.86532 c -0.0289,0.17818 -0.54562,0.7273 -1.17297,0.3272 -0.78109,-0.4982 -1.94956,-0.95347 -1.95123,-0.94603 0,0 1.17611,-0.27311 2.03844,-0.10228 0.86228,0.17081 1.14463,0.35807 1.08577,0.72114 z"
           id="path5242" />
        <path
           inkscape:connector-curvature="0"
           d="m 340.05498,932.65386 c 0.0722,0.16554 -0.19503,0.95301 -1.15296,1.0315 -1.19276,0.0978 -2.80494,0.48257 -2.80247,0.48977 0,0 1.18872,-0.98908 2.28043,-1.40897 1.09168,-0.41992 1.52713,-0.44931 1.67499,-0.11232 z"
           style="color:#000000;fill:#008000;fill-opacity:1;fill-rule:evenodd"
           id="path5254" />
        <path
           inkscape:connector-curvature="0"
           style="color:#000000;fill:#008000;fill-rule:evenodd"
           d="m 375.99712,922.22828 c -0.165,-0.073 -0.62949,-0.58687 -0.18761,-0.8903 0.55017,-0.37783 1.09981,-1.03014 1.09299,-1.0335 0,0 0.13631,0.87624 -0.11358,1.4072 -0.24987,0.53098 -0.45553,0.6654 -0.79181,0.51663 z"
           id="path5290" />
        <path
           inkscape:connector-curvature="0"
           style="color:#000000;fill:#008000;fill-rule:evenodd"
           d="m 376.75257,918.55296 c -0.093,-0.043 -0.25246,-0.24803 -0.30796,-0.51359 -0.0555,-0.2656 -0.006,-0.59244 0.31717,-0.86832 0.2408,-0.20535 0.49245,-0.44613 0.72936,-0.68102 0.12246,-0.12365 0.24056,-0.24247 0.3324,-0.36409 0.0919,-0.12159 0.15683,-0.24635 0.19116,-0.36937 0.0429,-0.15243 0.0394,-0.29788 0.0266,-0.40167 -0.0128,-0.10375 -0.0325,-0.16619 -0.034,-0.16632 0,0 0.0476,0.0616 0.11147,0.17505 0.064,0.1134 0.14255,0.28084 0.18218,0.48202 0.0294,0.1601 0.033,0.33594 0.0101,0.51094 -0.0229,0.17498 -0.0717,0.34864 -0.12721,0.50836 -0.0832,0.25734 -0.18376,0.51535 -0.30728,0.74193 -0.23587,0.43267 -0.41905,0.71402 -0.5938,0.86421 -0.17472,0.15018 -0.34035,0.16978 -0.53014,0.0819 z"
           id="path5302" />
        <path
           inkscape:connector-curvature="0"
           style="color:#000000;fill:#008000;fill-rule:evenodd"
           d="m 353.07806,948.3635 c 0.13948,0.1146 0.40908,0.7783 -0.1633,1.0241 -0.71263,0.3059 -1.53414,0.9158 -1.52854,0.9209 0,0 0.2101,-0.9979 0.67705,-1.5348 0.46694,-0.5368 0.73063,-0.6437 1.01478,-0.4102 z"
           id="path5314" />
      </g>
      <g
         id="text3344"
         style="font-style:normal;font-variant:normal;font-weight:bold;font-stretch:semi-condensed;font-size:39.6398201px;line-height:125%;font-family:'HW Andy';-inkscape-font-specification:'HW Andy, Bold Semi-Condensed';text-align:start;letter-spacing:0px;word-spacing:-1.9806577px;writing-mode:lr-tb;text-anchor:start;fill:#7e3ca0;fill-opacity:1;stroke:none;stroke-width:1px;stroke-linecap:butt;stroke-linejoin:miter;stroke-opacity:1"
         transform="matrix(1.4657829,0,0,0.68222929,-65.291947,-1007.5559)">
        <g
           id="text3473"
           style="font-style:normal;font-variant:normal;font-weight:normal;font-stretch:normal;font-size:30px;line-height:125%;font-family:Forte;-inkscape-font-specification:Forte;text-align:start;letter-spacing:0px;word-spacing:0px;writing-mode:lr-tb;text-anchor:start;fill:#7e3ca0;fill-opacity:1;stroke:none;stroke-width:1px;stroke-linecap:butt;stroke-linejoin:miter;stroke-opacity:1"
           transform="scale(0.68222927,1.4657829)">
          <path
             inkscape:connector-curvature="0"
             id="path4280"
             style="font-style:normal;font-variant:normal;font-weight:normal;font-stretch:normal;font-size:35px;line-height:125%;font-family:Forte;-inkscape-font-specification:'Forte, Normal';text-align:start;writing-mode:lr-tb;text-anchor:start"
             d="m 90.778236,1032.354 0.341797,-0.769 q 4.033203,-9.1089 5.844727,-11.8433 0.290527,-0.376 0.495605,-0.5811 0.205078,-0.2221 0.461426,-0.393 0.273438,-0.1709 0.700684,-0.3418 1.230468,-0.5298 3.178715,-0.5298 1.0083,0 1.26464,0.1709 0.27344,0.1709 0.27344,0.769 0,0.4615 -0.0342,0.9912 -0.13672,3.0762 -0.13672,4.375 0,3.2813 0.44434,6.2208 0.29053,1.6406 0.85449,3.3325 0.59815,1.5039 1.14502,2.3071 0.64941,0.8887 1.09375,1.2988 0.54688,0.5469 0.54688,0.8374 0,0.5298 -0.90577,1.4356 -1.52099,1.4697 -3.04199,1.4697 -2.13623,0 -3.879393,-1.8286 -0.888672,-0.8887 -1.418457,-1.9653 -0.512695,-1.0938 -0.769043,-2.6831 -0.256347,-1.6065 -0.341797,-4.0674 -0.119628,-2.666 -0.136718,-3.0078 h -0.06836 q -1.07666,2.0678 -1.794433,3.4521 -0.717774,1.3843 -1.179199,2.29 -0.444336,0.9058 -1.059571,2.1705 -1.948242,4.0332 -2.546387,4.8706 -0.03418,0.034 -0.136718,0.1538 -0.102539,0.1196 -0.187989,0.188 -0.290527,0.2734 -0.666503,0.4272 -0.358887,0.1367 -0.615235,0.1367 -0.717773,0 -1.589355,-0.8886 -0.854492,-0.9058 -1.503907,-2.3243 -0.666503,-1.5039 -1.09375,-3.059 -0.410156,-1.5723 -0.734863,-3.7085 -0.307617,-2.1534 -0.546875,-5.2466 h -0.06836 q -0.512696,1.1279 -0.769043,1.6919 -0.256348,0.5639 -0.786133,1.7431 -0.529785,1.1792 -0.615234,1.3672 -0.700684,1.5552 -1.469727,3.1445 -0.769043,1.5894 -1.247559,2.4439 -0.461425,0.8545 -1.02539,1.6919 -0.256348,0.3931 -0.905762,1.1108 -1.008301,0.9571 -2.20459,1.5039 -1.196289,0.5298 -2.272949,0.5298 -0.410156,0 -0.717773,-0.2051 -0.307618,-0.205 -0.307618,-0.5297 0,-0.2906 0.461426,-0.7691 0.256348,-0.3076 1.11084,-1.5722 l 0.991211,-1.5381 q 0.922852,-1.3672 2.785645,-4.9048 l 0.820312,-1.5381 q 2.871094,-5.5029 3.879395,-7.5195 1.0083,-2.0337 1.0083,-2.3584 0,-0.3589 -0.512695,-0.8033 -0.393066,-0.3247 -0.393066,-0.5639 0,-0.376 0.991211,-0.7007 0.991211,-0.3418 2.15332,-0.3418 2.341308,0 3.332519,1.0425 0.615235,0.6494 1.14502,2.5635 0.529785,1.8969 1.05957,5.52 0.03418,0.2051 0.05127,0.3247 0.01709,0.1025 0.03418,0.188 0.01709,0.085 0.01709,0.2221 0.102539,0.4786 0.102539,0.6324 0.358887,2.2046 0.546875,2.854 0.187989,0.6323 0.546875,1.1108 z" />
          <path
             inkscape:connector-curvature="0"
             id="path4282"
             style="font-style:normal;font-variant:normal;font-weight:normal;font-stretch:normal;font-size:35px;line-height:125%;font-family:Forte;-inkscape-font-specification:'Forte, Normal';text-align:start;writing-mode:lr-tb;text-anchor:start"
             d="m 114.53312,1035.96 q 0.78613,-0.5298 1.19629,-1.0596 0.90576,-1.1108 1.40137,-2.5464 0.39306,-0.9399 0.61523,-2.102 0.22217,-1.1622 0.22217,-2.1705 0,-0.9399 -0.39307,-0.9399 -0.54687,0 -1.6748,2.4097 -0.66651,1.4526 -1.09375,2.9052 -0.41016,1.4356 -0.41016,2.4781 0,0.3589 0.13672,1.0254 z m 0.0342,0.5468 q 0.18799,1.0254 1.33301,1.0254 1.28173,0 3.33252,-1.5039 1.19629,-0.8716 1.60644,-0.8716 0.5127,0 0.95703,0.2735 0.44434,0.2734 0.44434,0.5639 0,0.3077 -0.49561,0.8033 -0.90576,0.9057 -2.08496,1.7773 -1.1792,0.8545 -2.27295,1.4356 -1.09375,0.5639 -2.1875,0.9057 -1.09375,0.3247 -1.94824,0.3247 -2.13623,0 -3.41797,-1.2134 -1.28174,-1.2304 -1.28174,-3.2641 0,-1.5552 0.66651,-3.5034 0.68359,-1.9654 1.82861,-3.6744 1.3501,-1.9995 3.31543,-3.3325 2.42676,-1.6064 4.64844,-1.6064 1.60644,0 2.51221,1.0254 0.92285,1.0083 0.92285,2.7856 0,1.3843 -0.73487,2.8882 -0.71777,1.5039 -2.13623,2.8882 -1.16211,1.1621 -2.29004,1.8115 -1.11084,0.6494 -1.94824,0.6494 -0.37597,0 -0.76904,-0.188 z" />
          <path
             inkscape:connector-curvature="0"
             id="path4284"
             style="font-style:normal;font-variant:normal;font-weight:normal;font-stretch:normal;font-size:35px;line-height:125%;font-family:Forte;-inkscape-font-specification:'Forte, Normal';text-align:start;writing-mode:lr-tb;text-anchor:start"
             d="m 136.33976,1032.3882 -0.32471,0.1025 q -1.23047,0.3418 -1.77734,0.3418 -0.6665,0 -0.6665,-0.3418 0,-0.1196 0.27343,-0.6323 0.95703,-1.4526 0.95703,-2.7344 0,-0.7348 -0.25634,-1.333 -0.25635,-0.6152 -0.56397,-0.6152 -0.27344,0 -0.8374,0.581 -1.58936,1.7261 -2.5293,3.5376 -0.92285,1.8116 -0.92285,3.23 0,0.94 0.37598,1.5552 0.39306,0.6152 0.97412,0.6152 0.4956,0 1.8457,-1.0595 1.36719,-1.0596 3.05908,-2.8028 l 0.46143,-0.376 -0.0684,-0.068 z m -1.02539,3.9136 v 0.068 l -0.0684,-0.068 q -1.58936,1.8628 -2.92236,3.059 -1.31592,1.1792 -2.44385,1.7774 -1.11084,0.5981 -2.05078,0.5981 -1.91406,0 -3.16162,-1.2817 -1.24756,-1.2817 -1.24756,-3.2471 0,-1.2134 0.61523,-2.8711 0.61524,-1.6577 1.6919,-3.247 1.79443,-2.5977 4.51172,-4.4092 2.80273,-1.8628 5.40039,-1.8628 2.1875,0 3.58886,0.9057 1.41846,0.8887 1.41846,2.2559 0,1.0083 -0.70068,2.1362 0.92285,0 1.16211,0.2051 0.23925,0.188 0.23925,0.9058 0,-0.068 -0.0855,0.7007 -0.10253,1.6919 -0.10253,3.1616 0,0.769 0.0171,1.1621 0.0171,0.3931 0.0684,0.9058 0.0513,0.5126 0.10254,0.8203 0.13672,0.8032 0.44434,1.5893 -1.02539,1.0083 -1.96533,1.4868 -0.93994,0.4615 -1.91406,0.4615 -2.63184,0 -2.63184,-4.4092 0,-0.5127 0.0342,-0.8032 z" />
          <path
             inkscape:connector-curvature="0"
             id="path4286"
             style="font-style:normal;font-variant:normal;font-weight:normal;font-stretch:normal;font-size:35px;line-height:125%;font-family:Forte;-inkscape-font-specification:'Forte, Normal';text-align:start;writing-mode:lr-tb;text-anchor:start"
             d="m 153.82267,1033.7554 v -0.9912 q -0.87158,0.769 -1.29883,0.769 -0.23926,0 -0.23926,-0.2393 0,-0.1025 0.10254,-0.4272 0.35889,-1.0254 0.35889,-1.9824 0,-1.3843 -0.59814,-2.8711 -0.25635,-0.7691 -0.63233,-0.7691 -0.18799,0 -0.30762,0.1709 -0.56396,0.6495 -1.07666,1.8457 -0.51269,1.1792 -0.85449,2.5806 -0.32471,1.3843 -0.32471,2.4609 0,2.0337 1.23047,2.0337 0.61524,0 1.64063,-0.7177 1.04248,-0.7349 1.99951,-1.8628 z m 0.52979,-8.1177 0.17089,-0.7007 q 0.52979,-2.3413 0.95703,-3.7768 0.42725,-1.4527 0.87159,-2.4439 0.46142,-1.0083 0.90576,-1.4526 0.71777,-0.7691 2.58056,-0.7691 0.82032,0 1.21338,0.086 0.41016,0.085 0.64942,0.3076 -0.82031,2.5464 -1.14502,3.8281 -0.30762,1.2647 -0.6836,3.4863 -0.58105,3.6231 -0.58105,6.5455 0,1.9311 0.30762,4.0161 0.3247,2.0678 1.04248,4.6142 -0.90576,0.6324 -1.74317,1.0767 -0.82031,0.4443 -1.57226,0.7007 -0.73487,0.2563 -1.29883,0.2563 -0.99121,0 -1.40137,-0.9741 -0.34179,-0.8032 -0.44433,-1.2817 -0.10254,-0.4956 -0.35889,-2.7173 -2.29004,2.3926 -4.39209,3.7768 -2.08496,1.3672 -3.33252,1.3672 -1.43555,0 -2.3584,-1.1621 -0.90576,-1.1792 -0.90576,-3.0249 0,-1.6577 0.70068,-3.6743 0.71778,-2.0337 1.96534,-3.9307 0.82031,-1.2475 1.6748,-2.102 0.87158,-0.8716 1.96533,-1.6065 1.98242,-1.2988 3.31543,-1.2988 0.64942,0 1.89698,0.8545 z" />
          <path
             inkscape:connector-curvature="0"
             id="path4288"
             style="font-style:normal;font-variant:normal;font-weight:normal;font-stretch:normal;font-size:35px;line-height:125%;font-family:Forte;-inkscape-font-specification:'Forte, Normal';text-align:start;writing-mode:lr-tb;text-anchor:start"
             d="m 173.76652,1024.0825 q 2.54638,0 2.54638,0.5982 0,0.6836 -1.14502,0.7348 -1.38427,0.085 -2.58056,0.7862 -1.19629,0.7006 -2.13623,1.914 -0.92285,1.2134 -1.45264,2.7344 -0.51269,1.521 -0.51269,3.2129 0,1.8628 0.87158,3.0078 0.87158,1.1279 2.27295,1.1279 1.29883,0 2.27295,-1.333 0.97412,-1.333 0.97412,-3.1103 0,-1.4527 -0.61524,-2.7173 -0.59814,-1.2818 -1.76025,-2.1533 -0.49561,-0.3931 -0.49561,-0.564 0,-0.2393 0.70069,-0.7349 0.78613,-0.5297 1.76025,-0.8886 0.97412,-0.3589 1.64063,-0.3589 0.76904,0 1.45263,0.4101 0.70069,0.3931 1.23047,1.1451 0.52979,0.7348 0.80322,1.7089 0.29053,0.9571 0.29053,2.0508 0,1.8115 -0.68359,3.5889 -0.6836,1.7602 -1.79444,2.854 -1.43554,1.3843 -3.46923,2.2729 -2.01661,0.8716 -3.84522,0.8716 -1.77734,0 -3.5376,-0.6152 -1.74316,-0.6152 -2.76855,-1.6235 -1.36719,-1.3672 -1.36719,-3.8794 0,-1.9825 0.97412,-3.9649 0.97412,-1.9824 2.63184,-3.5889 1.6748,-1.6235 3.67431,-2.5463 2.01661,-0.94 4.06739,-0.94 z" />
          <path
             inkscape:connector-curvature="0"
             id="path4290"
             style="font-style:normal;font-variant:normal;font-weight:normal;font-stretch:normal;font-size:35px;line-height:125%;font-family:Forte;-inkscape-font-specification:'Forte, Normal';text-align:start;writing-mode:lr-tb;text-anchor:start"
             d="m 191.04435,1034.1997 -0.73486,1.5381 q -1.0083,2.0679 -1.84571,3.3667 -0.8374,1.2988 -1.55517,1.8457 -0.71778,0.5298 -1.521,0.5298 -0.82031,0 -1.43555,-0.7007 -1.19628,-1.4014 -1.99951,-5.3149 -0.63232,-3.1617 -0.63232,-5.4517 0,-1.7944 0.41015,-2.854 0.41016,-1.0767 1.28174,-1.5723 0.87159,-0.5127 2.27295,-0.5127 0.73487,0 1.05957,0.2564 0.3418,0.2563 0.46143,1.0254 0.11963,0.769 0.11963,2.3242 0,2.8369 0.27343,5.3491 0.0342,0.1367 0.1709,1.3672 h 0.0854 q 0.11963,-0.2564 0.18799,-0.4102 0.0684,-0.1538 0.13672,-0.3076 0.0684,-0.1538 0.11963,-0.2734 0.0684,-0.1367 0.1709,-0.376 0.90576,-2.0508 1.89697,-4.7168 1.14502,-3.0591 1.57227,-3.7256 0.11962,-0.1538 0.3247,-0.3418 0.82031,-0.5981 2.34131,-0.5981 0.80322,0 1.19629,0.3076 0.39307,0.2905 0.52978,0.9912 0.15381,0.7007 0.18799,2.3071 0,1.2818 0.29053,3.5889 0.30762,2.29 0.6665,4.0845 0.11963,0.6152 0.5127,2.3413 h 0.0854 q 0.37598,-1.1279 0.51269,-1.7603 0.49561,-2.1704 0.49561,-6.2548 v -0.7691 q 0,-1.2134 0.22217,-1.9311 0.22217,-0.7349 0.78613,-1.333 0.59815,-0.5982 1.38428,-0.9742 0.78613,-0.393 1.38428,-0.393 0.70068,0 0.99121,0.5639 0.30761,0.5469 0.30761,1.7945 0,2.8027 -1.16211,6.9897 -1.0083,3.5718 -2.64892,6.5796 -0.52979,0.9399 -1.02539,1.5381 -0.49561,0.5981 -1.02539,0.8374 -0.52979,0.2563 -1.21338,0.2563 -2.42676,0 -3.98194,-3.1103 -0.46142,-0.957 -0.82031,-2.1704 -0.35888,-1.2134 -0.61523,-2.8028 -0.0855,-0.2734 -0.13672,-1.1279 h -0.0854 z" />
          <path
             inkscape:connector-curvature="0"
             id="path4292"
             style="font-style:normal;font-variant:normal;font-weight:normal;font-stretch:normal;font-size:35px;line-height:125%;font-family:Forte;-inkscape-font-specification:'Forte, Normal';text-align:start;writing-mode:lr-tb;text-anchor:start"
             d="m 226.42033,1038.1304 q -1.70899,1.6235 -3.1958,2.3755 -1.46973,0.7348 -2.97364,0.7348 -1.79443,0 -3.07617,-0.8545 -1.28174,-0.8545 -1.96533,-2.4609 -0.66651,-1.6065 -0.66651,-3.794 0,-2.7172 1.41846,-5.6054 1.43555,-2.9053 3.84522,-5.3662 2.40966,-2.461 5.24658,-3.9307 2.83691,-1.4697 5.52002,-1.4697 4.30664,0 4.30664,3.7768 0,1.4698 -0.80322,2.854 -0.78614,1.3843 -2.10205,2.2217 -1.31592,0.8374 -2.78565,0.8374 -0.59814,0 -0.59814,-0.4272 0,-0.1197 0.20507,-0.5811 0.46143,-0.9057 0.70069,-1.9653 0.27344,-1.5039 0.27344,-2.3071 0,-1.4356 -0.3418,-1.4356 -0.80322,0 -2.25586,1.145 -1.43555,1.145 -2.3584,2.4951 -0.8374,1.1792 -1.55517,2.8028 -0.70069,1.6235 -1.11084,3.2812 -0.39307,1.6577 -0.39307,3.042 0,1.3159 0.56396,2.1704 0.56397,0.8374 1.46973,0.8374 1.55518,0 3.50342,-3.9477 0.61523,-1.0938 0.82031,-1.3843 0.22217,-0.3076 0.61524,-0.5469 1.05957,-0.6665 2.66601,-1.1792 1.62354,-0.5298 2.51221,-0.5298 1.04248,0 1.04248,1.0425 0,0.086 -0.10254,0.752 -1.21338,5.0073 -2.93945,9.1601 -1.72608,4.1529 -3.34961,5.9131 -0.75196,0.8032 -2.22168,1.333 -1.46973,0.5298 -3.00782,0.5298 -1.26464,0 -2.58056,-0.4272 -1.29883,-0.4273 -2.13623,-1.0938 -0.8374,-0.6665 -0.8374,-1.3159 0,-0.4272 0.47851,-0.9741 0.47852,-0.5469 1.29883,-1.0938 1.29883,-0.8716 1.72607,-0.8716 0.44434,0 1.24756,0.9742 0.97412,1.1279 2.06787,1.8628 0.59815,-1.4014 1.14502,-3.4351 0.56397,-2.0337 0.6836,-3.1445 z" />
          <path
             inkscape:connector-curvature="0"
             id="path4294"
             style="font-style:normal;font-variant:normal;font-weight:normal;font-stretch:normal;font-size:35px;line-height:125%;font-family:Forte;-inkscape-font-specification:'Forte, Normal';text-align:start;writing-mode:lr-tb;text-anchor:start"
             d="m 242.05753,1036.0625 -0.0684,0.3418 q 0,0.2905 -0.0684,0.8374 -0.0683,0.8374 -0.18798,1.3672 -0.11963,0.5298 -0.35889,0.8887 -0.23926,0.3418 -0.64941,0.7348 -1.24756,1.145 -2.51221,1.145 -1.02539,0 -1.521,-0.7519 -0.47851,-0.752 -0.47851,-2.4268 0,-1.333 0.29052,-3.2812 0.30762,-1.9654 0.73487,-3.5205 l 0.13672,-0.4444 q 0,-0.1025 0.10254,-0.4272 0.63232,-2.3242 1.1621,-3.4351 0.52979,-1.1279 1.28174,-1.8115 0.66651,-0.5298 1.50391,-0.5298 1.21338,0 1.46973,1.4698 0.23925,-0.2051 0.46142,-0.4786 0.49561,-0.5981 0.76904,-0.7861 0.27344,-0.2051 0.63233,-0.2051 1.46973,0 1.46973,2.9053 0,1.5894 -0.3418,3.0762 -0.3418,1.4868 -0.87158,2.4267 -0.5127,0.94 -1.02539,0.94 -0.56397,0 -0.56397,-2.1363 0,-1.1279 -0.13672,-1.7602 -0.11963,-0.6494 -0.39306,-1.0083 -0.5127,0.957 -0.66651,4.375 -0.11963,1.9824 -0.1709,2.4951 z" />
          <path
             inkscape:connector-curvature="0"
             id="path4296"
             style="font-style:normal;font-variant:normal;font-weight:normal;font-stretch:normal;font-size:35px;line-height:125%;font-family:Forte;-inkscape-font-specification:'Forte, Normal';text-align:start;writing-mode:lr-tb;text-anchor:start"
             d="m 253.50773,1035.96 q 0.78613,-0.5298 1.19629,-1.0596 0.90576,-1.1108 1.40136,-2.5464 0.39307,-0.9399 0.61524,-2.102 0.22217,-1.1622 0.22217,-2.1705 0,-0.9399 -0.39307,-0.9399 -0.54687,0 -1.6748,2.4097 -0.66651,1.4526 -1.09375,2.9052 -0.41016,1.4356 -0.41016,2.4781 0,0.3589 0.13672,1.0254 z m 0.0342,0.5468 q 0.18799,1.0254 1.33301,1.0254 1.28173,0 3.33252,-1.5039 1.19628,-0.8716 1.60644,-0.8716 0.5127,0 0.95703,0.2735 0.44434,0.2734 0.44434,0.5639 0,0.3077 -0.49561,0.8033 -0.90576,0.9057 -2.08496,1.7773 -1.1792,0.8545 -2.27295,1.4356 -1.09375,0.5639 -2.1875,0.9057 -1.09375,0.3247 -1.94824,0.3247 -2.13623,0 -3.41797,-1.2134 -1.28174,-1.2304 -1.28174,-3.2641 0,-1.5552 0.66651,-3.5034 0.68359,-1.9654 1.82861,-3.6744 1.3501,-1.9995 3.31543,-3.3325 2.42676,-1.6064 4.64844,-1.6064 1.60644,0 2.5122,1.0254 0.92286,1.0083 0.92286,2.7856 0,1.3843 -0.73487,2.8882 -0.71777,1.5039 -2.13623,2.8882 -1.16211,1.1621 -2.29004,1.8115 -1.11084,0.6494 -1.94824,0.6494 -0.37598,0 -0.76904,-0.188 z" />
          <path
             inkscape:connector-curvature="0"
             id="path4298"
             style="font-style:normal;font-variant:normal;font-weight:normal;font-stretch:normal;font-size:35px;line-height:125%;font-family:Forte;-inkscape-font-specification:'Forte, Normal';text-align:start;writing-mode:lr-tb;text-anchor:start"
             d="m 268.47843,1035.96 q 0.78613,-0.5298 1.19629,-1.0596 0.90576,-1.1108 1.40137,-2.5464 0.39306,-0.9399 0.61523,-2.102 0.22217,-1.1622 0.22217,-2.1705 0,-0.9399 -0.39307,-0.9399 -0.54687,0 -1.6748,2.4097 -0.6665,1.4526 -1.09375,2.9052 -0.41016,1.4356 -0.41016,2.4781 0,0.3589 0.13672,1.0254 z m 0.0342,0.5468 q 0.18799,1.0254 1.33301,1.0254 1.28174,0 3.33252,-1.5039 1.19629,-0.8716 1.60644,-0.8716 0.5127,0 0.95704,0.2735 0.44433,0.2734 0.44433,0.5639 0,0.3077 -0.4956,0.8033 -0.90577,0.9057 -2.08497,1.7773 -1.17919,0.8545 -2.27294,1.4356 -1.09375,0.5639 -2.1875,0.9057 -1.09375,0.3247 -1.94825,0.3247 -2.13623,0 -3.41797,-1.2134 -1.28173,-1.2304 -1.28173,-3.2641 0,-1.5552 0.6665,-3.5034 0.68359,-1.9654 1.82861,-3.6744 1.3501,-1.9995 3.31543,-3.3325 2.42676,-1.6064 4.64844,-1.6064 1.60645,0 2.51221,1.0254 0.92285,1.0083 0.92285,2.7856 0,1.3843 -0.73486,2.8882 -0.71778,1.5039 -2.13623,2.8882 -1.16211,1.1621 -2.29004,1.8115 -1.11084,0.6494 -1.94825,0.6494 -0.37597,0 -0.76904,-0.188 z" />
          <path
             inkscape:connector-curvature="0"
             id="path4300"
             style="font-style:normal;font-variant:normal;font-weight:normal;font-stretch:normal;font-size:35px;line-height:125%;font-family:Forte;-inkscape-font-specification:'Forte, Normal';text-align:start;writing-mode:lr-tb;text-anchor:start"
             d="m 284.88468,1032.2515 1.02539,-1.1963 q 1.55518,-1.7261 2.46094,-2.5635 0.92285,-0.8545 1.64062,-1.2305 0.73487,-0.3759 1.48682,-0.3759 1.21338,0 1.70899,0.6494 0.4956,0.6494 0.4956,2.2558 0,0.6665 -0.13672,1.9654 -0.20508,1.726 -0.20508,3.247 0,1.709 0.1709,2.7686 0.11963,0.6494 0.35889,1.2988 0.1709,0.6152 0.1709,0.8374 0,0.2735 -0.20508,0.4273 -0.52979,0.4614 -1.40137,0.8032 -0.87158,0.3418 -1.46972,0.3418 -0.97413,0 -1.77735,-0.6665 -0.78613,-0.6665 -1.23047,-1.8457 -0.42724,-1.1792 -0.42724,-2.666 0,-0.9913 0.20508,-2.3414 l -0.0684,-0.068 q -0.73487,0.8203 -1.19629,1.2988 -0.44434,0.4785 -0.83741,0.9058 -1.91406,2.1875 -3.24707,3.9477 -0.51269,0.6836 -0.93994,1.1963 -0.63232,0.6323 -1.43554,0.6323 -1.09375,0 -1.77735,-0.8203 -0.68359,-0.8203 -0.68359,-2.1191 0,-0.8032 0.18799,-1.9653 0.18799,-1.1621 0.4956,-2.4781 0.32471,-1.333 0.75196,-2.7343 0.44433,-1.4014 0.95703,-2.6661 0.78613,-2.102 1.91406,-3.2812 0.76904,-0.769 1.86279,-0.769 1.77735,0 1.77735,2.3071 0,1.6919 -0.70069,4.8364 l 0.0684,0.068 z" />
          <path
             inkscape:connector-curvature="0"
             id="path4302"
             style="font-style:normal;font-variant:normal;font-weight:normal;font-stretch:normal;font-size:35px;line-height:125%;font-family:Forte;-inkscape-font-specification:'Forte, Normal';text-align:start;writing-mode:lr-tb;text-anchor:start"
             d="m 309.7504,1024.373 0.39307,-0.9912 q -1.91406,-0.051 -2.6831,-0.3759 -0.75196,-0.3418 -0.75196,-1.1622 0,-0.6665 0.52979,-1.3159 0.59814,-0.8203 1.28174,-1.4868 0.68359,-0.6836 1.26464,-0.9741 0.49561,-0.2051 1.36719,-0.2051 2.11914,0 4.80225,0.2393 0.61523,0.034 1.02539,0.051 0.41015,0.017 0.88867,0.051 1.12793,0 1.43555,0.051 0.30761,0.034 0.73486,0.2051 0.29053,0.1025 0.49561,0.3076 0.42724,0.4443 0.42724,1.4013 0,1.7774 -1.23047,2.273 -0.71777,0.3076 -1.29883,0.4102 -0.58105,0.085 -2.10205,0.2221 l -1.8457,6.1182 q 1.31592,0 2.13623,-0.068 0.5127,-0.034 1.57227,-0.034 1.24756,0 1.76025,0.2735 0.5127,0.2563 0.5127,0.9228 0,0.5127 -0.49561,1.4868 -0.4956,0.9742 -1.07666,1.5552 -0.27344,0.2735 -0.76904,0.376 -0.49561,0.086 -1.6919,0.086 h -0.23925 -0.42725 q -1.14502,0 -2.61475,0.1025 -0.76904,2.5976 -1.41845,3.9819 -0.64942,1.3672 -1.58936,2.3242 -0.64941,0.6665 -1.38428,1.0254 -0.71777,0.3589 -1.35009,0.3589 -1.04248,0 -1.81153,-0.5981 -0.75195,-0.5982 -0.75195,-1.3843 0,-0.957 1.62353,-5.9814 1.62354,-5.0245 3.28125,-9.2457 z" />
          <path
             inkscape:connector-curvature="0"
             id="path4304"
             style="font-style:normal;font-variant:normal;font-weight:normal;font-stretch:normal;font-size:35px;line-height:125%;font-family:Forte;-inkscape-font-specification:'Forte, Normal';text-align:start;writing-mode:lr-tb;text-anchor:start"
             d="m 333.55656,1032.3882 -0.32471,0.1025 q -1.23047,0.3418 -1.77734,0.3418 -0.66651,0 -0.66651,-0.3418 0,-0.1196 0.27344,-0.6323 0.95703,-1.4526 0.95703,-2.7344 0,-0.7348 -0.25635,-1.333 -0.25634,-0.6152 -0.56396,-0.6152 -0.27344,0 -0.8374,0.581 -1.58936,1.7261 -2.5293,3.5376 -0.92285,1.8116 -0.92285,3.23 0,0.94 0.37597,1.5552 0.39307,0.6152 0.97413,0.6152 0.4956,0 1.8457,-1.0595 1.36719,-1.0596 3.05908,-2.8028 l 0.46143,-0.376 -0.0684,-0.068 z m -1.02539,3.9136 v 0.068 l -0.0684,-0.068 q -1.58936,1.8628 -2.92237,3.059 -1.31591,1.1792 -2.44384,1.7774 -1.11084,0.5981 -2.05079,0.5981 -1.91406,0 -3.16162,-1.2817 -1.24756,-1.2817 -1.24756,-3.2471 0,-1.2134 0.61524,-2.8711 0.61523,-1.6577 1.69189,-3.247 1.79444,-2.5977 4.51172,-4.4092 2.80274,-1.8628 5.40039,-1.8628 2.1875,0 3.58887,0.9057 1.41846,0.8887 1.41846,2.2559 0,1.0083 -0.70069,2.1362 0.92286,0 1.16211,0.2051 0.23926,0.188 0.23926,0.9058 0,-0.068 -0.0854,0.7007 -0.10254,1.6919 -0.10254,3.1616 0,0.769 0.0171,1.1621 0.0171,0.3931 0.0684,0.9058 0.0513,0.5126 0.10254,0.8203 0.13672,0.8032 0.44434,1.5893 -1.02539,1.0083 -1.96534,1.4868 -0.93994,0.4615 -1.91406,0.4615 -2.63183,0 -2.63183,-4.4092 0,-0.5127 0.0342,-0.8032 z" />
          <path
             inkscape:connector-curvature="0"
             id="path4306"
             style="font-style:normal;font-variant:normal;font-weight:normal;font-stretch:normal;font-size:35px;line-height:125%;font-family:Forte;-inkscape-font-specification:'Forte, Normal';text-align:start;writing-mode:lr-tb;text-anchor:start"
             d="m 345.96378,1036.0625 -0.0684,0.3418 q 0,0.2905 -0.0684,0.8374 -0.0684,0.8374 -0.18798,1.3672 -0.11963,0.5298 -0.35889,0.8887 -0.23926,0.3418 -0.64941,0.7348 -1.24756,1.145 -2.51221,1.145 -1.02539,0 -1.521,-0.7519 -0.47851,-0.752 -0.47851,-2.4268 0,-1.333 0.29052,-3.2812 0.30762,-1.9654 0.73487,-3.5205 l 0.13672,-0.4444 q 0,-0.1025 0.10254,-0.4272 0.63232,-2.3242 1.1621,-3.4351 0.52979,-1.1279 1.28174,-1.8115 0.66651,-0.5298 1.50391,-0.5298 1.21338,0 1.46973,1.4698 0.23925,-0.2051 0.46142,-0.4786 0.49561,-0.5981 0.76904,-0.7861 0.27344,-0.2051 0.63233,-0.2051 1.46973,0 1.46973,2.9053 0,1.5894 -0.3418,3.0762 -0.3418,1.4868 -0.87158,2.4267 -0.5127,0.94 -1.02539,0.94 -0.56397,0 -0.56397,-2.1363 0,-1.1279 -0.13672,-1.7602 -0.11963,-0.6494 -0.39306,-1.0083 -0.5127,0.957 -0.66651,4.375 -0.11963,1.9824 -0.1709,2.4951 z" />
          <path
             inkscape:connector-curvature="0"
             id="path4308"
             style="font-style:normal;font-variant:normal;font-weight:normal;font-stretch:normal;font-size:35px;line-height:125%;font-family:Forte;-inkscape-font-specification:'Forte, Normal';text-align:start;writing-mode:lr-tb;text-anchor:start"
             d="m 370.163,1035.0884 -4.66553,4.7851 q -0.90576,0.9058 -1.46972,1.2476 -0.54688,0.3247 -1.21338,0.3247 -1.04248,0 -1.76025,-0.769 -0.70069,-0.7862 -0.70069,-1.9141 0,-0.7007 0.20508,-1.521 0.22217,-0.8374 0.85449,-2.478 0.11963,-0.3418 0.22217,-0.5811 0.11963,-0.2563 0.18799,-0.4272 l -0.0684,-0.068 q -1.65772,1.7432 -3.24707,3.6743 -1.33301,1.5894 -2.11914,2.3755 -0.78613,0.7861 -1.41846,1.1792 -0.63232,0.3931 -1.12793,0.3931 -1.11084,0 -1.76025,-0.8716 -0.64942,-0.8716 -0.64942,-2.3755 0,-1.897 1.64063,-6.1352 1.46972,-3.7598 2.27295,-5.0415 1.1792,-1.7774 2.70019,-1.7774 0.92285,0 1.521,0.4443 0.61523,0.4273 0.61523,1.128 0,1.2817 -0.97412,3.9136 -0.37597,0.9741 -0.76904,2.2045 l 0.0684,0.068 q 0.63232,-0.7007 2.03369,-2.4097 2.40967,-2.9736 3.64014,-4.0503 1.58935,-1.4697 2.90527,-1.4697 0.58105,0 1.11084,0.3931 0.52979,0.393 0.8374,1.0595 0.32471,0.6495 0.32471,1.3672 0,0.7349 -1.05957,3.7598 -0.22217,0.6323 -0.3418,0.9912 -0.11963,0.3589 -0.22217,0.6152 l 0.0854,0.068 q 0.23926,-0.2393 0.42725,-0.4272 0.18799,-0.188 0.41016,-0.3931 0.23925,-0.2222 0.44433,-0.4102 0.46143,-0.4443 2.32422,-2.3413 1.23047,-1.3672 1.93115,-1.8628 0.70069,-0.5127 1.3501,-0.5127 1.05957,0 1.60645,0.7349 0.56396,0.7178 0.56396,2.1362 0,0.8716 -0.27344,2.7515 -0.23925,2.1191 -0.34179,3.3325 -0.0854,1.1963 -0.0854,1.6748 0,0.3589 0.0342,0.9229 0.0513,0.5469 0.15381,1.1792 0.10253,0.6323 0.27343,1.4013 0.20508,0.94 0.27344,1.4698 -0.13672,0.6152 -0.90576,1.0424 -0.75195,0.4273 -1.64063,0.4273 -1.40136,0 -2.63183,-1.2647 -0.54688,-0.581 -0.85449,-1.1792 -0.29053,-0.581 -0.42725,-1.3842 -0.11963,-0.8203 -0.11963,-2.1534 0,-0.8715 0.20508,-3.6059 l -0.0684,-0.068 -0.30762,0.4273 z" />
        </g>
      </g>
      <g
         id="text3351"
         style="font-style:normal;font-variant:normal;font-weight:normal;font-stretch:normal;font-size:17.86190605px;line-height:125%;font-family:sans-serif;-inkscape-font-specification:'sans-serif, Normal';text-align:start;letter-spacing:0px;word-spacing:0.79519421px;writing-mode:lr-tb;text-anchor:start;fill:#71348f;fill-opacity:1;stroke:none;stroke-width:1px;stroke-linecap:butt;stroke-linejoin:miter;stroke-opacity:1"
         transform="matrix(1.3586265,0,0,0.73603746,-11.087311,-972.65142)">
        <path
           inkscape:connector-curvature="0"
           id="path4908"
           style="font-style:normal;font-variant:normal;font-weight:normal;font-stretch:normal;font-size:17.86190605px;line-height:125%;font-family:sans-serif;-inkscape-font-specification:'sans-serif, Normal';text-align:start;word-spacing:0.79519421px;writing-mode:lr-tb;text-anchor:start;fill:#71348f;fill-opacity:1"
           d="M 162.75688,1395.8168 H 161.03 v -6.3581 h -6.48018 v 6.3581 h -1.72688 v -12.9865 h 1.72688 v 5.0934 H 161.03 v -5.0934 h 1.72688 z" />
        <path
           inkscape:connector-curvature="0"
           id="path4910"
           style="font-style:normal;font-variant:normal;font-weight:normal;font-stretch:normal;font-size:17.86190605px;line-height:125%;font-family:sans-serif;-inkscape-font-specification:'sans-serif, Normal';text-align:start;word-spacing:0.79519421px;writing-mode:lr-tb;text-anchor:start;fill:#71348f;fill-opacity:1"
           d="m 175.93527,1384.3217 q 0.79367,0.8721 1.21231,2.1368 0.42736,1.2646 0.42736,2.8694 0,1.6048 -0.43608,2.8781 -0.42736,1.2647 -1.20359,2.1107 -0.80239,0.8808 -1.90132,1.3256 -1.0902,0.4448 -2.49438,0.4448 -1.3693,0 -2.49439,-0.4535 -1.11637,-0.4535 -1.90132,-1.3169 -0.78494,-0.8635 -1.2123,-2.1194 -0.41864,-1.2559 -0.41864,-2.8694 0,-1.5874 0.41864,-2.8433 0.41863,-1.2646 1.22102,-2.1629 0.76751,-0.8548 1.90132,-1.3083 1.14253,-0.4535 2.48567,-0.4535 1.39546,0 2.50311,0.4622 1.11636,0.4536 1.89259,1.2996 z m -0.15699,5.0062 q 0,-2.5293 -1.13381,-3.8986 -1.13381,-1.378 -3.09618,-1.378 -1.97981,0 -3.11363,1.378 -1.12509,1.3693 -1.12509,3.8986 0,2.5554 1.15126,3.916 1.15126,1.3518 3.08746,1.3518 1.9362,0 3.07873,-1.3518 1.15126,-1.3606 1.15126,-3.916 z" />
        <path
           inkscape:connector-curvature="0"
           id="path4912"
           style="font-style:normal;font-variant:normal;font-weight:normal;font-stretch:normal;font-size:17.86190605px;line-height:125%;font-family:sans-serif;-inkscape-font-specification:'sans-serif, Normal';text-align:start;word-spacing:0.79519421px;writing-mode:lr-tb;text-anchor:start;fill:#71348f;fill-opacity:1"
           d="m 188.52931,1395.8168 h -8.21578 v -12.9865 h 1.72688 v 11.4515 h 6.4889 z" />
        <path
           inkscape:connector-curvature="0"
           id="path4914"
           style="font-style:normal;font-variant:normal;font-weight:normal;font-stretch:normal;font-size:17.86190605px;line-height:125%;font-family:sans-serif;-inkscape-font-specification:'sans-serif, Normal';text-align:start;word-spacing:0.79519421px;writing-mode:lr-tb;text-anchor:start;fill:#71348f;fill-opacity:1"
           d="m 194.83505,1395.8168 h -5.12832 v -1.3257 h 1.70072 v -10.3352 h -1.70072 v -1.3256 h 5.12832 v 1.3256 h -1.70072 v 10.3352 h 1.70072 z" />
        <path
           inkscape:connector-curvature="0"
           id="path4916"
           style="font-style:normal;font-variant:normal;font-weight:normal;font-stretch:normal;font-size:17.86190605px;line-height:125%;font-family:sans-serif;-inkscape-font-specification:'sans-serif, Normal';text-align:start;word-spacing:0.79519421px;writing-mode:lr-tb;text-anchor:start;fill:#71348f;fill-opacity:1"
           d="m 208.7635,1389.3366 q 0,1.7705 -0.77623,3.2096 -0.7675,1.439 -2.04958,2.2327 -0.88961,0.5495 -1.98853,0.7937 -1.09021,0.2442 -2.87814,0.2442 h -3.27934 v -12.9865 h 3.24445 q 1.90132,0 3.01769,0.2791 1.12509,0.2703 1.90131,0.75 1.32569,0.8286 2.06703,2.2066 0.74134,1.378 0.74134,3.2706 z m -1.80538,-0.026 q 0,-1.5263 -0.53202,-2.5728 -0.53202,-1.0466 -1.58734,-1.6484 -0.7675,-0.4361 -1.63094,-0.6018 -0.86344,-0.1745 -2.06703,-0.1745 h -1.62222 v 10.0212 h 1.62222 q 1.24719,0 2.17169,-0.1832 0.93321,-0.1831 1.70944,-0.6802 0.9681,-0.6193 1.44779,-1.631 0.48841,-1.0117 0.48841,-2.5293 z" />
        <path
           inkscape:connector-curvature="0"
           id="path4918"
           style="font-style:normal;font-variant:normal;font-weight:normal;font-stretch:normal;font-size:17.86190605px;line-height:125%;font-family:sans-serif;-inkscape-font-specification:'sans-serif, Normal';text-align:start;word-spacing:0.79519421px;writing-mode:lr-tb;text-anchor:start;fill:#71348f;fill-opacity:1"
           d="m 221.81106,1395.8168 h -1.84026 l -1.27336,-3.6195 h -5.61673 l -1.27336,3.6195 h -1.75305 l 4.72713,-12.9865 h 2.30251 z m -3.64564,-5.1022 -2.27635,-6.3755 -2.28507,6.3755 z" />
        <path
           inkscape:connector-curvature="0"
           id="path4920"
           style="font-style:normal;font-variant:normal;font-weight:normal;font-stretch:normal;font-size:17.86190605px;line-height:125%;font-family:sans-serif;-inkscape-font-specification:'sans-serif, Normal';text-align:start;word-spacing:0.79519421px;writing-mode:lr-tb;text-anchor:start;fill:#71348f;fill-opacity:1"
           d="m 232.27702,1382.8303 -4.57013,7.2912 v 5.6953 H 225.98 v -5.5121 l -4.58757,-7.4744 h 1.91003 l 3.54971,5.8086 3.58459,-5.8086 z" />
        <path
           inkscape:connector-curvature="0"
           id="path4922"
           style="font-style:normal;font-variant:normal;font-weight:normal;font-stretch:normal;font-size:17.86190605px;line-height:125%;font-family:sans-serif;-inkscape-font-specification:'sans-serif, Normal';text-align:start;word-spacing:0.79519421px;writing-mode:lr-tb;text-anchor:start;fill:#71348f;fill-opacity:1"
           d="m 251.17833,1394.8748 q -0.47969,0.2094 -0.87216,0.3925 -0.38375,0.1832 -1.01171,0.3838 -0.53202,0.1657 -1.15998,0.2791 -0.61923,0.1221 -1.36929,0.1221 -1.41291,0 -2.57288,-0.3925 -1.15126,-0.4012 -2.00598,-1.2472 -0.83728,-0.8286 -1.30824,-2.1019 -0.47097,-1.2821 -0.47097,-2.9741 0,-1.6048 0.45352,-2.8694 0.45353,-1.2647 1.30825,-2.1368 0.82855,-0.846 1.99725,-1.2908 1.17742,-0.4448 2.60777,-0.4448 1.0466,0 2.08447,0.2529 1.0466,0.2529 2.31995,0.8896 v 2.0496 h -0.13082 q -1.07276,-0.8983 -2.12808,-1.3083 -1.05532,-0.4099 -2.2589,-0.4099 -0.98555,0 -1.77921,0.3227 -0.78495,0.314 -1.40419,0.9856 -0.60179,0.6541 -0.94193,1.6571 -0.33143,0.9943 -0.33143,2.3025 0,1.3693 0.36631,2.3548 0.37503,0.9856 0.95938,1.6048 0.61052,0.6454 1.42163,0.9594 0.81983,0.3053 1.72688,0.3053 1.2472,0 2.3374,-0.4274 1.0902,-0.4274 2.04086,-1.2821 h 0.1221 z" />
        <path
           inkscape:connector-curvature="0"
           id="path4924"
           style="font-style:normal;font-variant:normal;font-weight:normal;font-stretch:normal;font-size:17.86190605px;line-height:125%;font-family:sans-serif;-inkscape-font-specification:'sans-serif, Normal';text-align:start;word-spacing:0.79519421px;writing-mode:lr-tb;text-anchor:start;fill:#71348f;fill-opacity:1"
           d="m 263.43792,1384.3217 q 0.79367,0.8721 1.21231,2.1368 0.42736,1.2646 0.42736,2.8694 0,1.6048 -0.43608,2.8781 -0.42736,1.2647 -1.20359,2.1107 -0.80239,0.8808 -1.90132,1.3256 -1.0902,0.4448 -2.49438,0.4448 -1.3693,0 -2.49439,-0.4535 -1.11637,-0.4535 -1.90132,-1.3169 -0.78494,-0.8635 -1.2123,-2.1194 -0.41864,-1.2559 -0.41864,-2.8694 0,-1.5874 0.41864,-2.8433 0.41864,-1.2646 1.22103,-2.1629 0.7675,-0.8548 1.90131,-1.3083 1.14254,-0.4535 2.48567,-0.4535 1.39546,0 2.50311,0.4622 1.11637,0.4536 1.89259,1.2996 z m -0.15699,5.0062 q 0,-2.5293 -1.13381,-3.8986 -1.13381,-1.378 -3.09618,-1.378 -1.97981,0 -3.11362,1.378 -1.12509,1.3693 -1.12509,3.8986 0,2.5554 1.15125,3.916 1.15126,1.3518 3.08746,1.3518 1.9362,0 3.07874,-1.3518 1.15125,-1.3606 1.15125,-3.916 z" />
        <path
           inkscape:connector-curvature="0"
           id="path4926"
           style="font-style:normal;font-variant:normal;font-weight:normal;font-stretch:normal;font-size:17.86190605px;line-height:125%;font-family:sans-serif;-inkscape-font-specification:'sans-serif, Normal';text-align:start;word-spacing:0.79519421px;writing-mode:lr-tb;text-anchor:start;fill:#71348f;fill-opacity:1"
           d="m 276.65992,1384.3653 h -4.63991 v 11.4515 h -1.72688 v -11.4515 h -4.63991 v -1.535 h 11.0067 z" />
        <path
           inkscape:connector-curvature="0"
           id="path4928"
           style="font-style:normal;font-variant:normal;font-weight:normal;font-stretch:normal;font-size:17.86190605px;line-height:125%;font-family:sans-serif;-inkscape-font-specification:'sans-serif, Normal';text-align:start;word-spacing:0.79519421px;writing-mode:lr-tb;text-anchor:start;fill:#71348f;fill-opacity:1"
           d="m 287.091,1384.3653 h -4.63991 v 11.4515 h -1.72688 v -11.4515 h -4.63991 v -1.535 h 11.0067 z" />
        <path
           inkscape:connector-curvature="0"
           id="path4930"
           style="font-style:normal;font-variant:normal;font-weight:normal;font-stretch:normal;font-size:17.86190605px;line-height:125%;font-family:sans-serif;-inkscape-font-specification:'sans-serif, Normal';text-align:start;word-spacing:0.79519421px;writing-mode:lr-tb;text-anchor:start;fill:#71348f;fill-opacity:1"
           d="m 298.04537,1395.8168 h -1.84027 l -1.27335,-3.6195 h -5.61674 l -1.27336,3.6195 h -1.75304 l 4.72712,-12.9865 h 2.30251 z m -3.64564,-5.1022 -2.27635,-6.3755 -2.28507,6.3755 z" />
        <path
           inkscape:connector-curvature="0"
           id="path4932"
           style="font-style:normal;font-variant:normal;font-weight:normal;font-stretch:normal;font-size:17.86190605px;line-height:125%;font-family:sans-serif;-inkscape-font-specification:'sans-serif, Normal';text-align:start;word-spacing:0.79519421px;writing-mode:lr-tb;text-anchor:start;fill:#71348f;fill-opacity:1"
           d="m 310.84872,1394.8574 q -1.06404,0.4884 -2.32868,0.8547 -1.25591,0.3576 -2.43333,0.3576 -1.51757,0 -2.7822,-0.4186 -1.26464,-0.4187 -2.15425,-1.256 -0.89832,-0.846 -1.38674,-2.1106 -0.48841,-1.2733 -0.48841,-2.9741 0,-3.1136 1.8141,-4.9102 1.82282,-1.8054 4.9975,-1.8054 1.10765,0 2.2589,0.2703 1.15998,0.2617 2.49439,0.8984 v 2.0496 h -0.15699 q -0.27037,-0.2094 -0.78495,-0.5495 -0.51457,-0.3401 -1.01171,-0.5669 -0.60179,-0.2704 -1.36929,-0.4448 -0.75879,-0.1832 -1.72689,-0.1832 -2.1804,0 -3.45376,1.4042 -1.26464,1.3955 -1.26464,3.7852 0,2.5206 1.32569,3.9247 1.32569,1.3955 3.61075,1.3955 0.83728,0 1.66584,-0.1657 0.83727,-0.1657 1.46523,-0.4274 v -3.1834 h -3.47993 v -1.5175 h 5.18937 z" />
        <path
           inkscape:connector-curvature="0"
           id="path4934"
           style="font-style:normal;font-variant:normal;font-weight:normal;font-stretch:normal;font-size:17.86190605px;line-height:125%;font-family:sans-serif;-inkscape-font-specification:'sans-serif, Normal';text-align:start;word-spacing:0.79519421px;writing-mode:lr-tb;text-anchor:start;fill:#71348f;fill-opacity:1"
           d="m 322.42234,1395.8168 h -8.55593 v -12.9865 h 8.55593 v 1.535 h -6.82904 v 3.5584 h 6.82904 v 1.535 h -6.82904 v 4.8231 h 6.82904 z" />
        <path
           inkscape:connector-curvature="0"
           id="path4936"
           style="font-style:normal;font-variant:normal;font-weight:normal;font-stretch:normal;font-size:17.86190605px;line-height:125%;font-family:sans-serif;-inkscape-font-specification:'sans-serif, Normal';text-align:start;word-spacing:0.79519421px;writing-mode:lr-tb;text-anchor:start;fill:#71348f;fill-opacity:1"
           d="m 334.60646,1392.1101 q 0,0.7588 -0.35759,1.5001 -0.34886,0.7413 -0.98554,1.2559 -0.69773,0.5582 -1.63095,0.8722 -0.92449,0.314 -2.23274,0.314 -1.40418,0 -2.52927,-0.2617 -1.11637,-0.2616 -2.27635,-0.7762 v -2.163 h 0.12211 q 0.98554,0.8199 2.27634,1.2647 1.2908,0.4448 2.42462,0.4448 1.60478,0 2.49438,-0.6018 0.89833,-0.6018 0.89833,-1.6048 0,-0.8635 -0.42736,-1.2734 -0.41864,-0.4099 -1.28208,-0.6367 -0.65412,-0.1744 -1.42163,-0.2878 -0.75878,-0.1133 -1.6135,-0.2878 -1.72688,-0.3663 -2.56416,-1.2472 -0.82855,-0.8896 -0.82855,-2.3112 0,-1.631 1.37802,-2.6688 1.37801,-1.0466 3.49737,-1.0466 1.3693,0 2.51183,0.2616 1.14253,0.2617 2.02342,0.6454 v 2.0409 h -0.1221 q -0.74134,-0.628 -1.95365,-1.0379 -1.20358,-0.4186 -2.46822,-0.4186 -1.38674,0 -2.23274,0.5756 -0.83728,0.5756 -0.83728,1.4827 0,0.8111 0.41864,1.2733 0.41864,0.4623 1.47396,0.7065 0.55818,0.1221 1.58734,0.2965 1.02915,0.1745 1.74432,0.3576 1.44779,0.3838 2.18041,1.16 0.73262,0.7762 0.73262,2.1717 z" />
      </g>
    </g>
  </g>
</svg>
