<svg xmlns="http://www.w3.org/2000/svg" viewBox="0 0 438.16 51.85">
  <defs>
    <radialGradient id="a" gradientUnits="userSpaceOnUse" cy="588.49" cx="394.14" gradientTransform="matrix(.72403 -.60775 3.4671 4.2491 -1901.5 -1689)" r="54.53">
      <stop offset="0" stop-color="#ac00ff"/>
      <stop offset="1" stop-color="#d782ff"/>
    </radialGradient>
  </defs>
  <g>
    <text style="line-height:0%" x="164.65" y="925.08" font-weight="400" font-family="sans-serif" letter-spacing="0" word-spacing="0" transform="translate(-5.64 -996.92)">
      <tspan x="164.65" y="925.08" style="line-height:1.25" font-size="30"></tspan>
    </text>
    <g fill-rule="evenodd">
      <path d="M.01 13.1C.04 15.1 0 51.18 0 51.18l318.39.45C245.96 27.25-.02 11.08 0 13.1z" fill="#84c475"/>
      <path d="M438.41 26.67c.83 2.15-.33 25.18-.33 25.18-198.2-.52-226.77-.24-226.77-.24 52.29-15.94 226.27-27.08 227.1-24.94z" fill="#a6c475"/>
    </g>
  </g>
  <g>
    <g>
      <g>
        <g transform="matrix(.0482 0 0 .0352 403.18 4.54)">
          <path d="M317.79 426.82c61.07-82.47-191.12-367.04-71.48-407.27 92.85-17.68 323.81 213.67 348.68 294.99 18.92 72.49-144.55 177.46 20.43 80.64 65.56-35.34 164.38 302.76 68.61 354.67-75.5 45.52-156.91-102.47-230.66-120.62" fill="#f175ff" fill-rule="evenodd" stroke="#000" stroke-width=".95"/>
          <path d="M338.58 450.52c57.04-66.83-147.38-397.89-89.81-412.87 69.06-13 321 212.66 330.78 274.5C575 412.73 427.08 517.02 596.9 430.58c79.9-42.37 143.23 253.8 72.05 292.29-56.1 33.77-158.68-106.62-213.61-120.28" fill="#90a" fill-rule="evenodd" stroke="#000" stroke-width=".7"/>
          <path d="M353.7 468.1c57.58-58.92-141.54-402.61-89.09-412.86 48.78-17.04 314.05 222.85 298.48 266.04-25.46 102.59-147.1 200.2 23.69 136.43 64.33-18.13 130.11 228.65 73.85 246.61-39.74 22.17-151.61-119.03-208.28-109.12" fill="#6a00ff" fill-rule="evenodd" stroke="#000" stroke-width=".54"/>
          <ellipse ry="31.31" rx="29.29" cy="416.98" cx="180.82" transform="matrix(.72403 -.60775 .59921 .73435 241.86 430.97)" fill="#00b7ff"/>
          <ellipse ry="31.31" rx="29.29" cy="416.98" cx="180.82" transform="matrix(.72403 -.60775 .59921 .73435 -48.7 -62.57)" fill="#00b7ff"/>
          <path transform="matrix(-.06943 1.2956 -1.015 -.47367 186.35 747.77)" d="M-336.48 176.45c-46.6-55.1-9.8-146.58 25.4-196" fill="none" stroke="#000"/>
          <path transform="matrix(-.31151 1.2585 -.90745 -.66112 118.63 742.13)" d="M-336.48 176.45c-46.6-55.1-9.8-146.58 25.4-196" fill="none" stroke="#000"/>
          <ellipse ry="8.74" rx="10.63" cy="416.98" cx="180.82" transform="matrix(.72403 -.60775 .59921 .73435 -350.06 34.62)" fill="#00b7ff"/>
          <ellipse ry="8.74" rx="10.63" cy="416.98" cx="180.82" transform="matrix(.72403 -.60775 .59921 .73435 -317.92 6.05)" fill="#00b7ff"/>
          <path d="M325.88 411.17c-75.45-130-187.88-40.06-75.32 60.99 286.38 328.24 333.22 272.01 75.32-60.99z" fill="url(#a)" fill-rule="evenodd"/>
        </g>
      </g>
      <g color="#000" fill-rule="evenodd">
        <path d="M302.27 51.54l-.61-.55a35.18 35.18 0 0 0 3.7-10.75 39.3 39.3 0 0 0-.61-16.25 32.2 32.2 0 0 0-7.03-13.56c3.3 3.5 5.85 8.2 7.29 13.44a39.92 39.92 0 0 1 .88 16.53 36.54 36.54 0 0 1-3.62 11.14z" fill="green"/>
        <path d="M302.54 51.72l-.7-.34c1.9-6.5 5.13-12.3 9.25-16.67a27.9 27.9 0 0 1 12.99-7.92 23.4 23.4 0 0 1 14.27.62 23.28 23.28 0 0 0-14.22-.31 27.87 27.87 0 0 0-12.73 8.1 40.76 40.76 0 0 0-8.86 16.52z" fill="green"/>
        <path d="M302.23 51.65l-.62-.54a48.24 48.24 0 0 0 5.22-20.31 50.06 50.06 0 0 0-3.71-20.98A40.34 40.34 0 0 0 297.3 0a39.96 39.96 0 0 1 5.96 9.71 50.31 50.31 0 0 1 4.02 21.1 49.51 49.51 0 0 1-5.05 20.84z" fill="#006400"/>
        <path d="M302.4 51.78l-.6-.57a85.29 85.29 0 0 1 13.38-17.63 68.75 68.75 0 0 1 16.44-12.33 35.58 35.58 0 0 1 6.63-2.8c1.73-.5 3.49-.8 5.25-.9-1.76.13-3.52.46-5.23 1-2.26.7-4.44 1.74-6.58 2.92a69.2 69.2 0 0 0-16.23 12.59 85.53 85.53 0 0 0-13.06 17.73z" fill="green"/>
        <path d="M303.21 51.1l-.7-.31c.27-1 .66-1.94 1.15-2.78a11.25 11.25 0 0 1 3.02-3.32 21.43 21.43 0 0 1 3.55-2.06 66.12 66.12 0 0 1 25.55-6.65 66.45 66.45 0 0 0-25.35 7.3 21.22 21.22 0 0 0-3.44 2.1 10.03 10.03 0 0 0-3.77 5.73z" fill="#006400"/>
        <path d="M302.83 51.82l-.73-.2a96.97 96.97 0 0 0-.62-35.27 42.64 42.64 0 0 0-1.42-5.4 18 18 0 0 0-2.37-4.73 11.7 11.7 0 0 0-1.5-1.68c.55.49 1.06 1.04 1.53 1.65a17.88 17.88 0 0 1 2.45 4.68c.63 1.74 1.1 3.57 1.51 5.4a97.69 97.69 0 0 1 1.15 35.55z" fill="green"/>
        <path d="M302.72 50.9l-.72-.23a48.48 48.48 0 0 1 7.75-18.85c3.74-5.28 8.5-9.3 13.7-11.57a26.23 26.23 0 0 1 7-1.97 26.4 26.4 0 0 0-6.96 2.14c-5.14 2.38-9.8 6.49-13.41 11.79a48.1 48.1 0 0 0-7.36 18.69z" fill="#006400"/>
        <path d="M302.5 51.54l-.7-.33a23.2 23.2 0 0 0-.13-13.28 19.4 19.4 0 0 0-3.75-7.02 13.63 13.63 0 0 0-5.82-4.03 11.13 11.13 0 0 0-6.62-.25 11.2 11.2 0 0 1 6.66.04 13.6 13.6 0 0 1 6 3.92 19.6 19.6 0 0 1 3.98 7.1 24.5 24.5 0 0 1 .38 13.85z" fill="#006400"/>
        <path d="M302.6 51.85l-.64-.49a15.28 15.28 0 0 1 6.3-7.1c2.59-1.4 5.51-1.7 8.21-.85a13.2 13.2 0 0 1 6.83 5.44 12.79 12.79 0 0 0-6.88-5.13c-2.67-.73-5.5-.32-7.96 1.14a14.93 14.93 0 0 0-5.85 7z" fill="green"/>
        <path d="M328.24 18.58c.03.25.57 1 1.23.45.81-.68 2.03-1.3 2.04-1.3 0 0-1.23-.36-2.13-.13-.9.23-1.2.49-1.14.98z" fill="#006400"/>
        <path d="M336.44 26.48c-.07.23.2 1.3 1.2 1.41 1.25.13 2.94.66 2.93.67 0 0-1.24-1.35-2.38-1.92-1.14-.58-1.6-.62-1.75-.16zm-37.55-14.23c.17-.1.66-.8.2-1.21a7.6 7.6 0 0 1-1.15-1.41s-.14 1.2.12 1.92.48.9.83.7zm-.79-5.01c.1-.06.26-.34.32-.7.06-.36 0-.81-.33-1.19a15.2 15.2 0 0 1-1.11-1.43 1.74 1.74 0 0 1-.2-1.27l-.1.24a2.68 2.68 0 0 0-.2 1.35c.01.24.07.48.12.7a7.12 7.12 0 0 0 .95 2.19c.18.2.35.23.55.1zm24.74 40.68c-.15.16-.43 1.06.17 1.4.74.42 1.6 1.25 1.6 1.25s-.23-1.36-.71-2.09c-.5-.73-.77-.88-1.06-.56z" fill="green"/>
      </g>
      <g style="line-height:125%;-inkscape-font-specification:'HW Andy, Bold Semi-Condensed';text-align:start" font-weight="700" font-stretch="semi-condensed" font-size="39.64" font-family="HW Andy" letter-spacing="0" word-spacing="-1.98" fill="#7e3ca0">
        <g style="line-height:125%;-inkscape-font-specification:Forte;text-align:start" font-weight="400" font-stretch="normal" font-size="35" font-family="Forte" word-spacing="0">
          <path style="line-height:125%;-inkscape-font-specification:'Forte, Normal';text-align:start" d="M20.13 20.81l.34-.77q4.04-9.1 5.85-11.84.29-.37.5-.58.2-.22.46-.4.27-.16.7-.33 1.23-.53 3.17-.53 1.01 0 1.27.17.27.17.27.77 0 .46-.03.99-.14 3.07-.14 4.37 0 3.28.45 6.22.29 1.64.85 3.34.6 1.5 1.15 2.3.65.9 1.09 1.3.55.55.55.84 0 .53-.9 1.43-1.53 1.47-3.05 1.47-2.14 0-3.88-1.82-.89-.9-1.42-1.97-.51-1.1-.77-2.68-.25-1.61-.34-4.07l-.14-3h-.07l-1.79 3.44-1.18 2.3-1.06 2.16q-1.95 4.04-2.54 4.87l-.14.16q-.1.12-.19.19-.29.27-.67.42-.35.14-.61.14-.72 0-1.59-.89-.85-.9-1.5-2.32-.67-1.5-1.1-3.06-.4-1.57-.73-3.71-.31-2.15-.55-5.25h-.07l-.77 1.7-.78 1.74-.62 1.37q-.7 1.55-1.47 3.14t-1.25 2.44q-.46.86-1.02 1.7-.26.39-.9 1.1-1.02.96-2.21 1.51-1.2.53-2.27.53-.41 0-.72-.2-.31-.21-.31-.53 0-.3.46-.77.26-.31 1.11-1.58l1-1.53q.92-1.37 2.78-4.9l.82-1.55q2.87-5.5 3.88-7.52 1-2.03 1-2.35 0-.36-.5-.8-.4-.33-.4-.57 0-.38 1-.7.98-.34 2.15-.34 2.34 0 3.33 1.04.61.65 1.14 2.56.53 1.9 1.06 5.52l.05.33.04.18q.02.09.02.23.1.48.1.63.36 2.2.54 2.85.2.64.55 1.11zm23.76 3.61q.78-.53 1.2-1.06.9-1.11 1.4-2.55.39-.94.61-2.1.22-1.16.22-2.17 0-.94-.4-.94-.54 0-1.67 2.41-.66 1.45-1.09 2.9-.41 1.44-.41 2.48 0 .36.14 1.03zm.03.55q.19 1.02 1.33 1.02 1.29 0 3.34-1.5 1.2-.87 1.6-.87.52 0 .96.27.44.27.44.56 0 .31-.5.8-.9.91-2.08 1.78-1.18.86-2.27 1.44-1.1.56-2.19.9-1.09.33-1.94.33-2.14 0-3.42-1.21-1.28-1.23-1.28-3.27 0-1.55.66-3.5.69-1.97 1.83-3.67 1.35-2 3.32-3.34 2.42-1.6 4.64-1.6 1.61 0 2.52 1.02.92 1.01.92 2.79 0 1.38-.74 2.89-.71 1.5-2.13 2.88-1.16 1.17-2.3 1.82-1.1.64-1.94.64-.38 0-.77-.18zm21.78-4.12l-.33.1q-1.23.34-1.78.34-.67 0-.67-.34 0-.12.28-.63.96-1.45.96-2.74 0-.73-.26-1.33-.26-.61-.57-.61-.27 0-.83.58-1.6 1.72-2.53 3.53-.92 1.82-.92 3.23 0 .94.37 1.56.4.61.98.61.5 0 1.84-1.06 1.37-1.05 3.06-2.8l.46-.37-.07-.07zm-1.03 3.91v.07l-.07-.07q-1.59 1.86-2.92 3.06-1.32 1.18-2.45 1.78-1.1.6-2.05.6-1.91 0-3.16-1.29-1.25-1.28-1.25-3.24 0-1.22.62-2.87.61-1.66 1.7-3.25 1.78-2.6 4.5-4.41 2.8-1.86 5.4-1.86 2.19 0 3.6.9 1.41.9 1.41 2.26 0 1-.7 2.13.92 0 1.16.21.24.19.24.9l-.08.7q-.1 1.7-.1 3.17l.01 1.16q.02.4.07.9.05.52.1.83.14.8.45 1.59-1.03 1-1.97 1.48-.94.46-1.91.46-2.64 0-2.64-4.4 0-.52.04-.8zm18.51-2.54v-1q-.88.77-1.3.77-.24 0-.24-.24 0-.1.1-.42.36-1.03.36-1.99 0-1.38-.6-2.87-.25-.77-.63-.77-.19 0-.3.17-.57.65-1.09 1.85-.5 1.18-.85 2.58-.32 1.39-.32 2.46 0 2.04 1.23 2.04.61 0 1.64-.72 1.04-.74 2-1.86zm.53-8.12l.17-.7q.53-2.34.95-3.78.43-1.45.88-2.44.46-1.01.9-1.46.72-.77 2.58-.77.82 0 1.22.09t.64.3q-.82 2.55-1.14 3.84-.3 1.26-.68 3.48-.58 3.63-.58 6.55 0 1.93.3 4.01.33 2.07 1.05 4.62-.91.63-1.75 1.07-.82.45-1.57.7-.74.26-1.3.26-.99 0-1.4-.97-.34-.8-.44-1.28-.1-.5-.36-2.72-2.3 2.4-4.4 3.78-2.08 1.36-3.33 1.36-1.43 0-2.36-1.16-.9-1.18-.9-3.02 0-1.66.7-3.68.72-2.03 1.96-3.93.82-1.25 1.68-2.1.87-.87 1.96-1.6 1.99-1.3 3.32-1.3.65 0 1.9.85zm19.41-1.56q2.55 0 2.55.6 0 .68-1.15.74-1.38.08-2.58.78-1.2.7-2.14 1.92-.92 1.2-1.45 2.73-.51 1.52-.51 3.21 0 1.87.87 3.01.87 1.13 2.27 1.13 1.3 0 2.28-1.33.97-1.34.97-3.11 0-1.46-.61-2.72-.6-1.28-1.76-2.16-.5-.39-.5-.56 0-.24.7-.73.79-.53 1.76-.9.97-.35 1.64-.35.77 0 1.45.4.7.4 1.23 1.15.53.74.8 1.71.3.96.3 2.05 0 1.81-.69 3.6-.68 1.75-1.79 2.85-1.44 1.38-3.47 2.27-2.02.87-3.84.87-1.78 0-3.54-.61-1.74-.62-2.77-1.63-1.37-1.37-1.37-3.88 0-1.98.98-3.96.97-1.99 2.63-3.6 1.67-1.62 3.67-2.54 2.02-.94 4.07-.94zm17.28 10.12l-.74 1.54q-1 2.07-1.84 3.36-.84 1.3-1.56 1.85-.72.53-1.52.53-.82 0-1.43-.7-1.2-1.4-2-5.32-.64-3.16-.64-5.45 0-1.8.41-2.85.41-1.08 1.29-1.57.87-.52 2.27-.52.73 0 1.06.26.34.26.46 1.03.12.76.12 2.32 0 2.84.27 5.35.04.14.17 1.37h.09l.19-.41.13-.31.12-.28.17-.37q.91-2.05 1.9-4.72 1.15-3.06 1.57-3.72.12-.16.33-.35.82-.6 2.34-.6.8 0 1.2.31.39.3.53 1 .15.7.18 2.3 0 1.28.3 3.6.3 2.28.66 4.08.12.61.51 2.34h.09q.37-1.13.51-1.76.5-2.17.5-6.26v-.77q0-1.21.22-1.93.22-.73.79-1.33.6-.6 1.38-.98.79-.39 1.38-.39.7 0 1 .57.3.54.3 1.79 0 2.8-1.16 6.99-1 3.57-2.65 6.58-.53.94-1.02 1.54-.5.6-1.03.83-.53.26-1.21.26-2.43 0-3.98-3.11-.47-.96-.82-2.17-.36-1.21-.62-2.8-.09-.28-.14-1.13h-.08zm35.37 3.93q-1.7 1.62-3.2 2.38-1.46.73-2.97.73-1.79 0-3.07-.85-1.28-.86-1.97-2.47-.66-1.6-.66-3.79 0-2.72 1.41-5.6 1.44-2.91 3.85-5.37t5.25-3.93q2.83-1.47 5.52-1.47 4.3 0 4.3 3.78 0 1.47-.8 2.85-.79 1.38-2.1 2.22-1.32.84-2.79.84-.6 0-.6-.43 0-.12.2-.58.47-.9.71-1.96.27-1.5.27-2.31 0-1.44-.34-1.44-.8 0-2.25 1.15-1.44 1.14-2.36 2.5-.84 1.17-1.56 2.8-.7 1.62-1.1 3.28-.4 1.65-.4 3.04 0 1.31.56 2.17.57.84 1.47.84 1.56 0 3.5-3.95.62-1.1.83-1.39.22-.3.61-.54 1.06-.67 2.67-1.18 1.62-.53 2.5-.53 1.05 0 1.05 1.04 0 .09-.1.75-1.21 5.01-2.94 9.16-1.73 4.16-3.35 5.92-.75.8-2.22 1.33-1.47.53-3 .53-1.27 0-2.59-.43-1.3-.43-2.14-1.1-.83-.66-.83-1.3 0-.44.48-.98.47-.55 1.3-1.1 1.3-.87 1.72-.87.44 0 1.25.98.97 1.12 2.07 1.86.6-1.4 1.14-3.44.56-2.03.68-3.14zm15.64-2.07l-.07.34q0 .3-.07.84-.06.84-.18 1.37-.12.53-.36.89-.24.34-.65.73-1.25 1.15-2.51 1.15-1.03 0-1.53-.75-.47-.76-.47-2.43 0-1.33.29-3.28.3-1.97.73-3.52l.14-.45q0-.1.1-.42.63-2.33 1.16-3.44.53-1.13 1.28-1.81.67-.53 1.5-.53 1.22 0 1.48 1.47.24-.2.46-.48.5-.6.77-.79.27-.2.63-.2 1.47 0 1.47 2.9 0 1.6-.34 3.08-.34 1.49-.87 2.43-.52.94-1.03.94-.56 0-.56-2.14 0-1.13-.14-1.76-.12-.65-.4-1-.5.95-.66 4.37-.12 1.98-.17 2.5zm11.45-.1q.79-.53 1.2-1.06.9-1.11 1.4-2.55.4-.94.61-2.1.23-1.16.23-2.17 0-.94-.4-.94-.54 0-1.67 2.41-.67 1.45-1.1 2.9-.4 1.44-.4 2.48 0 .36.13 1.03zm.04.55q.18 1.02 1.33 1.02 1.28 0 3.33-1.5 1.2-.87 1.6-.87.52 0 .96.27.45.27.45.56 0 .31-.5.8-.9.91-2.08 1.78-1.18.86-2.27 1.44-1.1.56-2.2.9-1.09.33-1.94.33-2.14 0-3.42-1.21-1.28-1.23-1.28-3.27 0-1.55.67-3.5.68-1.97 1.83-3.67 1.35-2 3.31-3.34 2.43-1.6 4.65-1.6 1.6 0 2.51 1.02.92 1.01.92 2.79 0 1.38-.73 2.89-.72 1.5-2.14 2.88-1.16 1.17-2.29 1.82-1.1.64-1.95.64-.37 0-.76-.18zm14.93-.55q.79-.53 1.2-1.06.9-1.11 1.4-2.55.4-.94.61-2.1.23-1.16.23-2.17 0-.94-.4-.94-.54 0-1.67 2.41-.67 1.45-1.1 2.9-.4 1.44-.4 2.48 0 .36.13 1.03zm.04.55q.18 1.02 1.33 1.02 1.28 0 3.33-1.5 1.2-.87 1.6-.87.52 0 .97.27.44.27.44.56 0 .31-.5.8-.9.91-2.08 1.78-1.18.86-2.27 1.44-1.1.56-2.2.9-1.09.33-1.94.33-2.14 0-3.42-1.21-1.28-1.23-1.28-3.27 0-1.55.67-3.5.68-1.97 1.83-3.67 1.35-2 3.31-3.34 2.43-1.6 4.65-1.6 1.6 0 2.51 1.02.92 1.01.92 2.79 0 1.38-.73 2.89-.72 1.5-2.14 2.88-1.16 1.17-2.29 1.82-1.1.64-1.94.64-.38 0-.77-.18zm16.37-4.26l1.02-1.2q1.56-1.72 2.46-2.56.93-.85 1.65-1.23.73-.38 1.48-.38 1.22 0 1.71.65.5.65.5 2.26 0 .67-.14 1.97-.2 1.72-.2 3.24 0 1.71.17 2.77.12.65.35 1.3.18.62.18.84 0 .27-.21.42-.53.47-1.4.8-.87.35-1.47.35-.97 0-1.78-.67-.78-.66-1.23-1.84-.43-1.18-.43-2.67 0-.99.2-2.34l-.06-.07q-.73.82-1.2 1.3l-.83.9q-1.92 2.2-3.25 3.95-.51.69-.94 1.2-.63.63-1.44.63-1.09 0-1.77-.82-.69-.82-.69-2.12 0-.8.2-1.96.18-1.16.49-2.48.32-1.33.75-2.73.44-1.4.96-2.67.78-2.1 1.91-3.28.77-.77 1.86-.77 1.78 0 1.78 2.3 0 1.7-.7 4.84l.07.07zm24.86-7.88l.4-.99q-1.92-.05-2.69-.37-.75-.35-.75-1.17 0-.66.53-1.31.6-.82 1.28-1.49.69-.68 1.27-.97.5-.2 1.37-.2 2.11 0 4.8.23l1.02.05.9.05q1.12 0 1.43.05.3.04.73.2.3.11.5.32.42.44.42 1.4 0 1.78-1.23 2.27-.71.3-1.3.41-.58.09-2.1.22l-1.84 6.12q1.31 0 2.13-.07.52-.03 1.58-.03 1.24 0 1.76.27.5.26.5.93 0 .5-.49 1.48-.5.98-1.07 1.56-.28.27-.77.37-.5.09-1.7.09h-.66q-1.15 0-2.62.1-.76 2.6-1.41 3.98-.65 1.37-1.6 2.33-.64.66-1.38 1.02-.71.36-1.35.36-1.04 0-1.8-.6t-.76-1.38q0-.96 1.62-5.98 1.63-5.03 3.28-9.25zm23.81 8.02l-.32.1q-1.23.34-1.78.34-.67 0-.67-.34 0-.12.28-.63.95-1.45.95-2.74 0-.73-.25-1.33-.26-.61-.57-.61-.27 0-.84.58-1.58 1.72-2.52 3.53-.93 1.82-.93 3.23 0 .94.38 1.56.4.61.97.61.5 0 1.85-1.06 1.37-1.05 3.06-2.8l.46-.37-.07-.07zm-1.03 3.91v.07l-.06-.07q-1.6 1.86-2.93 3.06-1.31 1.18-2.44 1.78-1.11.6-2.05.6-1.91 0-3.16-1.29-1.25-1.28-1.25-3.24 0-1.22.62-2.87.61-1.66 1.69-3.25 1.8-2.6 4.5-4.41 2.81-1.86 5.4-1.86 2.2 0 3.6.9 1.42.9 1.42 2.26 0 1-.7 2.13.92 0 1.16.21.24.19.24.9l-.09.7q-.1 1.7-.1 3.17 0 .77.02 1.16.01.4.07.9.05.52.1.83.13.8.44 1.59-1.02 1-1.96 1.48-.94.46-1.92.46-2.63 0-2.63-4.4 0-.52.03-.8zm13.44-.24l-.07.34q0 .3-.07.84-.07.84-.19 1.37-.12.53-.36.89-.24.34-.65.73-1.24 1.15-2.5 1.15-1.03 0-1.53-.75-.48-.76-.48-2.43 0-1.33.3-3.28.3-1.97.73-3.52l.13-.45q0-.1.1-.42.64-2.33 1.17-3.44.53-1.13 1.28-1.81.67-.53 1.5-.53 1.22 0 1.47 1.47.24-.2.47-.48.5-.6.77-.79.27-.2.63-.2 1.47 0 1.47 2.9 0 1.6-.34 3.08-.35 1.49-.88 2.43-.5.94-1.02.94-.57 0-.57-2.14 0-1.13-.13-1.76-.12-.65-.4-1-.5.95-.66 4.37-.12 1.98-.17 2.5zm24.2-.97l-4.67 4.78q-.9.9-1.47 1.25-.55.33-1.21.33-1.04 0-1.76-.77-.7-.79-.7-1.92 0-.7.2-1.52.22-.84.86-2.48l.22-.58.19-.42-.07-.07q-1.66 1.74-3.25 3.67-1.33 1.6-2.12 2.38-.78.78-1.42 1.18-.63.39-1.12.39-1.12 0-1.76-.87-.65-.87-.65-2.38 0-1.9 1.64-6.13 1.47-3.76 2.27-5.04 1.18-1.78 2.7-1.78.92 0 1.52.44.62.43.62 1.13 0 1.28-.98 3.91-.37.98-.77 2.2l.07.08q.63-.7 2.04-2.41 2.4-2.98 3.64-4.05 1.58-1.47 2.9-1.47.58 0 1.11.39.53.4.84 1.06.32.65.32 1.37 0 .73-1.06 3.76l-.34.99-.22.61.09.07.42-.43.41-.39.45-.41q.46-.44 2.32-2.34 1.23-1.37 1.93-1.86.7-.52 1.35-.52 1.06 0 1.6.74.57.72.57 2.13 0 .88-.27 2.76-.24 2.12-.34 3.33-.09 1.2-.09 1.67 0 .36.04.93.05.54.15 1.18.1.63.27 1.4.2.94.28 1.47-.14.61-.9 1.04-.76.43-1.65.43-1.4 0-2.63-1.27-.55-.58-.86-1.18-.29-.58-.42-1.38-.12-.82-.12-2.16 0-.87.2-3.6l-.07-.07-.3.43z"/>
        </g>
      </g>
      <g style="line-height:125%;-inkscape-font-specification:'sans-serif, Normal';text-align:start" font-weight="400" font-size="17.86" font-family="sans-serif" letter-spacing="0" word-spacing=".8" fill="#71348f">
        <path style="line-height:125%;-inkscape-font-specification:'sans-serif, Normal';text-align:start" d="M204.68 50.74h-2.34v-4.68h-8.8v4.68h-2.35v-9.56h2.34v3.75h8.8v-3.75h2.35zm17.91-8.46q1.08.64 1.65 1.57.58.93.58 2.11 0 1.18-.6 2.12-.58.93-1.63 1.55-1.1.65-2.58.98-1.49.33-3.4.33-1.85 0-3.38-.34-1.52-.33-2.59-.97-1.06-.63-1.64-1.56-.57-.92-.57-2.1 0-1.18.57-2.1.57-.93 1.66-1.6 1.04-.62 2.58-.96 1.55-.33 3.38-.33 1.9 0 3.4.34 1.51.33 2.57.96zm-.21 3.68q0-1.86-1.55-2.87-1.54-1.01-4.2-1.01-2.7 0-4.23 1.01-1.53 1.01-1.53 2.87 0 1.88 1.56 2.88 1.57 1 4.2 1t4.18-1q1.57-1 1.57-2.88zm17.32 4.78h-11.16v-9.56h2.34v8.43h8.82zm8.57 0h-6.97v-.98h2.3v-7.6h-2.3v-.98h6.97v.97h-2.31v7.61h2.3zm18.92-4.77q0 1.3-1.05 2.36-1.05 1.06-2.79 1.64-1.2.4-2.7.59-1.48.18-3.91.18h-4.46v-9.56h4.41q2.58 0 4.1.2 1.53.2 2.58.56 1.8.6 2.81 1.62 1.01 1.01 1.01 2.4zm-2.45-.02q0-1.12-.73-1.9-.72-.77-2.15-1.2-1.05-.33-2.22-.45-1.17-.13-2.8-.13h-2.21v7.38h2.2q1.7 0 2.95-.14 1.27-.13 2.33-.5 1.31-.45 1.96-1.2.67-.74.67-1.86zm20.18 4.79h-2.5l-1.73-2.67h-7.63l-1.73 2.67h-2.39l6.43-9.56h3.12zm-4.96-3.76l-3.09-4.69-3.1 4.7zm19.18-5.8l-6.21 5.37v4.19h-2.35v-4.06l-6.23-5.5h2.6l4.82 4.27 4.87-4.27zm25.68 8.86l-1.19.3q-.52.13-1.37.28-.73.12-1.58.2-.84.1-1.86.1-1.92 0-3.5-.3-1.56-.3-2.72-.92-1.14-.6-1.78-1.54-.64-.95-.64-2.2 0-1.17.62-2.1.61-.93 1.78-1.58 1.12-.62 2.7-.95 1.6-.32 3.55-.32 1.42 0 2.83.18 1.43.19 3.16.66v1.5h-.18q-1.46-.66-2.9-.96-1.43-.3-3.06-.3-1.34 0-2.42.24-1.07.23-1.9.72-.82.48-1.29 1.22-.45.74-.45 1.7 0 1 .5 1.73.51.73 1.3 1.18.83.48 1.94.7 1.1.23 2.34.23 1.7 0 3.18-.31 1.48-.32 2.77-.95h.17zm16.65-7.76q1.08.64 1.65 1.57.58.93.58 2.11 0 1.18-.6 2.12-.57.93-1.63 1.55-1.09.65-2.58.98-1.48.33-3.39.33-1.86 0-3.39-.34-1.52-.33-2.58-.97-1.07-.63-1.65-1.56-.57-.92-.57-2.1 0-1.18.57-2.1.57-.93 1.66-1.6 1.04-.62 2.58-.96 1.56-.33 3.38-.33 1.9 0 3.4.34 1.52.33 2.57.96zm-.21 3.68q0-1.86-1.54-2.87t-4.2-1.01q-2.7 0-4.24 1.01-1.53 1.01-1.53 2.87 0 1.88 1.57 2.88 1.56 1 4.2 1 2.62 0 4.17-1 1.57-1 1.57-2.88zm18.18-3.66h-6.3v8.44h-2.35V42.3h-6.3v-1.13h14.95z"/>
        <path style="line-height:125%;-inkscape-font-specification:'sans-serif, Normal';text-align:start" d="M373.6 42.3h-6.3v8.44h-2.34V42.3h-6.3v-1.13h14.95zm14.9 8.44h-2.51l-1.73-2.67h-7.63l-1.73 2.67h-2.38l6.42-9.56h3.13zm-4.96-3.76l-3.1-4.69-3.1 4.7zm22.35 3.05q-1.45.36-3.17.63-1.7.26-3.3.26-2.07 0-3.78-.3-1.72-.31-2.93-.93-1.22-.62-1.89-1.55-.66-.94-.66-2.2 0-2.28 2.47-3.6Q395.1 41 399.42 41q1.5 0 3.06.2 1.58.19 3.4.66v1.5h-.22q-.37-.15-1.07-.4-.7-.25-1.37-.42-.82-.2-1.86-.32-1.03-.14-2.35-.14-2.96 0-4.69 1.03-1.72 1.03-1.72 2.79 0 1.86 1.8 2.89t4.9 1.03q1.15 0 2.27-.13 1.14-.12 2-.31v-2.34h-4.73v-1.12h7.05zm15.72.71h-11.62v-9.56h11.62v1.13h-9.28v2.62h9.28v1.13h-9.28v3.55h9.28zM438.16 48q0 .57-.48 1.11-.48.55-1.34.93-.95.4-2.22.64-1.25.23-3.03.23-1.9 0-3.44-.2-1.51-.18-3.09-.56v-1.6h.17q1.34.6 3.09.94 1.75.32 3.3.32 2.17 0 3.38-.44 1.22-.44 1.22-1.18 0-.64-.58-.94-.57-.3-1.74-.47-.89-.13-1.93-.2l-2.2-.22q-2.34-.27-3.48-.92-1.12-.65-1.12-1.7 0-1.2 1.87-1.96 1.87-.77 4.75-.77 1.86 0 3.41.19 1.56.2 2.75.47v1.5h-.16q-1.01-.46-2.66-.76-1.63-.3-3.35-.3-1.89 0-3.03.42t-1.14 1.09q0 .6.57.94.57.34 2 .52.76.09 2.16.21 1.4.13 2.37.27 1.96.28 2.96.85t1 1.6z"/>
      </g>
    </g>
  </g>
</svg>
