<svg xmlns="http://www.w3.org/2000/svg" viewBox="0 0 55.19 77.94" overflow="visible" enable-background="new 0 0 180.72 296.55"><defs><filter id="a" x="-.27" width="1.54" y="-.2" height="1.4" color-interpolation-filters="sRGB"><feGaussianBlur stdDeviation="6.39"/></filter></defs><ellipse cx="29.54" cy="41.06" rx="28.66" ry="38.65" transform="translate(-.24 1.56) scale(.98354)" fill="#0f0" filter="url(#a)"/><switch transform="matrix(.1945 0 0 .19528 10.91 13.13)"><g><g><g><path stroke-miterlimit="2.41" d="M129.47 173.57s-.7 3.82 1.1 6.44c1.82 2.6.91 8.44-.2 10.85-1.2 2.32-5.52 15.89-6.12 17.8-.7 1.9-5.84 43.93-15.29 43.73-9.34-.1-11.45-5.13-11.56-10.06-.2-5.02 3.52-16.99 4.83-21.41 1.3-4.32 20.2-52.27 27.24-47.35z" clip-rule="evenodd" fill="#d9d8ce" fill-rule="evenodd" stroke="#000" stroke-width=".36" stroke-linecap="round" stroke-linejoin="round"/><path d="M104.74 246.66s-1.1 5.93-.7 7.03c.4 1.21-1.6 4.23-2.41 3.52 0 0-.7.2-2.72-1.8-1.7-1.72-4.02-3.33-.1-8.45 0 0 5.13-4.53 5.93-.3z" clip-rule="evenodd" fill="#b1babc" fill-rule="evenodd"/><path d="M103.94 246.15s-3.72 7.64-1.71 10.26c0 0 .5 0 1.2-1.51.51-1 1.01-6.94.91-7.34-.1-.5.1-1.4-.4-1.4z" clip-rule="evenodd" fill="#a1a8aa" fill-rule="evenodd"/><path stroke-miterlimit="2.41" d="M104.74 246.66s-1.1 5.93-.7 7.03c.4 1.21-1.6 4.23-2.41 3.52 0 0-.7.2-2.72-1.8-1.7-1.62-4.02-3.33-.3-8.25" clip-rule="evenodd" fill="none" stroke="#000" stroke-width=".36" stroke-linecap="round" stroke-linejoin="round"/><path d="M75.29 213.28c-.6 2.41 0 4.93-1.71 7.84-2.01 3.62-.2 5.63-.5 8.85-.4 3.22-.5 2.81.2 3.92.7 1.2-.1 1.5-1.3 8.04-1.22 6.64.2 5.33-.81 7.94-1.21 3.32-.7 11.16-1.91 14.18-1.21 3.01 0 4.12-2.22 7.84-1.7 3.01-1.4 4.72-1.7 7.04-2.52 21.7-20.91 11.25-18 0 .5-1.91-1.2-4.33-1.6-5.23-.91-2.01-1.52-5.53-1.01-9.45.6-3.92 1.8-5.73 1.5-8.35-.4-2.61 1.31-5.22.91-7.84-.5-2.61-1.5-2.61-.3-5.63 1.2-2.91-1.51-6.83.6-12.46 2.11-5.63.9-8.05.5-11.36-.2-1.81-.6-3.62-.8-5.33h28.15zm49.26 0c0 .5.1 1.1.2 1.71.5 2.01-.7 3.92-.1 5.23.7 1.3-1 4.42.1 7.64 1.2 3.31-.7 5.83.2 7.23.8 1.51 1.1 5.53.3 7.44-1.3 3.62.2 6.04-.5 8.35-.7 2.1-.5 2.41.2 3.62.7 1.2.6 5.43 0 6.33-.7 1 1.3 1.81.7 5.53-1.2 8.34.6 9.25-3.72 15.38-.2.3-1.6 7.04-1.7 7.34-1.62 7.04-19 4.93-14.58-8.04.4-1.41-1.41-1.91-1.41-1.91s-2.41-4.13-2.01-8.45c.2-2.2 1.6-6.23.8-7.03-.8-.8 1.31-6.14.2-9.25-1.7-4.83-1.7-8.25-1.3-9.35.5-1.1-.5-2.82-.6-5.13-.1-2.21-.91-4.92-.1-7.74.8-2.71-1.51-3.92-.41-5.13 1-1.2-.2-8.84-1.1-13.77h24.83zm50.76 0c-.4 2.31 0 4.32.5 5.73.81 1.8-.5 7.14-.2 8.75.3 1.5-.8 7.44-1.6 9.55-.8 2.1 0 5.12.1 7.13.2 3.02-1.61 5.43-1.61 6.74.8 15.58-16.49 11.46-15.98 1.7 0-1.4.5-1.9-1.61-3.3-1.81-1.11-1.71-2.42-1.71-2.42s-2.11-4.53-1-6.33c1.1-1.71.4-2.72-.2-3.42-.61-.6 1.3-2.11.4-2.42-1.01-.3-1.92-3.62-2.12-7.03-.2-3.52-1-2.42-.8-4.23.2-1.8-.3-3.72.5-4.82.7-1.1-.2-.8 0-4.42.1-.3.1-.7.1-1.21h25.23z" clip-rule="evenodd" fill="#e6e5da" fill-rule="evenodd"/><path d="M47.14 213.28c-.3-1.5-.5-2.91-.4-4.12.2-2.71-1.91-4.22-1.91-8.45.1-4.12.2-8.24-1.2-9.55-1.42-1.3.3-6.73-.61-6.83-1 0-.7-3.62-.7-5.53 0-2.01-1.61-5.03-.7-8.55.8-3.51-2.62-6.33-2.52-9.14.1-2.82-1.3-1.71-1.3-4.13 0-2.5-1.72-1.7-1.92-4.72-.1-2.82-.5-6.33-1.5-6.83-.91-.6.1-4.23-1.61-7.75l146.97 9.75c0 .1-.1.3-.1.4-1.11 4.03-2.62 5.84-1.71 7.65.8 1.8-.3 4.22-.6 7.94-.2 3.72-.91 12.66-.91 14.68-.1 2.1 2 4.02 1.1 6.73-.9 2.82-1.5 3.52-.2 4.92 1.2 1.51-.9 8.25-.5 10.36.5 2.1.9 6.84-.7 10.25-.4 1-.7 2.01-.8 2.92h-25.24c-.1-4.93-1.2-17.7-3.52-24.23-2.41-7.14-1.5-8.04-3.31-9.55-1.71-1.4-2.02-6.93-4.03-8.75-2.1-1.9-1 3.02-3.31.9-.6-.5-.6 2.93-3.32 3.93a38.55 38.55 0 0 1-4.62 1.7c-1.11.2-2.02 1.31-.91 3.83 1 2.51 1.5 7.03 0 16.08-.6 3.82-1.4 6.13-.7 7.24.6 1.2-.7 3.31-1.2 5.02a15.64 15.64 0 0 0-.61 3.83H99.72c-.1-.2-.1-.5-.1-.71-.9-4.92 0-8.54-1-10.15-.91-1.71-1.12-5.53-1.22-7.14-.1-1.6-.9-2.81-.7-3.72.2-1-.3-1.9-1.3-.7-1.11 1.1-5.64 2.3-7.45 1.1-1.8-1.3-5.52.2-6.93.6-1.51.4-3.92-.6-5.33-.8-1.3-.3-.7 2.21.3 3.42 1 1.2 2.11 5.23.8 7.64-1.3 2.51.61 6.03-.9 8.85-.3.6-.5 1.1-.6 1.6H47.14z" clip-rule="evenodd" fill="#e6e5da" fill-rule="evenodd"/><path stroke-miterlimit="2.41" d="M179.74 147.44c0 .1-.1.3-.1.4-1.11 4.02-2.62 5.83-1.71 7.64.8 1.8-.3 4.22-.6 7.94-.2 3.72-.91 12.67-.91 14.68-.1 2.1 2 4.02 1.1 6.73-.9 2.82-1.5 3.52-.2 4.93 1.2 1.5-.9 8.24-.5 10.35.5 2.11.9 6.84-.7 10.26-1.51 3.51-1 6.73-.3 8.64.8 1.8-.5 7.14-.2 8.75.3 1.5-.81 7.44-1.61 9.55-.81 2.1 0 5.12.1 7.13.2 3.02-1.61 5.43-1.61 6.74.8 15.58-16.49 11.46-15.98 1.7 0-1.4.5-1.9-1.61-3.3-1.81-1.11-1.71-2.42-1.71-2.42s-2.11-4.53-1-6.33c1.1-1.71.4-2.72-.2-3.42-.61-.6 1.3-2.11.4-2.42-1.01-.3-1.92-3.62-2.12-7.03-.2-3.52-1-2.42-.8-4.23.2-1.8-.3-3.72.5-4.82.7-1.1-.2-.8 0-4.42.3-3.52-.9-18.2-3.42-25.44-2.4-7.13-1.5-8.04-3.31-9.55-1.71-1.4-2.01-6.93-4.03-8.74-2.1-1.91-1 3.01-3.31.9-.6-.5-.6 2.92-3.32 3.92a38.55 38.55 0 0 1-4.62 1.71c-1.1.2-2.01 1.3-.9 3.82 1 2.51 1.5 7.04 0 16.08-.61 3.82-1.41 6.14-.71 7.24.6 1.2-.7 3.32-1.2 5.03-.5 1.7-.91 3.52-.4 5.53.5 2-.71 3.92-.1 5.22.7 1.31-1.01 4.43.1 7.64 1.2 3.32-.71 5.84.2 7.24.8 1.51 1.1 5.53.3 7.44-1.31 3.62.2 6.03-.5 8.34-.71 2.12-.51 2.42.2 3.62.7 1.21.6 5.43 0 6.34-.71 1 1.3 1.8.7 5.53-1.21 8.34.6 9.24-3.72 15.38-.2.3-1.61 7.03-1.71 7.33-1.61 7.04-19 4.93-14.58-8.04.4-1.4-1.4-1.9-1.4-1.9s-2.42-4.13-2.02-8.45c.2-2.21 1.61-6.23.8-7.04-.8-.8 1.31-6.13.2-9.25-1.7-4.82-1.7-8.24-1.3-9.35.5-1.1-.5-2.81-.6-5.12-.1-2.21-.9-4.93-.1-7.74.8-2.72-1.51-3.92-.4-5.13 1.1-1.3-.3-9.65-1.21-14.48-.9-4.92 0-8.54-1-10.15-.91-1.7-1.11-5.53-1.21-7.13-.1-1.61-.9-2.82-.7-3.72.2-1.01-.3-1.91-1.31-.71-1.1 1.1-5.63 2.31-7.44 1.1-1.81-1.3-5.53.2-6.94.61-1.5.4-3.92-.6-5.33-.8-1.3-.3-.7 2.2.3 3.41 1.01 1.2 2.12 5.23.8 7.64-1.3 2.52.61 6.03-.9 8.85-1.5 2.81-.2 5.93-2.3 9.45-2.02 3.62-.2 5.63-.51 8.85-.4 3.21-.5 2.81.2 3.92.7 1.2-.1 1.5-1.3 8.04-1.21 6.63.2 5.33-.81 7.94-1.2 3.32-.7 11.16-1.91 14.18-1.2 3.01 0 4.12-2.21 7.84-1.71 3.01-1.41 4.72-1.71 7.03-2.52 21.72-20.91 11.26-18 0 .5-1.9-1.2-4.32-1.6-5.23-.91-2-1.51-5.52-1.01-9.45.6-3.92 1.8-5.73 1.5-8.34-.4-2.61 1.31-5.23.91-7.84-.5-2.62-1.5-2.62-.3-5.63 1.2-2.92-1.5-6.83.6-12.46 2.11-5.63.9-8.05.5-11.36-.4-3.42-1.4-6.74-1.2-9.45.2-2.72-1.91-4.23-1.91-8.45.1-4.12.2-8.24-1.2-9.55-1.42-1.3.3-6.74-.61-6.83-1 0-.7-3.62-.7-5.53 0-2.02-1.61-5.03-.7-8.55.8-3.52-2.62-6.33-2.52-9.15.1-2.81-1.3-1.7-1.3-4.12 0-2.51-1.72-1.7-1.92-4.72-.1-2.82-.5-6.34-1.5-6.84-.91-.6.1-4.22-1.61-7.74z" clip-rule="evenodd" fill="none" stroke="#000" stroke-width=".36" stroke-linecap="round" stroke-linejoin="round"/><path stroke-miterlimit="2.41" d="M172.5 248.97c-.3.5-.6 2.1-1 2.31-.4.1-1.01.6-1.71.4-.6-.3-4.23-.3-4.53 1.41-.3 1.7-2.31.7-2.21-.2 0-.8-.6-1.91-1.81-1.81-1.1.1-3.62 0-4.12-.4-.6-.3-1.41-1.1-.7-1 .7.2 3.41.6 4.22.2.8-.3 3.11-.61 3.82-.2.6.4 1.6.5 2.61.5 1 .1 2.41.8 3.12-.2.7-1.01 2.3-1.01 2.3-1.01zM64.43 274.2c-.4.5-3.52.4-4.42.1-1-.3-2.61-.7-3.92-.2-1.41.5-2.92.9-4.02.4-1.01-.6-1.31-.4-2.42-.8-1-.4-3.01-.7-3.51-1.81-.5-1.1-.1 1.3 1 2.41 1.2 1 1.2 2.51 3.22 2.11 2-.3 2.71.1 3.31.6.5.6.1 5.23 2.32.5 1.1-2.3 1.4-.7 2.4-1.2a7.2 7.2 0 0 1 2.72-.5c.8.1.9.7 2.11.3 1.11-.5 1.51 1.2 1.61 1.91 0 0 .3-2.31.4-2.71 0-.3-.1-1.61.5-2.01.51-.5-1.3.9-1.3.9zm59.01 4.02s-1 2.21-1.6 2.51c-.5.4-1.21.7-2.72.4-1.5-.2-2.51-.8-2.82-.3-.3.5-1.6 0-2.2.5-.71.51-.41 2.22-1.41 2.72-1.01.6 0-1.7-.5-2.51-.4-.7-2.02-1.2-3.12-1.31-2.52 0-4.02-1.8-4.63-2.21 0 0 2.52.9 3.82.5 1.2-.4 2.62.4 3.62.6 1 .1 1.81.61 2.51.3.8-.4.7 0 1.82.1 1.1.1 1.8-.2 2.3-.3.51-.3.71.2 1.32.3.7 0 1.4-.3 1.9-.5s1.71-.8 1.71-.8z" clip-rule="evenodd" fill="#d2d0c4" fill-rule="evenodd" stroke="#deddd3" stroke-width=".79" stroke-linecap="round" stroke-linejoin="round"/><path stroke-miterlimit="2.41" d="M34.88 38.67c4.12-2.82-3.42-4.73-3.22-4.73-4.52-.1-14.68-2.01-15.78-3.82-1.1-1.8-6.74-2.41-9.35-7.44C3.9 17.45-1.72 12.43.6 8.41 2.8 4.39 8.34 5.69 10.75 6.2c2.51.4 9.55.9 12.27 1.1 3.31.4 9.45.5 14.37 5.03 1.7 1.6 2.51 4.42 3.72 4.22 3.92-.4 2.81-1.81 3.82-1.1 0 0 3.12 14.17-10.05 23.22z" clip-rule="evenodd" fill="#f2f2e4" fill-rule="evenodd" stroke="#000" stroke-width=".36" stroke-linecap="round" stroke-linejoin="round"/><path d="M37.29 33.74c-1.5.7-3.12-1.4-5.13-1.5a60 60 0 0 1-15.88-4.03c-5.33-2.31-5.63-4.32-7.54-6.23-1.81-1.8-6.64-7.04-6.84-11.26-.2-4.22 5.63-3.02 8.35-2.81 2.71.1 12.87 1.5 18.8 2.4 5.83.91 9.85 7.65 12.06 9.96 6.23 6.33-2.31 12.87-3.82 13.47z" clip-rule="evenodd" fill="#f2f2e4" fill-rule="evenodd"/><g clip-rule="evenodd" fill-rule="evenodd"><path d="M28.75 11.22c5.93.8 9.95 6.84 12.16 9.15 6.23 6.33-1.91 12.36-3.42 13.07-1.6.6-3.02-1.3-5.02-1.51a53.8 53.8 0 0 1-15.08-3.82c-5.23-2.31-5.84-4.22-7.65-6.03-1.9-1.91-6.73-6.94-7.03-10.76-.3-4.12 5.23-2.81 7.94-2.61 2.61.1 12.27 1.6 18.1 2.51z" fill="#e6e6d8"/><path d="M28.54 12.03c5.83.8 9.86 6.13 12.07 8.44 6.23 6.23-1.51 11.96-3.02 12.57-1.5.6-2.92-1.21-4.83-1.31a55.57 55.57 0 0 1-14.27-3.62c-5.23-2.41-5.93-4.22-7.84-6.03-1.81-1.81-6.74-6.74-7.04-10.15-.4-4.23 4.73-2.62 7.44-2.52 2.62.2 11.66 1.71 17.5 2.62z" fill="#d9d9cc"/><path d="M28.34 12.83c5.83.9 9.85 5.43 12.07 7.64 6.23 6.34-1.11 11.56-2.62 12.16-1.5.7-2.81-1.1-4.82-1.2-2.92-.2-8.04-1.1-13.37-3.42-5.23-2.31-6.14-4.02-8.05-5.93-1.8-1.8-6.73-6.53-7.03-9.55-.6-4.22 4.22-2.41 6.93-2.31 2.62.2 11.06 1.7 16.9 2.61z" fill="#ccccc0"/><path d="M28.04 13.64c5.83.9 9.85 4.72 12.06 6.93 6.24 6.33-.7 11.06-2.2 11.66-1.41.7-2.62-.9-4.63-1.1a37.8 37.8 0 0 1-12.57-3.22c-5.22-2.31-6.33-3.92-8.14-5.73-1.81-1.9-6.84-6.44-7.14-9.05-.7-4.12 3.72-2.2 6.44-2.1 2.61.2 10.35 1.7 16.18 2.6z" fill="#bfbfb4"/><path d="M27.84 14.54c5.83.8 9.85 3.92 12.06 6.13 6.24 6.33-.3 10.56-1.8 11.26-1.51.6-2.62-.9-4.53-1-3.02-.2-6.43-.7-11.66-3.12-5.33-2.21-6.54-3.82-8.45-5.63-1.8-1.81-6.83-6.24-7.13-8.54-.9-4.13 3.21-2.02 5.83-1.82 2.71.2 9.85 1.82 15.68 2.72z" fill="#b3b3a8"/><path d="M27.64 15.24c5.83.9 9.75 3.32 11.96 5.53 6.23 6.33.2 10.16-1.3 10.76-1.51.7-2.52-.8-4.53-.9-2.91-.2-5.53-.5-10.76-2.82-5.32-2.31-6.73-3.72-8.54-5.63-1.91-1.81-6.94-6.03-7.34-7.94-.9-4.13 2.82-1.81 5.53-1.61 2.61.2 9.05 1.8 14.98 2.61z" fill="#a6a69c"/></g><path d="M38.4 31.13c-1.51.7-2.32-.6-4.33-.8-2.91-.21-4.62-.31-9.95-2.62-5.23-2.32-6.83-3.62-8.75-5.43-1.8-1.91-6.93-5.93-7.33-7.44-1.1-4.02 2.31-1.6 5.02-1.4 2.72.2 8.45 1.8 14.28 2.7 5.83.91 9.85 2.42 12.06 4.73 6.23 6.33.6 9.65-1 10.25z" clip-rule="evenodd" fill="#999990" fill-rule="evenodd"/><path stroke-miterlimit="2.41" d="M42.01 22.28s-3.31-2.21-4.22-3.52c-.9-1.3-4.22-3.92-6.63-4.12-2.41-.1 1.6 1.8 1.6 1.8s-1 .71-4.62-.5c-3.62-1.2-4.82-1.8-8.54-2.1-3.62-.2-.3 2-4.23 1.5-3.92-.5-6.13-.7-3.92.2 2.12.9 3.32 1.71 6.24 1.91 2.91.2 8.44 2.32 6.73 2.62-1.8.4-6.94.8-5.73 1.1 1.2.4 6.54 1.2 8.04 1.1 1.51-.2 5.03 2.02 5.03 2.02s5.63 3.62 9.25 1.3c3.62-2.2 1-3.31 1-3.31z" clip-rule="evenodd" fill="#7f7f78" fill-rule="evenodd" stroke="#8c8c84" stroke-width=".36" stroke-linecap="round" stroke-linejoin="round"/><path stroke-miterlimit="2.41" d="M99.82 37.76c-4.13-3.22 6.73-3.32 6.53-3.42 4.73.6 15.48 0 16.79-1.5 1.3-1.61 7.24-1.41 10.35-5.94 3.12-4.52 9.25-8.54 7.24-12.66-2.11-4.13-8.04-3.52-10.56-3.42-2.6.1-10.15.1-12.96-.4-2.72-.6-6.94-1-13.17 1.9-2.92 1.32-4.63 3.83-6.54 3.53-4.72-.7-5.72-.4-5.93 0 0 0-4.82 11.76 8.25 21.91z" clip-rule="evenodd" fill="#f2f2e4" fill-rule="evenodd" stroke="#000" stroke-width=".36" stroke-linecap="round" stroke-linejoin="round"/><path d="M99.11 33.94c1.31.9 3.22-.9 5.23-.6 2.92.3 10.86.1 16.49-1.2 5.53-1.42 6.23-3.23 8.44-4.73 2.11-1.51 7.74-5.84 8.75-9.96.9-4.12-5.03-4.02-7.74-4.32-2.72-.3-12.97-.7-18.9-.8-5.93-.2-11.16 5.83-13.67 7.64-7.24 5.12 0 13.07 1.4 13.97z" clip-rule="evenodd" fill="#f2f2e4" fill-rule="evenodd"/><g clip-rule="evenodd" fill-rule="evenodd"><path d="M111.48 13.13c-5.93-.1-11.06 5.13-13.57 6.94-7.24 5.12-.3 12.56 1.1 13.47 1.31.9 3.22-.8 5.13-.6 2.91.4 9.95.3 15.58-1.11 5.53-1.3 6.44-3.12 8.55-4.63 2.2-1.5 7.84-5.63 8.74-9.34 1.1-4.03-4.62-3.72-7.24-4.03-2.71-.3-12.46-.5-18.3-.7z" fill="#e6e6d8"/><path d="M111.48 14.04c-5.83-.2-10.76 4.32-13.37 6.13-7.24 5.12-.6 12.06.8 12.97 1.41.9 3.02-.7 5.03-.5 2.91.3 9.05.3 14.68-1.01 5.53-1.4 6.63-3.02 8.74-4.53 2.11-1.5 7.84-5.42 8.65-8.84 1.2-4.02-4.12-3.32-6.74-3.72-2.71-.3-11.86-.4-17.8-.5z" fill="#d9d9cc"/><path d="M111.58 14.84c-5.93-.1-10.66 3.72-13.17 5.53-7.24 5.12-1 11.46.4 12.36 1.41.9 2.92-.6 4.93-.4 2.92.3 8.14.3 13.77-1 5.53-1.31 6.73-2.92 8.94-4.33 2.12-1.5 7.85-5.32 8.65-8.24 1.3-4.02-3.72-3.11-6.43-3.52-2.62-.2-11.16-.2-17.1-.4z" fill="#ccccc0"/><path d="M111.68 15.74c-5.93-.2-10.56 2.92-13.07 4.73-7.24 5.13-1.3 10.96.1 11.86 1.3.9 2.81-.5 4.83-.3 2.91.3 7.23.4 12.86-.9 5.63-1.41 6.94-2.82 9.05-4.33 2.11-1.5 7.94-5.12 8.65-7.64 1.4-3.92-3.22-2.81-5.94-3.11-2.7-.3-10.55-.2-16.48-.3z" fill="#bfbfb4"/><path d="M111.78 16.55a21.3 21.3 0 0 0-12.97 4.02c-7.24 5.13-1.6 10.46-.2 11.36 1.4.9 2.71-.4 4.73-.2 2.91.3 6.33.5 11.96-.9 5.63-1.41 7.14-2.62 9.25-4.13 2.1-1.5 7.84-4.92 8.54-7.14 1.61-3.92-2.81-2.5-5.53-2.81-2.61-.3-9.85 0-15.78-.2z" fill="#b3b3a8"/><path d="M111.88 17.45c-5.93-.2-10.25 1.51-12.87 3.32-7.14 5.13-1.9 9.85-.5 10.76 1.4.9 2.61-.3 4.52-.1 2.92.3 5.53.5 11.16-.9 5.63-1.32 7.24-2.52 9.35-4.03 2.21-1.4 7.94-4.72 8.65-6.43 1.6-3.92-2.42-2.32-5.13-2.62-2.71-.3-9.25.1-15.18 0z" fill="#a6a69c"/></g><path d="M98.41 31.13c1.4.9 2.51-.2 4.42 0 2.92.3 4.63.5 10.26-.8 5.63-1.42 7.44-2.42 9.55-3.93 2.1-1.5 7.94-4.52 8.64-5.93 1.71-3.82-2.1-2.01-4.72-2.31-2.72-.3-8.75.3-14.58.1-5.93-.1-10.15.7-12.66 2.61C92.08 26 97 30.22 98.4 31.12z" clip-rule="evenodd" fill="#999990" fill-rule="evenodd"/><path stroke-miterlimit="2.41" d="M97.2 21.88s12.47-9.86 5.43-2.82c-1.7 1.71 3.82-1.2 5.03-.1 1.1 1 2.21.2 3.42 0 2.2-.5 5.13-.1 6.33 0 1.3.1 7.24-1 6.64.4-.5 1.41-3.72.7-5.73 1.81-2.11 1.11-6.04 1.11-6.54 2.62a6.13 6.13 0 0 1-4.82 3.21c-2.52.3-6.64 2.12-8.85.81-2.11-1.4-2.21-4.22-.9-5.93z" clip-rule="evenodd" fill="#7f7f78" fill-rule="evenodd" stroke="#8c8c84" stroke-width=".36" stroke-linecap="round" stroke-linejoin="round"/><path d="M169.48 73.85c.3 1 .4 1.81.4 2.61 0 4.22 1.21 2.01 1.51 6.04.4 4.12 1.1 9.95 2.11 11.35 2.01 2.82.2 4.23 1 5.63.71 1.41.81 4.43 1.62 4.83.8.5.8 4.02 1.5 5.33.71 1.3-2.2 1.6-1.4 3.62 1.1 2.5 3.31 1 2.91 3.21-.4 2.31-.4 6.03.2 7.54.7 1.61 1.01 7.74 1.21 9.55.3 1.91-.6 3.52-.6 5.73 0 2.21.8 4.32-.2 8.14l-146.97-9.75c0-.1 0-.2-.1-.3-1.81-3.72-.2-7.74-1.92-10.15-1.6-2.31 2.32-2.01.2-7.24-2.2-5.13.7-7.54-.2-11.16-.8-3.62 1.31-4.62 1.31-8.94.1-4.33 1.2-7.95 2.31-9.66 1.11-1.8 1-7.23 1-7.23s-1.2 1.1-1.8 1c-.6 0 .9-4.12.3-6.13-.4-1.2-2.41 2.72-1.7-.4.2-.9.3-2.11.4-3.62zm-136.92 0c.1-2.81.3-6.23 1.31-8.44 1.41-3.32-.2-3.72-.8-2.22-.6 1.41-.5-3.62.1-5.83.5-2.1.2-5.53-.8-5.43-1.01.1.2-2.81.7-3.31-1.71-2.72-.7-6.84-.7-8.65 0 0 2.91-6.03 4.42-6.94 1.6-.9.5-3.21 1.8-4.32 1.31-1.2 2.12-2.11 1.21-3.42-.9-1.2.9-2.1 1.41-3.01.6-1 .2-3.02.8-3.92.5-1 2.02-4.83 1.61-5.63-.5-.7 1.41-2.71 3.42-3.02.8-.2 1.81-.6 2.01-1.4.9-3.42 3.52-1.91 4.53-3.32 1.1-1.4 3.31.9 4.22-1 .8-1.92 1.5 1.5 2.41-.1.9-1.51 1.7-1.41 3.72-2.32 2.71-1.2 2.81 1.4 4.32.1 1.1-1.1 2.41.1 3.22-.7.8-.8 2.21.5 5.13-.6 3.11-1.31 3.01 2.4 6.03 1.8 1.6-.3 3.11 2.82 3.52 3.72.4.9 1.6-.2 3.01 2.52 1.3 2.81 2.41 1.6 4.42 3.41.2.2 1.11 2.92.7 2.01 1.22 2.52 1.22 1.21 1.72 4.83l1.3 3.92c.81 1.5-.6 1.91.7 3.72 1.32 1.8.71 2.71.71 2.71 2.92 1.71 2.31 5.43 3.12 9.25.9 3.72 1 6.54 1 7.64 2.12.5 3.32.1 3.83-1.1.4-1.2 2.2 1.7 3.31.1 1.1-1.5 2.11 1.5 3.52-1 1.3-2.52 2.31 1.5 4.62-.5 1.41-1.22 1.61.5 4.43-.71 2.81-1.2 2.51 1.9 5.02-.4 2.52-2.32 2.21 1.3 4.03-.1 1.9-1.31 2.5 1.6 5.52 1.6 2.92-.1 7.84-1.2 8.45 1.01.8 3.82 3.31.1 3.62 2.72.3 2.6 1.9 0 2.7 3.1.81 3.23 2.62.11 4.43 4.03 1.81 3.92 4.53 2.42 5.33 5.53.7 3.12 2.01.1 3.42 3.12 1.1 2.3 3.62 6.83 4.42 10.55H32.56z" clip-rule="evenodd" fill="#e6e5da" fill-rule="evenodd"/><path stroke-miterlimit="2.41" d="M47.04 9.71c.8-.2 1.81-.6 2.01-1.4.9-3.42 3.52-1.91 4.53-3.32 1.1-1.4 3.31.9 4.22-1 .8-1.91 1.5 1.5 2.41-.1.9-1.51 1.7-1.41 3.72-2.32 2.71-1.2 2.81 1.4 4.32.1 1.1-1.1 2.41.1 3.22-.7.8-.8 2.21.5 5.13-.6 3.11-1.31 3.01 2.4 6.03 1.8 1.6-.3 3.11 2.82 3.52 3.73.4.9 1.6-.2 3.01 2.5 1.3 2.82 2.42 1.62 4.43 3.43.2.2 1.1 2.91.7 2 1.2 2.52 1.2 1.21 1.71 4.83l1.3 3.92c.81 1.51-.6 1.91.71 3.72 1.3 1.81.7 2.72.7 2.72 2.92 1.7 2.32 5.43 3.12 9.24.9 3.73 1 6.54 1 7.64 2.12.5 3.32.1 3.83-1.1.4-1.2 2.2 1.71 3.31.1 1.1-1.5 2.11 1.5 3.52-1 1.3-2.52 2.31 1.5 4.62-.5 1.41-1.21 1.61.5 4.43-.71 2.81-1.2 2.51 1.91 5.02-.4 2.52-2.31 2.22 1.3 4.03-.1 1.9-1.3 2.5 1.6 5.52 1.6 2.92-.1 7.84-1.2 8.45 1.01.8 3.82 3.31.1 3.62 2.72.3 2.6 1.9 0 2.71 3.11.8 3.22 2.61.1 4.42 4.02 1.82 3.92 4.53 2.42 5.33 5.53.7 3.12 2.01.1 3.42 3.12 1.4 2.91 4.82 9.05 4.82 13.17 0 4.22 1.21 2 1.51 6.03.4 4.12 1.1 9.95 2.11 11.36 2.01 2.81.2 4.22 1 5.63.71 1.4.81 4.42 1.62 4.82.8.5.8 4.02 1.5 5.33.71 1.3-2.2 1.6-1.4 3.62 1.1 2.51 3.31 1 2.91 3.21-.4 2.32-.4 6.04.2 7.54.7 1.61 1.01 7.75 1.21 9.55.3 1.91-.6 3.52-.6 5.74 0 2.2.8 4.32-.2 8.14l-146.97-9.75c0-.1 0-.2-.1-.3-1.81-3.72-.2-7.74-1.92-10.16-1.6-2.31 2.32-2 .2-7.24-2.2-5.12.7-7.53-.2-11.15-.8-3.62 1.31-4.63 1.31-8.95.1-4.32 1.2-7.94 2.31-9.65 1.11-1.81 1-7.24 1-7.24s-1.2 1.1-1.8 1c-.6 0 .9-4.12.3-6.13-.4-1.2-2.41 2.72-1.7-.4.6-2.71.2-8.64 1.7-12.06 1.41-3.32-.2-3.72-.8-2.21-.6 1.4-.5-3.62.1-5.83.5-2.11.2-5.53-.8-5.43-1.01.1.2-2.82.7-3.32-1.71-2.71-.7-6.83-.7-8.64 0 0 2.91-6.04 4.42-6.94 1.6-.9.5-3.22 1.8-4.32 1.31-1.21 2.12-2.12 1.21-3.42-.9-1.2.9-2.11 1.41-3.02.6-1 .2-3.01.8-3.92.5-1 2.02-4.82 1.61-5.63-.5-.7 1.41-2.71 3.42-3.02z" clip-rule="evenodd" fill="none" stroke="#000" stroke-width=".36" stroke-linecap="round" stroke-linejoin="round"/><path stroke-miterlimit="2.41" d="M33.07 137.69l146.37 9.75" fill="none" stroke="#e6e5da" stroke-width=".79" stroke-linecap="round" stroke-linejoin="round"/><path stroke-miterlimit="2.41" d="M68.65 24.5c.7.2 2.62 1.7 3.82 1.5 1.31-.1 3.82 2.21 4.53 2.81.7.5 2.61 1.2 4.32.8a7 7 0 0 0 3.62-2c1.1-.9 2.21-3.52 4.22-3.42 1.81.1 4.62-.2 5.73.9 1.1 1 3.72 3.42 4.12 8.35.4 5.02 0 6.73 0 7.44-.1.7-.9 2.4-.8 4.32.1 2.01-1.1 4.93-2.11 5.33-1 .4-1.71-.1-1.81 1.8-.1 2.02-1.61 1.61-1 3.73.6 1.9 1.8 6.23 1.4 9.14-.5 2.92-1.61 5.03-1.2 5.84.5.8 0 4.22-.51 5.12-.6.9 0 2.92-1.1 4.33-1.11 1.4-2.02 4.32-2.32 5.32-.2.9-2.31 6.44-4.02 6.84-1.7.4-1.9 3.11-3.72 3.72-1.7.6-3.82 2.2-4.93 3.11-1 .9-4.52 2.92-7.94 2.42-3.41-.5-7.34-1-8.04-2.32-.6-1.2-2.51-2.3-2.51-2.3s-4.83-1.11-5.23-3.12c-.3-2.02-3.02-3.42-2.61-4.63.3-1.2.2-2.41-1.61-4.72-1.81-2.32-2.52-4.63-2.11-6.04.3-1.5.2-6.43-.5-7.74-.6-1.2-2.32-5.02-2.22-6.23 0-1.3 1.01-4.92 1.11-5.63 0-.7 2.01-5.53.8-5.63-1.2 0 .4-2.41-1.1-.8-1.6 1.6-1.6-1.81-1.6-2.51 0 0-.11-2.72-1.52-3.82-1.3-1.11-2.71-3.12-2.61-4.63.1-1.5-1.7-10.65 4.22-14.68 5.93-4.12 4.63-.2 6.13.1 1.41.3 1.41 1.31 2.82 1.21 1.5-.2 3.01 2.92 4.02 2.21 1.1-.6 3.52.2 3.82-1.2.4-1.51 3.32-1 3.32-2.02.1-1 2.71-3.31 5.12-2.9z" clip-rule="evenodd" fill="#d2d0c4" fill-rule="evenodd" stroke="#dbdad0" stroke-width=".79" stroke-linecap="round" stroke-linejoin="round"/><path d="M89.26 25.7c1.41.4 3.92-.5 5.23.8 1.5 1.3 3.32 2.71 3.32 5.73.1 2.92 1.1 7.14 0 8.55a7.1 7.1 0 0 0-1.41 4.32c-.1 1.2-.8 5.43-1.91 5.13a6.3 6.3 0 0 1-1.7-.7l.3 2.5-.71-.5s.1 2.21-.2 3.12c-.3 1 .1 3.02.7 3.82.7.7 1.3 6.43.2 8.14-1.1 1.61-1.1 4.83-.8 5.53.1.8-1.51 7.84-3.12 10.66-1.7 2.81-3.11 6.43-4.72 8.54-1.61 2.11-3.62 2.52-5.23 3.82-1.5 1.41-9.05 9.95-19.1 1.71 0 0-2.52-2.41-4.22-2.71-1.71-.4-2.62-5.13-3.02-5.93-.5-.8-4.12-5.63-4.42-8.15-.3-2.5-.3-3.01-.4-4.92-.1-2.01 1-3.42-.2-5.23-1.11-1.81-2.82-5.33-2.42-7.24.4-2 1.71-6.83 1.71-6.83l1.1-2.42-1 .2.6-3.92-2.1 1.11s-1.01.9-1.11-1.8c-.1-2.72-1.71-3.83-2.92-4.83-1.1-1.11-1.9-3.62-1.8-5.33.1-1.71 1.8-9.25 4.62-10.56 2.81-1.2 6.13 1.2 7.03 1.5 1 .31 4.43 3.23 5.23 2.32.8-.9 3.02 0 3.82-1 .8-.9 2.01-.6 2.31-1.81.4-1.21 3.72-3.72 4.93-3.32 1.2.3 5.03 2.31 5.03 2.31s.8 2.72 2.5 2.41c1.82-.4 2.62 1.81 3.83 1.41 1.3-.4 3.72 0 4.52-1.4.9-1.41 2.82-1.82 2.82-1.82s1.5-3.51 2.71-3.21z" clip-rule="evenodd" fill="#f2f2e4" fill-rule="evenodd"/><path d="M80.52 94.56s-1.51-.1-4.33 1.2c-2.71 1.21-3.41 1.81-6.73 1.61-2.72-.2-2.52-.2-3.92-1-1.51-.9-3.22-.8-4.12-1.4-1-.61-7.04-1.82-6.14-1.32 1 .6 3.72 2.42 4.83 3.72 1.1 1.3 4.73 3.22 8.34 3.22 3.72 0 6.04-1.1 7.04-1.71 1.1-.7 4.22-4.12 5.03-4.32z" clip-rule="evenodd" fill="#e6e6d8" fill-rule="evenodd"/><path d="M71.67 72.34c1.2 0 4.62-.5 6.23-1.1 1.51-.7 4.93-.8 6.03.9 1.81 2.51.2 4.42-1.7 7.24-1.92 2.81-2.02 5.02-.4 6.33 1.6 1.41 4.42-.4 3.1 1.71-1.4 2.11-5.22 3.62-6.43 3.72-1.2.2-10.55 3.82-17.89-.9-5.43-3.42-6.43-4.33-4.62-4.22 1.7.1 3.61-.3 4.52-1.41.8-1.21 1-3.93 0-4.73-.9-.8-5.73-9.75 1.3-8.54 1.32.2 6.14.9 9.86 1z" clip-rule="evenodd" fill="#f2f2e4" fill-rule="evenodd"/><g clip-rule="evenodd" fill-rule="evenodd"><path d="M71.57 73.05c1.2 0 4.42-.5 5.83-1.1 1.5-.61 4.72-.71 5.83.9 1.7 2.4.3 4.22-1.5 6.83-1.82 2.81-2.02 4.82-.4 6.23 1.5 1.21 4.21-.5 2.9 1.51-1.3 2.11-4.72 3.52-5.93 3.62-1.2.2-10.25 3.42-17.39-.9-5.23-3.22-5.93-4.03-4.32-3.93 1.6.1 3.62-.3 4.32-1.4.8-1.11 1-3.82.1-4.53-.9-.8-5.52-9.45 1.21-8.24 1.2.2 5.83 1 9.35 1z" fill="#ededdf"/><path d="M71.57 73.75c1.1 0 4.02-.4 5.43-1.1 1.4-.5 4.42-.7 5.53.9 1.6 2.41.4 3.92-1.31 6.53-1.81 2.62-1.91 4.63-.4 5.83 1.5 1.31 4.12-.4 2.81 1.61-1.3 1.91-4.52 3.32-5.63 3.42-1.1.2-9.95 3.12-16.79-.9-5.02-2.92-5.52-3.73-3.92-3.62 1.61.1 3.42-.4 4.13-1.41.8-1.1.9-3.72.1-4.42-.9-.7-5.33-8.95 1.2-7.84 1.1.2 5.43 1 8.85 1z" fill="#e8e8da"/><path d="M71.47 74.45c1.1 0 3.72-.4 5.12-1 1.31-.5 4.13-.7 5.13.8 1.61 2.21.6 3.72-1.1 6.13-1.71 2.52-1.81 4.43-.4 5.63 1.5 1.21 4.02-.4 2.7 1.51-1.2 1.91-4.01 3.12-5.12 3.32-1.1.2-9.65 2.81-16.18-.9-4.93-2.72-5.23-3.43-3.72-3.32 1.5 0 3.31-.4 4.02-1.41.7-1.1.9-3.62.1-4.32-.9-.7-5.13-8.55 1.1-7.44 1.11.1 5.13 1 8.35 1z" fill="#e3e3d6"/><path d="M71.47 75.16c1 0 3.32-.4 4.62-1 1.31-.51 4.02-.61 4.93.8 1.5 2.1.7 3.41-.9 5.83-1.61 2.3-1.72 4.22-.4 5.32 1.4 1.11 3.81-.4 2.6 1.41a8.15 8.15 0 0 1-4.72 3.22c-1.1.1-9.35 2.51-15.68-.8-4.83-2.52-4.83-3.32-3.32-3.22 1.4.1 3.12-.4 3.82-1.31.6-1 .8-3.52 0-4.12-.7-.7-4.83-8.24 1.1-7.14 1.11.1 4.83 1 7.95 1z" fill="#deded1"/></g><path d="M71.47 75.86c1 0 2.91-.4 4.22-.9 1.2-.5 3.72-.6 4.62.7 1.41 2.11.81 3.22-.8 5.43-1.5 2.31-1.6 4.12-.3 5.13 1.3 1.1 3.62-.3 2.51 1.3-1.1 1.71-3.42 3.02-4.42 3.12-1 .1-8.85 2.21-15.08-.8-4.52-2.32-4.42-3.02-3.02-2.82 1.41 0 3.02-.5 3.72-1.5.6-.91.8-3.32 0-3.93-.7-.6-4.62-7.84 1.1-6.83.91.2 4.43 1.1 7.45 1.1z" clip-rule="evenodd" fill="#d9d9cc" fill-rule="evenodd"/><path d="M92.58 47.21c-1.81.5-2.51 2.81-3.92 5.53-3.12 5.93-2.72-4.73-2.31-9.55.3-4.93 4.42-6.54 7.43-7.94 3.12-1.51 3.02 1.7 3.02 3.21.1 1.81-1.8 7.84-4.22 8.75zm-51.07-7.94c-.1-1.3.3-4.83 3.62-3.82 3.22 1.1 7.54 3.11 8.24 7.84 1.1 8.04 1.41 12.97-1.1 9.55-1.91-2.51-1.81-4.83-3.52-5.23-2.61-.5-7.04-6.53-7.24-8.34z" clip-rule="evenodd" fill="#f2f2e4" fill-rule="evenodd"/><g clip-rule="evenodd" fill-rule="evenodd"><path d="M86.75 43.6c.3-4.73 3.62-6.24 6.63-7.75 2.92-1.4 3.22 1.4 3.22 2.71 0 1.91-2.11 6.84-4.62 7.95-1.61.7-2.12 2.61-3.32 5.53-2.62 5.52-2.31-3.62-1.91-8.45z" fill="#ebebdd"/><path d="M87.15 44c.3-4.43 2.81-5.94 5.83-7.45 2.61-1.4 3.42.8 3.42 2.32 0 1.8-2.31 5.73-4.83 7.03-1.6.8-1.9 2.32-2.91 5.33-2.21 5.23-1.91-2.51-1.5-7.24z" fill="#e6e6d8"/><path d="M87.55 44.3c.3-4.13 2.11-5.43 5.03-7.14 2.31-1.2 3.62.5 3.62 1.8 0 1.92-2.62 4.73-5.23 6.24-1.4.9-1.4 2.11-2.31 5.33-1.71 4.82-1.4-1.4-1.1-6.24z" fill="#deded1"/></g><path d="M90.47 44.6c-1.31 1-1 1.9-1.81 5.12-1.3 4.63-1-.1-.7-5.02.2-3.92 1.4-5.13 4.22-6.94 2-1.1 3.82.1 3.82 1.4 0 1.92-2.92 3.73-5.53 5.44z" clip-rule="evenodd" fill="#d9d9cc" fill-rule="evenodd"/><g clip-rule="evenodd" fill-rule="evenodd"><path d="M53.07 43.8c1 7.13 1.41 11.96-.9 8.34-1.71-2.62-1.51-4.63-3.22-5.13-2.71-.8-6.53-5.73-6.73-7.54-.2-1.4.6-4.22 3.62-3.22 3.21 1.1 6.53 2.92 7.23 7.54z" fill="#ebebdd"/><path d="M52.77 44.2c1 6.33 1.6 11.15-.6 7.23-1.51-2.81-1.41-4.42-3.02-5.02-2.71-1-6.03-4.93-6.23-6.84-.2-1.3.9-3.52 3.62-2.51 3.21 1.2 5.42 2.81 6.23 7.13z" fill="#e6e6d8"/><path d="M52.47 44.6c.9 5.53 1.6 10.25-.3 6.13-1.41-2.92-1.31-4.22-2.82-4.93-2.81-1.2-5.53-4.12-5.73-6.03-.2-1.3 1.2-2.81 3.62-1.9 3.22 1.3 4.43 2.7 5.23 6.73z" fill="#deded1"/></g><path d="M44.23 39.97c-.1-1.4 1.6-2.21 3.72-1.3 3.21 1.3 3.41 2.5 4.22 6.43.9 4.72 1.7 9.35 0 4.92-1.3-3.11-1.1-4.02-2.72-4.82-2.81-1.4-4.92-3.42-5.22-5.23z" clip-rule="evenodd" fill="#d9d9cc" fill-rule="evenodd"/><path d="M96.3 32.53s-.2-3.21-2.21-3.82c-1.81-.6-4.43 0-5.33 1.3-1.1 1.42-4.73 7.85-1.91 6.85 2.71-1.01 4.02-3.42 5.53-3.32 1.4.1 4.32.3 3.92-1zm-52.68 1.41c-.7.2-.2-4.22 3.82-4.12 1.91 0 6.14 3.32 7.14 5.83 1.1 2.51.1 3.02-1.1 1.9-1.11-1-8.35-4.01-9.86-3.6zm22.92-3.12c1.51-.8 6.33-.1 8.65 2.82 2.31 2.81 4.92 8.14 4.92 11.86 0 3.72 2.12 11.76 3.72 13.57 1.61 1.81 5.63 12.67 4.93 18-.6 5.43-2.81 6.03-3.72 4.22-.8-1.81.3-3.92.6-5.33.4-1.5-.1-5.23-3.21-6.43-3.12-1.21-4.02.7-8.25.9-4.22.3-8.34.2-10.05-.4-1.6-.6-5.63-.8-7.04 2.01-1.4 2.82.3 5.13.6 6.13.61 2.62-2 7.34-4.51 1-2.52-6.33.2-17.68 1.3-19.6 1.1-1.9 4.83-8.84 4.73-11.25-.1-2.52 2.5-14.88 7.33-17.5z" clip-rule="evenodd" fill="#fafaf2" fill-rule="evenodd"/><path stroke-miterlimit="2.41" d="M96.3 77.87c-.3 1.3-1 6.84-2.21 7.74-1.31.9-2.52 3.02-2.52 4.22-.1 1.21-1.6 5.63-3.82 6.64-2.3 1.1-3.01.8-3.31 2.31-.4 1.4-2.52 4.43-3.82 4.12-1.1-.3-2.62 2.52-3.42 3.92-.8 1.51-2.41 2.32-3.82 1.82-1.4-.71-2.72-2.52-4.32-1.62-1.51.91-3.42.1-4.93-.5-1.4-.6-4.32-.8-6.13-2.91-1.81-2.11-2.01-2.62-3.32-2.62-1.2-.1-6.43-6.63-7.04-8.84-.5-2.31-1.7-4.12-1.7-4.12l-1.01 1.2v-4.02l-1.5.7-.2-4.92s.1-1-1.01-2.52c-1.21-1.6-.8-3.31-1-4.32-.21-1-2.12-5.83-3.23-6.63-1.2-.8-.5-6.94-1.2-4.73-.6 2.21-.3 5.83 0 7.64.4 1.81 2.41 4.32 2.31 5.53-.1 1.3-.1 6.23.3 7.94.3 1.71 2.71 6.03 2.61 7.54 0 1.5 2.32 3.12 2.32 3.12s2.51 2.61 3.62 4.72c1 2.01 2.2 3.82 3.31 5.13 1.1 1.3 4.12 4.62 5.43 4.32 1.2-.4 3.82.7 3.72 1.91 0 1.31 2.11 1.91 3.42 1.2 1.3-.6 3.82-1.2 4.93.41 1.1 1.5 3.41.9 5.02 1 1.71.2 3.12 1.21 3.92 0 .9-1.1 1.51-2.8 3.32-3.71 1.7-.8 2.01-.8 2.81-2.72.9-1.9 2.82-5.02 3.82-5.12 1-.2 2.11-.1 2.11-.1l-.1-1.71 1.41.3-.3-1.81 1.9.2-.6-1.6s-.2-1.41.91-2.32c1-1 2.01-1.4 2.31-2.61.3-1.2.3-4.12 1.2-5.73.81-1.71.71-3.92.81-5.63.1-1.81 1.81-19.6-1-2.82z" clip-rule="evenodd" fill="#d6d5c9" fill-rule="evenodd" stroke="#deddd3" stroke-width=".79" stroke-linecap="round" stroke-linejoin="round"/><path stroke-miterlimit="2.41" d="M95.8 85c-.5.71-3.52 8.15-5.13 10.16-1.51 2.11-3.72 2.01-4.53 3.62-.9 1.71-3.31 5.53-5.12 5.83-1.71.4-3.32 5.23-5.03 5.13-1.6-.1-2.91-.2-4.82-1 0 0-1.71.1-2.41 0-.81 0-3.02.1-5.13-1.11-2.11-1.1-6.03-2.32-6.94-3.32-.9-1.1-.4-2.31-2.31-2.61-1.91-.4-6.43-6.64-7.34-7.95-.9-1.2-1.3-2.71-2.21-3.61-.9-.8-3.62-8.55-3.82-12.57 0 0-.9 2.92.9 8.24 1.91 5.23 2.72 6.84 3.72 7.34.9.6 5.43 7.04 5.63 7.84.2.7 3.32 2.22 3.72 3.12.4 1 1.1 2.31 3.02 2.71 2 .4 5.33 2.32 5.33 2.32s6.13.2 7.23 1.4c1.1 1.41 5.83 1.71 6.84 0 1.1-1.6 3.22-3.41 4.02-3.61.7-.2 2.61-2.62 2.91-3.52.3-.9 3.22-4.73 4.33-5.13.9-.4 4.12-4.42 4.72-5.83.5-1.41 2.42-7.44 2.42-7.44z" clip-rule="evenodd" fill="#bebdb2" fill-rule="evenodd" stroke="#cbc9be" stroke-width=".36" stroke-linecap="round" stroke-linejoin="round"/><path d="M88.16 155.88c1 1.6 2 3.82 2.1 5.23.1 1.9.6 5.42 2.22 6.53 1.6 1.1 1.3 2.31 1.7 3.82.41 1.5.81 3.22 2.02 3.82 1.2.6 3.02-1.3 2.91-.3 0 .9-2.41 3.22-.4 3.12 2.01-.1 3.52-.7 2.62.4-.81 1.2-4.83 6.13-3.32 6.23 1.5.1.4 4.73-1.31 4.83 0 0-5.13 2.6-6.53 2-1.41-.6-4.83-1.2-7.54-.2-1.51.4-2.52 1.01-5.43-.1l-3.12-.4s-.5 2.62.3 3.42c.6.7 2.32 3.32 2.32 5.43-.1 2.01-.8 3.42-.9 3.82-.2.5-.4 2.2-.3 3.72 0 0 .5 2.11 0 3.41-.61 1.31-1.32 3.72-1.22 5.23 0 1.51-.5 3.42-1.1 4.53a8.8 8.8 0 0 0-1 6.73c.7 3.42-.3 3.52-.5 3.12-.2-.4-.81-2.21-1.72-2.11-.9 0-1.8.6-2.1.1-.31-.5-1.22-1.1-1.82-1.1-.5-.1-2.61-2.32-2.51-3.62.1-1.31-.2-2.02-.9-3.02-.71-1-1.41-1.91-1.11-2.51.3-.6 1.4-3.42.9-4.43-.5-1-.2-1.6-.1-2.3.2-.71.1-1.52-.5-2.22-.5-.8-1.91 0-2.51-1.1-.5-1.01-1.01-2.02-1.51-1.92-.5.1-2.41.4-2.31-.4 0-.9-.3-2.51-1.11-2.11-.8.3-.6 1.4-1.4 1.7-.71.31-1.62-.5-1.92-.1-.2.31-1.1 1.62-1.9.51-.71-1.2-2.42-1.2-2.42-1.2s-1.1-.91-1.2-4.63c-.2-3.72.3-6.84-.6-7.94-.91-1-1.32-3.02-.91-5.33 0 0 .4-2.31-.4-3.12-.8-.8-.5-4.22-.5-4.52 0-.4-.4-2.81-.51-3.31-.3-.5-.4-1.51-.4-3.32 0-1.91.7-3.42-.2-5.23-.8-1.8-1.71-4.12-2.01-5.03-.3-.9.1-2.71-.8-3.61-.61-.6-.51-1.61-.71-2.52h49.66z" clip-rule="evenodd" fill="#d6d5c9" fill-rule="evenodd"/><path d="M38.5 155.88c-.1-.6-.3-1-.8-1.4-1.32-1.01-1.22-3.02-1.32-3.83-.1-.7.2-3.31-1.1-5.33-.8-1.2-.7-2.4-.7-2.81 0-.3.1-2.82-.5-3.92-.5-1.2-1.51-3.52-1.41-4.52.1-1.01-.3-6.44-.9-6.94-.51-.6-.51-.9-.41-1.6.2-.81 1.2-2.22 1-3.22-.2-1.01-1.2-3.62-1.2-4.23 0-.6-.3-2.71.1-4.42.3-1.7.6-2.72.4-4.22-.1-1.41-.3-2.92 0-3.72.3-.9 1.4-3.42 1.3-4.33 0-.8.61-7.13 1.01-7.84.5-.7 1.41-2.81 1.71-4.12.2-1.3.5-6.43.3-7.84 0 0 2.02 4.22 2.02 5.53.1 1.4.4 4.73 1.4 4.83 1 0 1.61.3 1.71 1.3 0 1 .4 3.82.8 4.63.3.7 1.31 3.01 1.92 3.11.7 0 1.2.5 1.4 1.31.2.7.1 2.01.8 2.21.81.2 2.22.5 2.62 1.71.5 1.1 1 1.91 1.81 1.91.7.1 2.71.7 3.32 1.71.5 1 1.2 2.11 2 2.11.91.1 1.82-.5 2.42.3.5.8 2.01 3.42 2.92 2.92.9-.6 2.3-1.1 3.11-.4.8.6 1.3 1.9 2.82 1.9 1.6 0 2.6-.8 3.11-.4.5.4 1.4-.2 1.91-.3.4-.1.5-.2 1.71.3 1.2.4 3.62-.2 4.62-.7.8-.6 1.41-1.6 1.91-2.01.5-.3 2.92.5 2.92.5l-1-1.6 2.2.6-.8-1.41 2.11.1-.5-1.2s.2-1.62 1.2-2.32c1.11-.7 2.52-1.7 2.52-2.31.1-.6.7-1.91 1.9-2.01 1.11 0 2.62-1.51 3.33-2.82.7-1.3.7-1.5 1.5-2.31.81-.8 1.31-2.31 1.61-3.52.4-1.2 1.2-4.32 1.1-5.23-.1-.8.41-5.83.91 1.41.1 2.11-.2 7.34-1.4 9.15-1.11 1.9-.7 3.92-.8 5.93-.1 1.91-.31 4.42-1.42 5.83-1.1 1.3-3.62 3.12-2.3 5.23 1.3 2-2.32 5.73-2.32 5.73s-3.12 3.22-3.22 4.72c-.1 1.41-.8 4.83-2.31 5.73-1.61.9-.3 3.92-1.5 4.13-1.32.1.1 1.9.5 3.71.3 1.71-1.52 3.83-.61 4.13 1 .3 2.21.6 1.9 1.8-.4 1.31-.6 5.03.81 6.34.4.5.9 1.2 1.51 2H38.5z" clip-rule="evenodd" fill="#d6d5c9" fill-rule="evenodd"/><path stroke-miterlimit="2.41" d="M99.31 91.44c.1 2.11-.2 7.34-1.4 9.15-1.1 1.91-.7 3.92-.8 5.93-.1 1.91-.31 4.42-1.42 5.83-1.1 1.3-3.61 3.12-2.3 5.23 1.3 2.01-2.32 5.73-2.32 5.73s-3.11 3.22-3.22 4.72c-.1 1.41-.8 4.83-2.3 5.73-1.62.9-.31 3.92-1.52 4.13-1.3.1.1 1.9.5 3.72.3 1.7-1.5 3.82-.6 4.12 1 .3 2.21.6 1.91 1.8-.4 1.31-.6 5.03.8 6.34 1.31 1.4 3.43 5.23 3.63 7.24.1 1.9.6 5.42 2.2 6.53 1.62 1.1 1.31 2.31 1.71 3.82.4 1.5.81 3.22 2.01 3.82 1.21.6 3.02-1.3 2.92-.3 0 .9-2.41 3.22-.4 3.12 2.01-.1 3.52-.7 2.61.4-.8 1.2-4.82 6.13-3.31 6.23 1.5.1.4 4.73-1.31 4.83 0 0-5.13 2.6-6.53 2-1.41-.6-4.83-1.2-7.54-.2-1.51.4-2.52 1.01-5.43-.1l-3.12-.4s-.5 2.62.3 3.42c.6.7 2.32 3.32 2.32 5.43-.1 2.01-.81 3.42-.9 3.82-.21.5-.41 2.2-.31 3.72 0 0 .5 2.11 0 3.41-.6 1.31-1.3 3.72-1.2 5.23 0 1.51-.51 3.42-1.11 4.53a8.8 8.8 0 0 0-1 6.73c.7 3.42-.31 3.52-.51 3.12-.2-.4-.8-2.21-1.71-2.11-.9 0-1.8.6-2.11.1-.3-.5-1.2-1.1-1.81-1.1-.5-.1-2.61-2.32-2.51-3.62.1-1.31-.2-2.02-.9-3.02-.71-1-1.42-1.91-1.11-2.51.3-.6 1.4-3.42.9-4.43-.5-1-.2-1.6-.1-2.3.2-.71.1-1.52-.5-2.22-.5-.8-1.91 0-2.52-1.1-.5-1.01-1-2.02-1.5-1.92-.5.1-2.42.4-2.32-.4 0-.9-.3-2.51-1.1-2.11-.8.3-.6 1.4-1.41 1.7-.7.31-1.6-.5-1.91-.1-.2.31-1.1 1.62-1.9.51-.71-1.2-2.42-1.2-2.42-1.2s-1.1-.91-1.2-4.63c-.21-3.72.3-6.84-.61-7.94-.9-1-1.3-3.02-.9-5.33 0 0 .4-2.31-.4-3.12-.81-.8-.51-4.22-.51-4.52 0-.4-.4-2.81-.5-3.31-.3-.5-.4-1.51-.4-3.32 0-1.91.7-3.42-.2-5.23-.8-1.8-1.71-4.12-2.02-5.03-.3-.9.1-2.71-.8-3.61-.9-.9-.2-3.02-1.5-3.93-1.32-1-1.22-3.01-1.32-3.81-.1-.7.2-3.32-1.1-5.33-.8-1.2-.7-2.42-.7-2.82 0-.3.1-2.81-.5-3.92-.5-1.2-1.52-3.52-1.41-4.52.1-1-.3-6.43-.9-6.94-.51-.6-.51-.9-.41-1.6.2-.8 1.2-2.22 1-3.22-.2-1-1.2-3.62-1.2-4.22 0-.6-.3-2.72.1-4.43.3-1.7.6-2.71.4-4.22-.1-1.4-.3-2.91 0-3.72.3-.9 1.4-3.42 1.3-4.32 0-.8.61-7.14 1.01-7.84.5-.7 1.41-2.82 1.71-4.13.2-1.3.5-6.43.3-7.84 0 0 2.01 4.23 2.01 5.53.1 1.41.4 4.73 1.41 4.83 1 0 1.61.3 1.71 1.3 0 1.01.4 3.83.8 4.63.3.7 1.31 3.02 1.91 3.12.7 0 1.21.5 1.41 1.3.2.7.1 2.01.8 2.22.81.2 2.22.5 2.62 1.7.5 1.1 1 1.91 1.81 1.91.7.1 2.71.7 3.32 1.71.5 1 1.2 2.11 2 2.11.91.1 1.82-.5 2.42.3.5.81 2.01 3.42 2.92 2.92.9-.6 2.3-1.1 3.11-.4.8.6 1.3 1.9 2.82 1.9 1.6 0 2.6-.8 3.11-.4.5.4 1.4-.2 1.91-.3.4-.1.5-.2 1.71.3 1.2.4 3.62-.2 4.62-.7.8-.6 1.41-1.6 1.91-2 .5-.31 2.92.5 2.92.5l-1-1.61 2.2.6-.8-1.4 2.11.1-.5-1.21s.2-1.61 1.2-2.32c1.11-.7 2.52-1.7 2.52-2.3.1-.61.7-1.92 1.9-2.02 1.11 0 2.62-1.51 3.33-2.81.7-1.31.7-1.51 1.5-2.32.81-.8 1.31-2.31 1.61-3.51.4-1.21 1.2-4.33 1.1-5.23-.09-.81.41-5.83.91 1.4z" clip-rule="evenodd" fill="none" stroke="#deddd3" stroke-width=".79" stroke-linecap="round" stroke-linejoin="round"/><path d="M127.16 130.15c0-.4.1-.8.4-1.41.9-1.4 1.41-2.41 1.5-3.62.11-1.2.41-14.27-.9-15.58-1.4-1.31-1.1-1.81-1-3.02.1-1.2.2-4.12-.7-5.53-.9-1.2-2.21-6.73-3.62-7.54a9.25 9.25 0 0 1-3.02-2.91c-.4-.8-2.1-5.83-4.02-6.44-1.9-.6-2.41-.9-3.31-1.9-.91-1.11-2.52-2.42-3.73-2.52-1.3-.1-3.31-2.41-5.52-2.31-2.22.1-3.22.8-3.42-.7-.2-1.51.3-5.43.6-6.14.3-.8.9-1.7.6-3.92-.4-2.21.6-2.71 1.01-4.12.3-1.51 1.2-3.62.5-5.13-.6-1.5-.7-3.51-.7-4.22l.7-5.43s.8 1.31.8 2.11c0 .7.71 3.92 1.72 4.23.9.3 3.01 1.4 3.01 2.4-.1 1.01.1 2.22 1.51 2.62 1.5.3 2.51-.4 3.22.7.6 1.01.1 1.72 1 2.22 1 .6 3.12 1.2 2.82 2.2-.3 1.01.8 2.52 1.5 3.03.71.6 2.92 1.2 3.12 2.5.1 1.22.5 3.93 1.41 4.73.9.8 2.51 2.42 2.21 3.62-.3 1.2.8 2.72 1.5 3.52.61.8 1.62 1.6 1.52 3.02-.1 1.5.7 3.32.7 3.32s1.6 1.8 1.6 2.8c-.1 1.01-.5 2.93 0 3.63.41.8.81 2.61.51 3.31-.3.7-.6 4.63.1 5.43.7.8 1.31 2.52 1 3.42-.3 1-.4 2.21.31 3.32.6 1 .5 3.62.4 4.72-.1.9.4 5.43-.2 6.34-.5 1-1.3 4.82-1.3 4.82s.3 2.72-.2 3.72c-.1.2-.3.4-.4.7zm18.9 0c.3-.5.5-1.01.5-1.61.1-1.31 1.91-1.91 2.21-2.92.3-.9-.2-4.42.5-3.62.6.8 1.21 3.02.81 6.03-.1.6-.4 1.31-.6 2.11zm3.42 0c-.9 2.4-2.31 4.92-2.21 6.23.2 1.7-.1 1.7-.5 3.22-.3 1.5-1.01 1.6-.61 2.91.4 1.2.8 2.51 0 3.22-.8.7-.8 4.22-.3 5.03.4.8.5 2 .2 3.01-.3.9-1.6 2.01-.6 2.92.9.8 1 2.5 1 2.5s-2.31 2.72-1.5 3.83c1 1 1.2 1.5.6 2.71s-.4 2.92-.4 2.92.2 4.22.6 5.43c.4 1.3 1.6 2.1 1.2 3.62-.3 1.4-.1 1.7.3 2.71.5 1 1.11 2.81 1.11 2.81s-1 3.32.7 3.72c1.71.3 1.81 1.61 2.02 2.31.2.8 2.9 1.01 4.42 1.51 1.4.6 5.02-2.3 7.34.5.7 1.01 3.31-1.5 3.01-.5 0 0 1.91-.9 2.01-1.9.1-.91 1.31-.81 2.11-1.51.81-.7 2.11-5.33 2.42-3.32.4 2 .2 3.72-1.31 5.13-1.6 1.3-2.91 2.91-2.91 2.91s0 3.32-2.02 3.82c-2 .6-2.2.4-3.01 1.3-.8.91-1 3.12-2.52 3.53-1.4.4-1.8 2.4-2.81 2.3-1-.1-1.9.11-2.51 1.52-.6 1.5-.2 3.01-1.21 3.11-1 .2-1.6 1.41-1.9 2.42-.31.9-.91 2.3-.91 2.3s-.4-12.06-1.2-15.07c-.82-3.02-4.13-15.28-5.04-17.3 0 0-2-2.3-2.1-3.81-.2-1.51-2.02-7.54-4.33-6.94l-2.01 1.5s-1.81-1.1-2.11.91c-.4 1.91-1.1 3.02-2.61 3.22-1.51.3-4.63 1.4-4.63 1.4s-.7-3.41-.8-4.42c-.2-1-.5-4.42.1-6.43.7-1.91 1.1-5.33.7-6.53-.4-1.31.2-2.02.5-2.92.3-1 1.21-4.12 1.01-5.12-.1-1.01-.8-1.92-.5-2.92.3-1 1.2-2.82.6-4.62-.6-1.81-.5-3.72-.5-3.72s.6-5.83-.3-7.44c-.5-.9-.8-1.41-.9-2.01h3.2c-.4 1-.6 2.71.11 3.92.8 1.5 0 3.92.1 4.72.3.7.6 2.21 1.6 1.81 1.01-.4 1.32-1.4 2.12-1.6.7-.2 1.7-.1 1.8-1.11 0-1 .91-2.42 1.62-2.32.7 0 1.4.6 2.21.1.8-.4 1.6-1.4 2.31-1.3.7.1 1.91.4 2.21-.8.4-1.31 0-2.02.7-2.42.4-.3.71-.6.91-1z" clip-rule="evenodd" fill="#d6d5c9" fill-rule="evenodd"/><path stroke-miterlimit="2.41" d="M127.26 176.29s-.7-3.42-.8-4.43c-.2-1-.5-4.42.1-6.43.7-1.91 1.1-5.33.7-6.53-.4-1.31.2-2.02.5-2.92.3-1 1.21-4.12 1-5.13-.1-1-.8-1.9-.5-2.91.3-1 1.21-2.82.61-4.62-.6-1.81-.5-3.72-.5-3.72s.6-5.84-.3-7.44c-.8-1.51-1.31-2.02-.5-3.42.9-1.4 1.4-2.41 1.5-3.62.1-1.2.4-14.27-.9-15.58-1.41-1.31-1.11-1.81-1-3.02.1-1.2.2-4.12-.71-5.53-.9-1.2-2.21-6.73-3.62-7.54a9.25 9.25 0 0 1-3.02-2.91c-.4-.8-2.1-5.83-4.02-6.44-1.9-.6-2.41-.9-3.31-1.9-.91-1.11-2.52-2.42-3.73-2.52-1.3-.1-3.31-2.41-5.52-2.31-2.22.1-3.22.8-3.42-.7-.2-1.51.3-5.43.6-6.14.3-.8.9-1.7.6-3.92-.4-2.21.6-2.71 1.01-4.12.3-1.51 1.2-3.62.5-5.13-.6-1.5-.7-3.51-.7-4.22l.7-5.43s.8 1.31.8 2.11c0 .7.71 3.92 1.72 4.23.9.3 3.01 1.4 3.01 2.4-.1 1.01.1 2.22 1.51 2.62 1.5.3 2.51-.4 3.22.7.6 1.01.1 1.72 1 2.22 1 .6 3.12 1.2 2.82 2.2-.3 1.01.8 2.52 1.5 3.03.71.6 2.92 1.2 3.12 2.5.1 1.22.5 3.93 1.41 4.73.9.8 2.51 2.42 2.21 3.62-.3 1.2.8 2.72 1.5 3.52.61.8 1.62 1.6 1.52 3.02-.1 1.5.7 3.32.7 3.32s1.6 1.8 1.6 2.8c-.1 1.01-.5 2.93 0 3.63.41.8.81 2.61.51 3.31-.3.7-.6 4.63.1 5.43.7.8 1.31 2.52 1 3.42-.3 1-.4 2.21.31 3.32.6 1 .5 3.62.4 4.72-.1.9.4 5.43-.2 6.34-.5 1-1.3 4.82-1.3 4.82s.3 2.72-.2 3.72c-.61.9-1.21 3.12-.3 4.63.8 1.5 0 3.92.1 4.72.3.7.6 2.21 1.6 1.81 1-.4 1.3-1.4 2.11-1.6.7-.2 1.7-.1 1.81-1.11 0-1 .9-2.42 1.6-2.32.71 0 1.42.6 2.22.1.8-.4 1.6-1.4 2.31-1.3.7.1 1.91.4 2.22-.8.4-1.31 0-2.02.7-2.42.8-.5 1.3-1.4 1.4-2.61.1-1.31 1.92-1.91 2.22-2.92.3-.9-.2-4.42.5-3.62.6.8 1.2 3.02.8 6.03-.4 2.92-2.91 6.64-2.81 8.35.2 1.7-.1 1.7-.5 3.22-.3 1.5-1 1.6-.6 2.91.4 1.2.8 2.51 0 3.22-.81.7-.81 4.22-.3 5.02.4.8.5 2.01.2 3.02-.3.9-1.61 2.01-.61 2.92.9.8 1 2.5 1 2.5s-2.3 2.72-1.5 3.83c1 1 1.2 1.5.6 2.71s-.4 2.92-.4 2.92.2 4.22.6 5.43c.4 1.3 1.61 2.1 1.2 3.62-.3 1.4-.1 1.7.3 2.71.51 1 1.12 2.81 1.12 2.81s-1.01 3.32.7 3.72c1.7.3 1.8 1.61 2.01 2.31.2.8 2.91 1.01 4.42 1.51 1.41.6 5.03-2.3 7.34.5.7 1.01 3.32-1.5 3.02-.5 0 0 1.9-.9 2-1.9.1-.91 1.32-.81 2.12-1.51s2.1-5.33 2.41-3.32c.4 2 .2 3.72-1.3 5.13-1.61 1.3-2.92 2.91-2.92 2.91s0 3.32-2.01 3.82c-2.01.6-2.21.4-3.02 1.3-.8.91-1 3.12-2.51 3.53-1.4.4-1.81 2.4-2.82 2.3-1-.1-1.9.11-2.5 1.52-.61 1.5-.21 3.01-1.22 3.11-1 .2-1.6 1.41-1.9 2.42-.3.9-.91 2.3-.91 2.3s-.4-12.06-1.2-15.07c-.81-3.02-4.13-15.28-5.03-17.3 0 0-2.01-2.3-2.11-3.81-.2-1.51-2.01-7.54-4.32-6.94l-2.02 1.5s-1.8-1.1-2.1.91c-.4 1.91-1.11 3.02-2.62 3.22a48.4 48.4 0 0 0-4.63 1.4z" clip-rule="evenodd" fill="none" stroke="#deddd3" stroke-width=".79" stroke-linecap="round" stroke-linejoin="round"/><path d="M71.47 2.38c1-.5 1-.7 2.31-.4 1.2.4 2.81.3 3.12.4.4 0 1.5-.7 2.3.2.81.9 2.32 1.4 2.62 1.4.4.1 1.41-.6 2.22.6.8 1.32 1.4 3.32 2.6 3.73 1.21.3 2.22 2.1 2.42 2.61.2.5.6.7 1.61 1.1 1.1.3 2.21 1.11 2.31 1.81.3.81.4 2.22.6 2.82.2.6.4 2.11.4 2.11s.2.5-1 .6c-1.1 0-3.82-3.21-4.72-2.1-1 1-.1 3.61-.7 3.61-.71 0-3.32-1.1-4.03-.5-.6.6-1.6 1.1-2.51.9-.8-.1-.5-1.8-2.31-2.81-1.81-1-.81.1-2.42.3-1.6.3-2.1-1.3-2.61-1.7-.4-.4-1.5 1.3-4.02 1.4-2.41.1-3.42-2.11-4.22-1-.8 1.1-1.31 1.4-2.42 1.5-1.1.2-2.2-.5-3.01.4-.8 1.01-.8.3-2.11 0-1.21-.2-2.22 1.81-3.62 1.81-1.51-.1 1.7-2.71.9-3.51-.7-.8-3.11 2.71-4.32 2.3-1.1-.5-1.6.1-2.51.61-.8.6-2.72 1.61-2.01 0 .5-1.5-1.91-2.91-2.11-3.92-.2-1 1.1-4.62 1.8-5.33.7-.7 3.42-1.2 4.13-2.81.7-1.5 2.1-1.3 3.72-2.21 1.7-.8 2.81.9 3.52-.1.9-1 .8-1.41 1.2-1.2.5.1 1.81.2 2.72-.61.9-.8 2.4-2.01 3.61-1.71 1.31.1 2.01.8 2.72.4.6-.5 3.82-.7 3.82-.7zm35.48 45.43c1.31.1 2.22-.1 3.42-.8 1.31-.6 1-.1 2.01-.6 1-.4 1.31-1.31 2.62-1 1.2.3 2.1.4 3.11-.31 1.1-.7 4.83-.9 5.73-.6 1 .3 1.71.6 2.72.2 1-.4 1.8-1.1 2.71-.6 1 .6 2.31-.81 3.42.2a6.17 6.17 0 0 0 3.62 1.5c.8.1 7.24-1.5 8.14.6.8 2.02 2.62 1.62 2.62 1.62l1.1 1.5s2.61.7 2.81 2.21c.1 1.41.5 2.21 1.82 2.32 1.2.1 2.7 2.4 2.7 2.4s.71 2.22 1.92 2.32c1.2.1 2.51 1.91 2.91 2.92.5 1 .9 2 2.11 2.1 1.21.1 2.11 1.92 2.52 3.12.4 1.31 2 3.82 2.3 5.63.41 1.71 2.62 12.27 2.12 13.68-.6 1.4 4.12 15.48 3.32 16.48-.8.9 1.1 4.73 1.1 5.63-.1 1.1.4 4.02-.3 4.73-.8.7 2.82 4.62 1.61 8.54-.5 1.4 1.5 6.43.3 6.84-1.3.4-2.81 5.22-4.02 3.72-1.1-1.61-2-5.63-4.02-5.74-1.9-.1-2.81-8.84-3.42-10.35-.7-1.5-1.1-7.44-2.91-8.54-1.91-1.1-.6-6.64-1.51-8.25-1.3-2.41-6.03-6.93-7.04-10.35-1.1-3.72-8.34-5.63-10.25-6.33-2.31-.8-3.82-.7-7.74-3.02-4.22-2.51-5.73-6.83-6.13-7.24-.6-.8-1.92-3.01-4.23-5.93a31.77 31.77 0 0 0-3.72-4.12c-.9-.8-2.81-2.21-4.42-2.81-1.7-.6-1.6-3.02-4.22-3.42-2.72-.5-2.62-2.42-3.02-3.22-.4-.8-2-.6-3.62-1.7-2.5-1.92 0-3.53 1.82-3.33z" clip-rule="evenodd" fill="#f2f1e9" fill-rule="evenodd"/><path stroke-miterlimit="2.41" d="M109.17 95.97c2.81.7 6.83 7.33 7.54 10.85.8 3.52.9 8.45 2.4 9.55 1.42 1 1.62 4.02.91 7.44-.7 3.32-2.71 12.07-2.71 12.07s2.51 6.63 1.4 8.54c-1.1 1.81-.5 6.73-1.6 8.65-1.1 1.9-.5 6.83-5.83 6.43-5.43-.3-6.64 3.01-8.45.4-1.7-2.51-2.41-8.44-4.12-10.96-1.8-2.6-1.2-5.02-.5-8.44s-1.81-8.95.3-11.76c2.21-2.82 3.82-5.13 4.93-7.54 1.2-2.42-.6-5.53 1-7.84 1.71-2.32.3-3.92 1.51-6.84 1.1-2.81.7-11.26 3.22-10.55zm2.81 82.33c1.91.5 7.34.5 7.64 3.42.3 3.01-.9 5.42.5 6.93 1.41 1.61 1.61 5.53.5 7.94-1.1 2.42.61 5.93-.6 8.35-1.1 2.31 1.41 8.44-.2 9.85-1.5 1.3-2.91 7.64-6.33 6.94-3.42-.7-2.81-2.11-4.62-3.82-1.91-1.51-3.22-4.63-3.02-6.54.1-2 1.7-3.82 0-7.44-1.81-3.52-1.3-10.85-1.1-12.87.1-1.9-3.22-4.12-.51-7.43 2.72-3.22 5.33-6.04 7.74-5.33zM56.7 241.53c3.1.9 6.22-5.43 6.83-.5.7 4.92.2 11.36.1 14.27-.2 2.92.7 4.42-2.01 6.74-2.62 2.3.5 7.43-4.83 7.13-5.43-.4-6.53 1.51-7.44-.6-.8-1.9 1.1-.8.4-4.32-.8-3.52-.8-4.53-.1-6.94.7-2.41 2.52-7.24 2.12-9.65-.3-2.51.5-7.34 4.92-6.13z" clip-rule="evenodd" fill="#f2f1e9" fill-rule="evenodd" stroke="#e6e5dc" stroke-width=".36" stroke-linecap="round" stroke-linejoin="round"/><path d="M52.67 47.61c-.3-.9-.8-2.91-.8-3.41s-.3-1.11-.91-1.31c-.6-.1.2-.4.1-.9-.2-.51-.2-1.11-.9-1.72-.7-.5-1.31-.9-1.51-1.4-.2-.5-.8-1.1-1.5-1.1-.71-.1-1.22.5-2.02.5-.9-.1-1.2.7-1.3 1-.2.3.3 2.51 0 2.91-.3.5.7 1.51 1.5 1.51.9.1 1.6.6 2.71.4 1.11-.1 2.11-.5 2.42 0 .4.6 1.2.9 1.1 1.61 0 .7 1.11 1.91 1.11 1.91z" clip-rule="evenodd" fill="#babaaf" fill-rule="evenodd"/><path d="M51.26 44.1s-.2-.5-.9-.81c-.8-.3-.3-.7-.2-1 0-.4-.1-1.01-.8-1.41-.71-.4-.81-2.32-2.22-2.22-1.3 0-3.72-.4-2.61 3.02 0 0 .5 1.5 2.31 1.91 1.8.3 2.11-.2 2.61-.1s1.61.3 1.81.6z" clip-rule="evenodd" fill="#1a1a1a" fill-rule="evenodd"/><path d="M47.14 39.47c.7.2.4 1.2-.2.8-.6-.2-.5-1 .2-.8z" clip-rule="evenodd" fill="#7f7f7f" fill-rule="evenodd"/><path d="M87.25 48.62c.1-.9.3-3.02.3-3.52-.2-.4 0-1.1.6-1.4.5-.2-.3-.41-.2-.91.1-.6 0-1.1.6-1.81.51-.7 1.02-1.1 1.11-1.71.1-.5.6-1.2 1.31-1.3.7-.2 1.2.4 2.01.1.9-.2 1.31.6 1.51.8.2.3.1 2.5.4 2.91.4.4-.4 1.61-1.2 1.81-.8.2-1.41.7-2.52.8-1.2 0-2.1-.1-2.41.41-.2.6-1 1-.8 1.71.2.8-.7 2.1-.7 2.1z" clip-rule="evenodd" fill="#babaaf" fill-rule="evenodd"/><path d="M88.06 44.9s.1-.6.8-.9c.6-.4.1-.71 0-1.11-.1-.3-.1-.9.5-1.51.5-.5.3-2.31 1.71-2.51 1.3-.2 3.62-1 3.12 2.5 0 0-.2 1.52-2.01 2.22-1.71.7-2.11.2-2.62.4-.4.2-1.4.6-1.5.9z" clip-rule="evenodd" fill="#1a1a1a" fill-rule="evenodd"/><path d="M91.27 39.67c-.7.3-.2 1.2.3.8.5-.4.3-1.1-.3-.8z" clip-rule="evenodd" fill="#7f7f7f" fill-rule="evenodd"/><path d="M71.77 77.97c1.7-.2 2.51-1.1 3.12-1.4.7-.3 3.51-2.22 4.92-.61 1.31 1.7.8 2.71-.8 4.72-1.71 1.91-1.1 5.23-3.22 6.04-2.01.8-6.23 1.4-10.25-.6 0 0-1-1.31-1.2-2.32-.21-.9-.81-2.71-1.22-3.42-.5-.6-1.8-3.62-.2-4.52 1.31-.8 4.83.7 5.33 1.2.4.51 2.82.91 3.52.91z" clip-rule="evenodd" fill="#d9d9cc" fill-rule="evenodd"/><g clip-rule="evenodd" fill-rule="evenodd"><path d="M71.77 78.27c1.5-.1 2.81-1.1 3.02-1.2.7-.4 3.41-2.21 4.72-.7 1.2 1.6.6 2.5-.9 4.42-1.51 1.8-1.2 4.92-3.12 5.72-1.91.8-5.53 1.41-9.35-.5 0 0-1.2-1.3-1.3-2.2a9.37 9.37 0 0 0-1.31-3.22c-.4-.6-1.81-3.42-.3-4.23 1.2-.8 4.62.7 5.12 1.11.8.5 2.82.9 3.42.8z" fill="#dbd8cd"/><path d="M71.77 78.67c1.4-.2 3.12-1.3 2.92-1.2.6-.3 3.31-2.21 4.52-.7 1.2 1.5.5 2.3-.9 4.12-1.51 1.8-1.31 4.62-3.12 5.42-1.81.7-4.83 1.41-8.55-.4 0 0-1.3-1.3-1.5-2.2-.1-.91-.7-2.42-1.11-3.03-.4-.6-1.81-3.11-.4-3.92 1.1-.7 4.42.7 4.82 1.11 1.1.5 2.82.9 3.32.8z" fill="#ded7cd"/><path d="M71.77 79.08c1.3-.3 3.32-1.41 2.92-1.21.5-.2 3.01-2.11 4.22-.7 1.1 1.4.4 2.1-1 3.82-1.32 1.7-1.32 4.32-3.12 5.02a8.24 8.24 0 0 1-7.54-.2s-1.51-1.3-1.61-2.11c-.2-.9-.8-2.31-1.2-2.92-.4-.5-1.82-2.81-.51-3.61 1.1-.6 4.12.8 4.72 1.1 1.31.5 2.62.9 3.12.8z" fill="#e3dad1"/></g><path d="M71.77 79.48c1.1-.4 3.72-1.6 2.81-1.1.5-.3 2.92-2.12 4.03-.8 1.1 1.3.3 2-1.01 3.5-1.3 1.62-1.5 4.03-3.12 4.73-1.6.7-3.41 1.5-6.63-.1 0 0-1.61-1.3-1.81-2.11-.1-.8-.8-2.1-1.1-2.61-.4-.6-2.02-2.62-.71-3.32 1-.6 4.02.8 4.52.9 1.61.6 2.62 1.01 3.02.9z" clip-rule="evenodd" fill="#e6dad3" fill-rule="evenodd"/><path d="M78.4 76.06c.5-.4 1.91-1.4 2.62-.7.3.2 0 1.5-1.4 1.9-1.32.41-1.32 1.21-1.62 1.42-.3.2-.7-2.02.4-2.62z" clip-rule="evenodd" fill="#b8b8ad" fill-rule="evenodd"/><path d="M74.69 81.5c-3.82.19-.5-.91-.1-1.42.5-.5 1.2-.3 1.7-1.2.5-1.01 1.61-2.82 2.42-3.12.8-.2.6.7.4 1.4-.2.6-1.1 1.21-1.4 2.12-.31 1-1.01 2.11-3.02 2.21z" clip-rule="evenodd" fill="#ccc2bb" fill-rule="evenodd"/><path d="M64.83 76.36s-1.3-1.7-3.31-1.3c-1.91.3-.3 1.1.7 1.3 1 .3 2.21 1.71 2.21 1.71s1.1-.5.4-1.7z" clip-rule="evenodd" fill="#b8b8ad" fill-rule="evenodd"/><path d="M68.15 81.09c3.92.5.7-.7.2-1.21-.4-.5-1.2-.2-1.7-1.1-.5-.91-1.52-2.62-2.32-2.82-.9-.2-.7.7-.6 1.3.3.61 1.2 1.11 1.4 2.02.3.8 1.01 1.6 3.02 1.8z" clip-rule="evenodd" fill="#ccc2bb" fill-rule="evenodd"/><path d="M82.13 88.02c-.4-.5-.91.1-2.52-.1-2.71-.5-4.12 1-6.73-.1-.8-.3-1-1.2-.9-1.9 0-.61-.51-.1-.61.6 0 .8-.7 1.7-1.61 1.6-1 0-3.22-.4-4.83-.2a7.3 7.3 0 0 1-3.71-.6c-.7-.4-.9.4.1.8 1.1.4 2 .8 3.31.7.6 0 1 .71 7.24 1.62 1.91.2 4.73-1.51 5.73-1.41.9.1 2.31-.4 3.42-.4.9-.1 1.5-.2 1.1-.6z" clip-rule="evenodd" fill="#c2c2b3" fill-rule="evenodd"/><path d="M79.61 76.67c.3-.3 1-.8.1-.8-.9.1-1.7.5-2.31 1.6 0 0-.9 2.11-1.7 2.51-.81.4-2.52 1.1-2.22 1.1.3 0 2.11-.4 2.91-1.4.9-.9 1.01-1.5 1.61-2.21.3-.2 1.3-.6 1.61-.8zm-16.48-.21c-.3-.3-1.11-.9-.2-.9.8 0 1.9.7 2.5 1.8 0 0 1.21 2.02 2.02 2.42.9.4 2.31 1 2.01 1-.3.1-2.01-.3-2.81-1.1-.8-.9-1.11-1.6-1.71-2.21-.3-.2-1.51-.8-1.82-1z" clip-rule="evenodd" fill="#867d78" fill-rule="evenodd"/><path stroke-miterlimit="2.41" d="M96.2 189.25c-.1-1.5.1-.7.6-1.6.6-1-.9-1.1-.8-2.12 0-.9 0-3.41.7-4.32.8-.9 1.4-1.4.4-1.2-1 .2-2.81 1.5-3.01.8-.2-.8 1.9-3.12 1.9-3.12s-2.8 1.11-3 1.81c-.31.7-1.12.9-1.82.3-.7-.5.8-4.12-1.1-2.2-1.71 1.8-2.12 4.72-4.33 4.12-2.2-.7-2.2-.91-3.42-.7-1.2.1-2.5.8-3.92.2-1.5-.61-1.3.6-3.01.8-1.71.1-4.02.7-4.73-.1a6.69 6.69 0 0 0-4.52-1.81c-1.7.2-4.32-.8-5.03-1.31-.7-.5-9.04-8.95-8.14-7.64.9 1.3 5.13 8.14 7.64 10.35 1.5 1.21.1 1.91 1.6 3.02 1.32 1.1 2.62.7 3.02 1.4.5.81.4 2.02 1.81 2.12 1.51.1 4.83 2.31 6.54 2.21 1.8-.1 5.53 1.5 7.03 1.1 1.51-.4 5.94-1.5 7.14-.9 1.21.5 2.52 1.6 5.03.5 1.3-.7 3.42-1.7 3.42-1.7zm44.83-18.39s-.1-3.02.2-3.72c.3-.7-.6-1.71-.6-1.71s-.4-5.23.2-5.93c.5-.7.8-5.13.8-5.13s-.1-2.2.51-3.41c.5-1.11 1-4.23-.1-2.52-1.1 1.51-2.72 4.63-2.92 6.34-.1 1.6.1 4.02-.9 4.42-1 .5-.6 1.7-1.61 2.91-1.1 1.11-.4 3.62-1.7 4.53-1.32.9-3.43 3.31-5.14 3.41-1.8.2-2.1 5.13-2.1 5.13s-1.31 1.5 1.6.7c0 0 3.62-1 4.22-1.7.7-.7 1.21-3.02 1.81-3.32.4-.4.9.3 1.41.1.5-.2 1.71-1.7 2.41-1.4.7.2 1.91 1.3 1.91 1.3zm9.05 20.91c.7.6 1.81 2.81 2.51 2.81.7-.1 2.32-.9 2.92-.1.5.8 1.7.9 2.71.9 1 .1 4.93-1.1 5.93-1.7 1.01-.5 2.22-2.01 2.32-1.2 0 .9-1.1 1.5-1.81 2.1-.7.6-1.71.3-2.52 1.21-.8.9-2 1.91-3.21 2.11-1.21.2-1.51.1-2.22 1-.6.81-2 1.61-2.5 1.31-.51-.3-2.72.9-3.12-.4-.2-1.2-.1-2.91-.5-3.72-.5-.7-2.42-6.03-.5-4.32z" clip-rule="evenodd" fill="#bebdb2" fill-rule="evenodd" stroke="#cbc9be" stroke-width=".36" stroke-linecap="round" stroke-linejoin="round"/><path stroke-miterlimit="2.41" d="M81.72 87.22s-.6.8-1.5.7c-2.02-.1-5.13 1.21-6.04 1.31 0 0-2.41.1-2.41-1.5v-1.11m-.2 1.1s-.3 1.81-2.01 1.51c-.9-.1-2.21.3-4.52-.9 0 0-2.52.7-3.82-1.11" clip-rule="evenodd" fill="none" stroke="#595950" stroke-width=".29" stroke-linecap="round" stroke-linejoin="round"/><path stroke-miterlimit="2.41" d="M42.01 84.9c.3 1.12 2.62 6.54 3.22 6.74.6.3 2.82 3.82 2.92 4.23.1.3 4.22 5.42 4.72 5.52.4.2 2.01 1.61 2.62 2.42.6.8 2.2 1.9 2.71 2 .5.21 2.01.81 2.41 1.22.3.3 3.42 2.3 4.43 1.8 1-.4 6.83 1.01 7.23 1.11.5.2 2.92.6 3.72.6.7.1 3.02-2.4 3.12-2.91.2-.5 1.3-1.4 1.3-1.4l.2.4.71-.91s.8-1 1.3-1.1c.51 0 2.72-3.32 2.82-3.83.2-.5 2.11-2.2 2.32-2.71.2-.4 2.6-2.01 3.01-2.21.4-.3 2.21-3.62 2.31-3.92" clip-rule="evenodd" fill="none" stroke="#99998a" stroke-width=".36" stroke-linecap="round" stroke-linejoin="round"/><path stroke-miterlimit="2.41" d="M97.1 99.38s-2.2 5.73-4.42 7.24c-2.31 1.61-2.82 4.83-2.82 4.83l.1 1.9-.8-.8-.7 3.22-.7-.8-1.92 2.81-1.6 1.4-1 .41s-1.72.6-3.73 1.7c-2.1 1.11-2.71 3.02-4.72 3.13-1.91.1-2.62 2.3-2.62 2.3l-.1 2.42-1.4-1-1.11 1.6-.4-1-3.62 2.01-.2-.8s-1.61 1.1-2.72.3c-1.2-.8-.9-1.51-2.81-2.11-2.01-.7-3.62-2.01-3.62-2.01l-.2.7-1.4-2.01-.81.4-.6-1.7s0-3.02-1.61-4.13c-1.71-1.1-3.22-1.4-3.82-2.61-.6-1.31-1.71-4.43-2.82-5.63-1.1-1.31-4.12-4.33-4.22-7.74l-.5 1-.3-3.01-.8.2-.51-3.02m88.46 79.02l.2-2.52.2-3.42.3-1.7 1 .3-.1-1.71.71.3v-4.93M96.2 190.06l-.6-2.51-.6-1.81-.81.5.1-1.5h-.7l.3-1.22-.7-.1.1-1.5m-18.5 9.35s-3.12-.9-3.92-1.21c-.7-.3-3.02-1.91-3.02-1.91l.1 1.4-1-2.2-1.01.7-.2-1.5s-.2-.51-1.71-1.11c-1.4-.6-2.01-2.42-2.01-2.42l-.1 1.51-1.81-2.61-.5 1-1.31-3.01m83.14-8.25l-.3-2.51.1-1.5-.81.5.7-2.22.1-4.72-.6 1 .7-3.62-.7-.1 1.2-3.82-.7.2 1.51-5.22" clip-rule="evenodd" fill="none" stroke="#99998a" stroke-width=".36" stroke-linecap="round" stroke-linejoin="round"/><path stroke-miterlimit="2.41" d="M129.88 160.3l.9 1.71m.1-4.82l1.6 1.5m-1.9-5.02l1.9 1.6m-1.2-4.72l1.1 1.31m-3.21 5.13l.9 1.6M56.5 177l-.41 2.2m-1.31-5.02l.1 2.2m-1.71-5.02l-.4 2.01m-1.91-4.62v1.3m6.14 3.32l-.81 1.71m2.11.4l-.6 2.31m-4.83-9.14l-.6 1.7m8.74 9.25l-.1 1.71m-.4-4.72l-1.4 2.61m34.27.5l-1.1 2.22m.5-3.42l-1.6 1.6m1.2-3.81l-1.3 1.1M143.34 158l-.8 1.9m.71-4.12l-1.31 1.6m1.81-4.32l-1.81 1.1m1.91-3.81l-1.81 1.6m.5 10.66l-1.1 2.32m1.6 1.4l-.7 2.92m1.81-22.42l-1.4 1.61m10.65 42.93l-.3 1.5m3.72-.5l-.4 2.21m3.41-2.81l.1 2.21m-1.51 0l.2 1.4m-3.82-1.9l-.4 1.7m-2.91-3.41l-.6 1.4m-80.02-68.25l.3 1.7m-2.11-.4l-.1 1.51m-2.02-.4l-.8 2.21m-1.11-2.51l-.6 1.9m11.16-5.42l.2 1.2M78 121.4l1 2.31m1.72-3.81l-.1 2.2m1.91-2.81l.6 2.51m.5-4.62l.2 1m1.31-.7l1.4 1.1m-24.12 10.46l-.9 1.9m-.4-4.01l-1.41 1.9m-.41-1.7l-1.5 1.3m-.5-2.91l-1.92 2.51m-1.4-5.43l-1.71.6m0-4.21l-1.81.6m-.81-2.21l-1.5 1.3m5.73 1.42l-1.21.9m4.03 2.2l-1.11.91m-7.95-9.65l-1.5.9m31.46 18.4l.3 2.92m2.21-2.82l.4 1.51m1.71-4.82l.4 2.1m1.62-2.4l1.9 2.1m.31-4.42l1.3 2.01m2.22-5.73l2.4 1.1m-3.91.71l1.2 2.62m1.91-6.74l1.41 1.1m-21.91 13.28l-.1 1.9m-2.01-.6l-.6 2.42m-1.72-3.52l-.7 2.41m-7.14-3.42l-1.6 1.31m-.91-1.51l-2.01 1.3m-.81-2l-2.1 1.3m1.2-3.31l-2.51 1.3m-.91-2.01l-2 .8m1.3-3.81l-2.11 1.3m-.71-3.41l-2.1.8m.8-3.42l-2.11 1.31m1.2-3.82l-2.01 1.3m.3-3.91l-1.5.4" fill="none" stroke="#99998a" stroke-width=".36" stroke-linecap="round" stroke-linejoin="round"/><path stroke-miterlimit="2.41" d="M76.3 107.63l.4.9m1.4-2.61l.9 1.2m.51-1.91l.4 1.11m2.11-5.02l1.61.8m1.01-4.93l.7 1.2m2.11-2.91l1.51 1m-5.53 3.73l.7.8m-10.75 6.64l-.1 1.8m-2.92-3.31l-.4 1.6m-3.42-1.1l-.3 1.1m-4.12-2.71l-1.2 1.21m-1.32-2.32l-1 1.21m-1.7-3.71l-1.72.4m-1.2-2.42l-2.02.1m-.6-2.51l-1.6.3m-.01-2.81l-1.3.2m-.71-3.42l-1 .8m17.09 14.78l-.1 1.01m-3.42-2.41l-.8.9m-2.31-2.42l-1.01 1.11m-1.61-3.71l-.9.7m.5-2.01l-1.81.4m3.52-.61l-1 .4m-2.32-2.3l-1.4.6m-1.42-3.02l-1 .5m-.91-2.1l-1.5.2m-.61-4.12l-.4 1.1m-1.1-2.72l-.6.91m1 .71l-.3.8m-.81-3.82l-.8.9m0-4.32l-1.41.5m49.86 9.25l1.1.8m-.19-2.81l.5 1.61m-2.11 2.11l.5 1.4m-4.52.41l1.4 1.3m-6.53 4.63l1.1 1.2m-2.31-1.4l.5 1.4m-5.42 3.32v1.61m-3.32-2.11l-.3 1.4m-3.42-1.7l.1 1.5m-4.92-2.4l-.6 1.1m12.76-1.71l.9 1.2m1.01-2.81l.8 1.31m4.53-6.03l1.2.6m4.93-5.83l.7 1.31m3.62-6.03l1.41.9m-.5-3.11l.9 1.1m-.19-3.42l1.2.1m0-2.3l1.1.3m-.4-2.12l.7.3m-55.08.91l-1.11.2m.4-3.12l-1.1.5m.09-2.61l-.8.1m.3-2.21l-.7.1M74.99 180.2l-.2 3.02m-2.72-3.62l-.6 2.32m-2.72-4.12l-.9 2.7m11.25-2.9l.1 2.4m-2.5-3.31l-.1 1.4m8.04.81v1.7m2.81-2.2l.6 1.9m-6.13-.6l-.4 1.91m-16.49-2.51l-.6 1.6m70.17-16.48l2.11 1.21m-.71-4.23l1.92 1.82m-.71-5.43l1.91.6m-1.2-4.32l1.7 1.6m26.75 33.78l.6 1.81m-2.82-1.6l.4 1.9m4.23-4.42l.4 1.51m-17.69-1.41l-1.3 1.71m-.21-4.02l-1.4 1.6m3.92-2.6l-.91 1.9m-2.21-4.12l-1.61 1.61m.6-4.32l-.6 1.4m23.73 2.82l1.1 2.21m.2-4.12l.9 1.81m-.4-5.22l1.4 1.3m-41.6-87.36l1.9-.1m-2.31-3.11l2.61-.8m-3.71-3.03l2.5-1m-4.72-.6l2.01-.3m-1.3-2.12l2.7-.8m-5.82-.9l2.31-.8m-1.91-1.62l2.52-.8m-4.33-.5l2.21-.9m-1.81-1.82l3.02-.8m-3.62-.91l-2.31.8m-.3-2.2l2.51-1.61m-3.22-.2l2.22-2.32m-4.53.91l1.61-1.6m-2.21-.41l.8-1.6m-2.42-.51l1.42-1.81m-3.82 1.2l1.1-1.6m-.6-2.52l-1.3 1.61m-2.22-.4l1.1-2.31m-3.21 1.91l.3-1.91m1.61 5.02l.6-1.4m21.12 37.79l1.4.6m9.45 39.01l1.5 1.1m-.39-2l2.2.7m-1.1-2.81l1.41 1.1m-.7-3.52l1.6.6m0-3.71l1.71 1.1m-.7-3.72l1.4.3m-.8-3.22l1.31.31" fill="none" stroke="#8c8c7e" stroke-width=".36" stroke-linecap="round" stroke-linejoin="round"/><path stroke-miterlimit="2.41" d="M138.62 52.44l1.81-1.91m.1 2.51l1.3-1.4m-.9 3.11l1-.7m1.11 2.31l1.21-.6m.1 2.21l1.3-1.21m.11 2.31l1.8-.7m-.09 2.01l1.2-.9m-10.95-8.15l1-1.1m-1.61-.91l-.6 1.4m-1.41-.49l.8-1.51m-1.7.4l.5-1.2m13.87 13.77l1-.7m-.09 2.51l1-.7m-6.83-7.85l1.2-.7M151.09 65l1-.6m.01 3.12l1.5-.4m-.4 2.71l1.2-.6m-22.41-21.01l.6-1.71m-1.51.39l.3-.9m-1.81 1.61l.1-1.5m13.37 6.53l.7-.6m-16.08-5.34l.1-1.5m-1.81.6l-.4-1.2m3.12 12.26l1.8-.6m-.09 2.01l1.2-.9m-.1 2.11l1-.6m-.09 2.4l1-.6m.61 2.22l1-.71m0 3.21l1.5-.4m-.4 2.72l1.32-.6M80.11 7.6l-.8 1.41M78.7 6.8l-.8 1.9m-1.1-2.8l-.4 2.2M75.29 7l-.1 1.5M73.88 6l-.2 1.9m-1.41-.8l-.1 1.2m-1.51-2.1l-.1 1.7m-1.5-.6l-.1 1.3M67.35 7l.2 1.2m-1.71-.1l-.1 1.21M63.93 7.5l.1 1.2m-1.61-.6l.2.81m-10.15 3.22l.3 1m-1.41-.6l.6 1.4m-2.21-1l.7 1m-1.8.41l.8 1m-1.91-.6l.7.9m-1.3.21l.7.6" fill="none" stroke="#d9d9c4" stroke-width=".36" stroke-linecap="round" stroke-linejoin="round"/><path stroke-miterlimit="2.41" d="M45.53 109.44l-2.2 1.3m2.9.91l-1.1.6m-2.41-5.93l-1.71.6m.2-3.62l-2.11.91m1.3-2.81l-1.9.3m1-2.22l-1.1.5m5.83 7.65l-1.21.4m9.25 7.54l-1.51 1.1m37.2-4.42l2.2 1.91m-.5-4.52l2.21.7m-.4-4.52l1.31 1.6m1.01-2.61l1.4 1m-27.04 51.38l-.1 1.9m-1.91-.59l-.7 2.4m-1.71-3.61l-.7 2.41m-7.04-3.42l-1.61 1.41m-.91-1.51l-2 1.3m-.91-2l-2.01 1.3m1.2-3.31l-2.6 1.3m30.75 8.15l-.2 2m-1.9-.6l-.61 2.42m-1.71-3.62l-.7 2.41m-7.14-3.42l-1.61 1.4m-.8-1.6l-2.11 1.4m-.81-2.01l-2.11 1.31m1.2-3.31l-2.5 1.2" fill="none" stroke="#99998a" stroke-width=".36" stroke-linecap="round" stroke-linejoin="round"/><path stroke-miterlimit="2.41" d="M82.53 34.04l-1 .7m1.1 1.61l-1.31 1.1m-1.31-2l-1.1 1.4m1.1 1.51l-1 1.41m2.81 1.21l-1.3 1.4m1.1 2.52l-1.5.4M60.21 33.84l.9 1.3m-2.71-.9l.9.8m.2 1.72l.6 1m-3-1.71l.9.8m1.3 2.62l.91.8m-.81 1.91l.91.8m-3.21-3.21l.9.8m19.9 25.94l1.1-.9m-3.1 1.3l1.1-1.2m-11.86 1.2l-.9-1.3m-.81.7l-.9-1M78.8 63.6l.61-.9m-16.28 1.1l-.91-1.31" fill="none" stroke="#d9d9c4" stroke-width=".36" stroke-linecap="round" stroke-linejoin="round"/><path d="M53.78 281.04s-.5 6.63 0 7.84c.3 1.2-2.62 4.82-3.42 4.22 0 0-1.61-.1-2.41-.8-1.91-1.61-3.93-2.21.3-11.56 0 0 4.62-4.43 5.53.3z" clip-rule="evenodd" fill="#b1babc" fill-rule="evenodd"/><path stroke-miterlimit="2.41" d="M53.27 279.63c.2.4.4.8.5 1.4 0 0-.5 6.64 0 7.85.3 1.2-2.6 4.82-3.41 4.22 0 0-1.61-.1-2.41-.8-1.81-1.51-3.72-2.21-.1-10.66" clip-rule="evenodd" fill="none" stroke="#000" stroke-width=".36" stroke-linecap="round" stroke-linejoin="round"/><path d="M52.97 280.43s-4.22 9.35-2.21 12.17c0 0 1.91-1.31 2.41-2.42.4-1.1.2-7.74.2-8.24-.1-.5 0-1.5-.4-1.5z" clip-rule="evenodd" fill="#a1a8aa" fill-rule="evenodd"/><path d="M54.08 282.04c-.2 1.3-.7 4.53-1.71 10.15 0 0 .1 2.11 3.92.7 2.81-1.1 5.53-1.5 5.93-4.22.4-2.7-.4-5.73-1-6.53-.7-.8-6.24-6.23-7.14-.1zm58.1 1.91s-1.1 6.54-.7 7.84c.5 1.2-1.5 4.62-2.31 4.02 0 0-.81.2-2.82-1.9-1.7-1.82-4.12-3.52-.1-9.46 0 0 5.03-5.22 5.93-.5z" clip-rule="evenodd" fill="#b1babc" fill-rule="evenodd"/><path d="M111.38 283.35s-3.62 8.64-1.61 11.46c0 0 .5.1 1.2-1.71.4-1.1.81-7.74.81-8.25-.1-.5 0-1.5-.4-1.5z" clip-rule="evenodd" fill="#a1a8aa" fill-rule="evenodd"/><path d="M112.48 284.95c-.2 1.31-.8 4.43-.6 10.36 0 0 1.3 2.41 4.62.1 2.72-2.01 3.32-2.01 3.72-4.73a8 8 0 0 0-1.6-5.83c-.6-.8-5.23-6.03-6.14.1z" clip-rule="evenodd" fill="#b1babc" fill-rule="evenodd"/><path stroke-miterlimit="2.41" d="M54.78 279.93c-.3.4-.6 1.1-.7 2.11-.2 1.3-.7 4.52-1.71 10.15 0 0 .1 2.11 3.92.7 2.81-1.1 5.53-1.5 5.93-4.22.2-1 .1-2.1 0-3.01m49.96-1.71s-1.1 6.54-.7 7.84c.5 1.2-1.5 4.62-2.31 4.02 0 0-.81.2-2.82-1.9-1.7-1.82-4.02-3.42-.3-9.15m6.53-.61c0 .2-.1.5-.1.8-.2 1.31-.8 4.43-.6 10.36 0 0 1.3 2.41 4.62.1 2.72-2.01 3.32-2.01 3.72-4.72a7.7 7.7 0 0 0-.7-4.43" clip-rule="evenodd" fill="none" stroke="#000" stroke-width=".36" stroke-linecap="round" stroke-linejoin="round"/><path stroke-miterlimit="2.41" d="M119.62 278.62l.6 1.41m1.31-1.51l.8 1.31m.51-2.92l.7.91m-2.01-1.01l1 1.31m.51-3.42l.9.9m-.8-2.6l1 .7m-2.71 1.1l.8.9m-2.31 1.01l.4.8m-2.31 1.11l.2 1.11m.1-3.12l.4 1.1m-2.41 1.42l.1.9m.3-2.72l.2 1.11m-2.8.2l-.1 1.21m-1.22-2.41l-.3 1m-1.1 0l-.4 1m-1.21-2l-.4 1.3m-1.11-.7l-.8.9m-.1-1.9l-.8 1.1m-1.21-.3l-.7.7m.8-1.91l-.8.5m-.01-1.81l-.6.4m-37.8-5.32l.6.7m-1.3 0l.6 1m-1.21.32l.4 1.1m-1.7-1.71l.4 1.2m-.5.51l.4 1.3m-1.71-2.71v1.3m-.8.01v1.4m-1.21-2.1l.1.9m-.91-.1l-.1 1.1m-1.1-2v1.4m-1.1-.4l-.2.9m-1.31-1.5l-.1 2.1m-1.31-1.4l-.1 1.3m-1.01-2.2l-.3 1m-1.21-.6l-.8 1.3m-.4-2l-.6 1.2m-.51-1l-.8.9m0-1.81l-.6.8" fill="none" stroke="#8c8c7e" stroke-width=".36" stroke-linecap="round" stroke-linejoin="round"/><path d="M163.85 253.4s-1.2 5.82-.9 7.03c.4 1.1-1.6 4.12-2.41 3.42 0 0-.8.2-2.82-1.91-1.6-1.71-3.92-3.32.2-8.45 0 0 5.13-4.42 5.93-.1z" clip-rule="evenodd" fill="#b1babc" fill-rule="evenodd"/><path d="M163.05 252.89s-3.82 7.54-2.01 10.15c0 0 .5.1 1.3-1.5.5-.91 1.11-6.84 1.01-7.24 0-.5.2-1.41-.3-1.41z" clip-rule="evenodd" fill="#a1a8aa" fill-rule="evenodd"/><path d="M164.15 254.3c-.3 1.3-.9 4.02-.9 9.34 0 0 1.1 2.32 4.52.4 2.82-1.6 3.42-1.6 3.92-4.01a6.8 6.8 0 0 0-1.4-5.43c-.7-.7-5.13-5.73-6.14-.3z" clip-rule="evenodd" fill="#b1babc" fill-rule="evenodd"/><path stroke-miterlimit="2.41" d="M163.85 253.4s-1.2 5.82-.9 7.03c.4 1.1-1.6 4.12-2.41 3.42 0 0-.8.2-2.82-1.91-1.6-1.61-3.82-3.32 0-8.15m6.64-.19c-.1.3-.2.5-.2.7-.3 1.3-.91 4.02-.91 9.34 0 0 1.1 2.32 4.52.4 2.82-1.6 3.42-1.6 3.92-4.01.3-1.51-.1-3.02-.6-4.02" clip-rule="evenodd" fill="none" stroke="#000" stroke-width=".36" stroke-linecap="round" stroke-linejoin="round"/><path stroke-miterlimit="2.41" d="M171.3 245.45l.9.9m-1.61.41l.9.9m-3.82-.2l.6 1.3m1.21-.4l.6 1.31m-3.92-1.31l.6 1.41m-2.51-1.81l.4 1.41m-2.2-1.01l-.1 1.31m-1.11-1.71l-.1 1.2m-1.51-.59l-.4 1.4m-1.21-2.01l-.4 1.51m-1.11-1.51l-.9 1.3m.5-2.5l-.9 1.3m-.41-1.71l-.9 1.31" fill="none" stroke="#8c8c7e" stroke-width=".36" stroke-linecap="round" stroke-linejoin="round"/><path stroke-miterlimit="2.41" d="M89.36 39.17c.2-.8.7-2.01 2.01-2.01 1.2-.1 3.72-.9 4.02-.1 0 0 .3 2-.2 2.71m.81-2.91s.1-.9-.1-1.31c-.2-.6-1.41-.5-2.72 0m-42.72 4.32s-2.21-3.52-5.83-3.22c0 0-1.21-.5-1 2.02" clip-rule="evenodd" fill="none" stroke="#c2c2af" stroke-width=".36" stroke-linecap="round" stroke-linejoin="round"/><path stroke-miterlimit="2.41" d="M43.62 36.45s-.3-.9-.2-1.4c.2-.7 2.81-.2 4.12 1m47.86 7.14s-.1 1.5-3.32 1.8m-48.56-1.7s.3 1.8 3.82 1.6m-3.52-14.17s-1.9 2.42-1.5 4.02l.8 1.61m53.18-6.13s1.8 2.72.2 5.83" clip-rule="evenodd" fill="none" stroke="#c2c2af" stroke-width=".36" stroke-linecap="round" stroke-linejoin="round"/><path stroke-miterlimit="2.41" d="M52.37 61.59l-.8 1.7m.3 1.71l-.5 1.51m-.51-4.52l-.8 1.5m2.91-5.72l-.9 1.4m36.09 2.42l.9.8m-1.51-3.12l.9 1.1m-.49-3.01l1.3 1.31m-.6 5.93l.4 1.4" fill="none" stroke="#c2c2af" stroke-width=".36" stroke-linecap="round" stroke-linejoin="round"/><path stroke-miterlimit="2.41" d="M114 243.04c3.1.9 6.22-5.43 6.93-.5.6 5.02.2 11.35 0 14.27s.7 4.52-1.91 6.83c-2.62 2.22.5 7.34-4.93 7.04-5.43-.4-6.53 1.5-7.34-.5-.9-2.01 1-.9.3-4.43-.8-3.51-.7-4.52-.1-6.93.71-2.41 2.52-7.14 2.22-9.65-.4-2.51.4-7.34 4.82-6.13z" clip-rule="evenodd" fill="#f2f1e9" fill-rule="evenodd" stroke="#e6e5dc" stroke-width=".36" stroke-linecap="round" stroke-linejoin="round"/><path stroke-miterlimit="2.41" d="M121.33 227.66c-1.1.6-1.8 0-3.02.9-1.2 1-3.11 1-4.02.7-.9-.4-2.1-1.3-2.71-.4-.6 1-3.72-.3-3.72-.3l-2.71-2.11s.6 4.02 2.1 4.63c1.51.6 4.33 0 5.24.9.9.9 4.02.3 5.12-.6 1.3-.9 1.91-.6 3.12-.9 1.3-.31 4.92-4.93.6-2.82z" clip-rule="evenodd" fill="#d6d5c9" fill-rule="evenodd" stroke="#deddd3" stroke-width=".79" stroke-linecap="round" stroke-linejoin="round"/></g></g></g></switch></svg>